{"glyphs":{"0":{"ha":1597,"x_min":0,"x_max":1389,"o":"m 903 139 l 903 208 l 833 208 l 833 139 l 903 139 m 1319 347 l 1319 416 l 1250 416 l 1250 347 l 1319 347 m 1250 416 l 1250 555 l 1319 555 l 1319 625 l 1250 625 l 1250 694 l 1181 694 l 1181 416 l 1250 416 m 208 764 l 208 833 l 139 833 l 139 764 l 208 764 m 1319 833 l 1319 972 l 1181 972 l 1181 903 l 1250 903 l 1250 833 l 1319 833 m 555 1180 l 555 1250 l 486 1250 l 486 1180 l 555 1180 m 1042 1180 l 1042 1250 l 972 1250 l 972 1180 l 1042 1180 m 278 1111 l 278 1389 l 486 1389 l 486 1319 l 625 1319 l 625 1389 l 694 1389 l 694 1319 l 625 1319 l 625 1250 l 694 1250 l 694 1180 l 764 1180 l 764 1111 l 694 1111 l 694 1180 l 625 1180 l 625 1111 l 278 1111 m 764 1250 l 764 1389 l 833 1389 l 833 1250 l 764 1250 m 278 0 l 278 278 l 0 278 l 0 972 l 69 972 l 69 1042 l 0 1042 l 0 1111 l 70 1111 l 70 1042 l 139 1042 l 139 1111 l 209 1111 l 209 903 l 278 903 l 278 278 l 972 278 l 972 208 l 1042 208 l 1042 278 l 1111 278 l 1111 694 l 1180 694 l 1180 764 l 1250 764 l 1250 833 l 1111 833 l 1111 972 l 1180 972 l 1180 1042 l 1111 1042 l 1111 1111 l 972 1111 l 972 1180 l 903 1180 l 903 1111 l 833 1111 l 833 1180 l 903 1180 l 903 1250 l 972 1250 l 972 1319 l 903 1319 l 903 1389 l 1111 1389 l 1111 1319 l 1042 1319 l 1042 1250 l 1111 1250 l 1111 1111 l 1181 1111 l 1181 1042 l 1250 1042 l 1250 1111 l 1389 1111 l 1389 1042 l 1319 1042 l 1319 972 l 1389 972 l 1389 694 l 1319 694 l 1319 625 l 1389 625 l 1389 278 l 1111 278 l 1111 139 l 1042 139 l 1042 69 l 1111 69 l 1111 0 l 278 0 z "},"1":{"ha":1597,"x_min":0,"x_max":1389,"o":"m 1042 139 l 1042 208 l 833 208 l 833 139 l 1042 139 m 1180 69 l 1180 139 l 1250 139 l 1250 208 l 1111 208 l 1111 69 l 1180 69 m 694 278 l 694 347 l 625 347 l 625 278 l 694 278 m 764 347 l 764 416 l 694 416 l 694 347 l 764 347 m 694 694 l 694 764 l 625 764 l 625 694 l 694 694 m 764 764 l 764 833 l 694 833 l 694 764 l 764 764 m 347 1250 l 347 1319 l 278 1319 l 278 1250 l 347 1250 m 764 1250 l 764 1319 l 833 1319 l 833 1250 l 764 1250 m 0 0 l 0 278 l 555 278 l 555 555 l 625 555 l 625 625 l 555 625 l 555 972 l 625 972 l 625 1042 l 555 1042 l 555 1250 l 486 1250 l 486 1111 l 347 1111 l 347 1180 l 278 1180 l 278 1111 l 0 1111 l 0 1389 l 139 1389 l 139 1319 l 278 1319 l 278 1389 l 347 1389 l 347 1319 l 416 1319 l 416 1389 l 556 1389 l 556 1319 l 625 1319 l 625 1389 l 694 1389 l 694 1250 l 625 1250 l 625 1042 l 694 1042 l 694 1180 l 764 1180 l 764 1111 l 833 1111 l 833 972 l 694 972 l 694 903 l 833 903 l 833 694 l 694 694 l 694 625 l 833 625 l 833 486 l 764 486 l 764 416 l 833 416 l 833 278 l 1042 278 l 1042 208 l 1111 208 l 1111 278 l 1389 278 l 1389 208 l 1319 208 l 1319 139 l 1389 139 l 1389 0 l 972 0 l 972 69 l 903 69 l 903 0 l 764 0 l 764 139 l 625 139 l 625 69 l 694 69 l 694 0 l 625 0 l 625 69 l 556 69 l 556 0 l 0 0 z "},"2":{"ha":1597,"x_min":0,"x_max":1389,"o":"m 1250 69 l 1250 139 l 1181 139 l 1181 69 l 1250 69 m 416 139 l 416 208 l 347 208 l 347 139 l 416 139 m 833 139 l 833 208 l 764 208 l 764 139 l 833 139 m 1042 69 l 1042 139 l 972 139 l 972 208 l 903 208 l 903 69 l 1042 69 m 1111 139 l 1111 208 l 1042 208 l 1042 139 l 1111 139 m 555 625 l 555 694 l 486 694 l 486 625 l 555 625 m 625 694 l 625 764 l 556 764 l 556 694 l 625 694 m 972 694 l 972 764 l 903 764 l 903 694 l 972 694 m 1319 764 l 1319 833 l 1250 833 l 1250 764 l 1319 764 m 1250 833 l 1250 903 l 1181 903 l 1181 833 l 1250 833 m 416 1180 l 416 1250 l 347 1250 l 347 1180 l 416 1180 m 625 1180 l 625 1250 l 556 1250 l 556 1180 l 625 1180 m 903 1180 l 903 1250 l 833 1250 l 833 1180 l 903 1180 m 1180 1180 l 1180 1250 l 1111 1250 l 1111 1180 l 1180 1180 m 486 1250 l 486 1319 l 417 1319 l 417 1250 l 486 1250 m 833 1250 l 833 1319 l 764 1319 l 764 1250 l 833 1250 m 0 0 l 0 833 l 278 833 l 278 764 l 347 764 l 347 833 l 486 833 l 486 764 l 555 764 l 555 833 l 764 833 l 764 764 l 833 764 l 833 833 l 1042 833 l 1042 764 l 1111 764 l 1111 903 l 1180 903 l 1180 972 l 1111 972 l 1111 1042 l 1180 1042 l 1180 1111 l 1042 1111 l 1042 1180 l 972 1180 l 972 1111 l 833 1111 l 833 1180 l 764 1180 l 764 1111 l 0 1111 l 0 1389 l 209 1389 l 209 1319 l 278 1319 l 278 1389 l 694 1389 l 694 1319 l 764 1319 l 764 1389 l 1042 1389 l 1042 1319 l 972 1319 l 972 1250 l 1111 1250 l 1111 1389 l 1181 1389 l 1181 1319 l 1250 1319 l 1250 1389 l 1389 1389 l 1389 1319 l 1250 1319 l 1250 1250 l 1389 1250 l 1389 1180 l 1250 1180 l 1250 972 l 1389 972 l 1389 903 l 1319 903 l 1319 833 l 1389 833 l 1389 555 l 1319 555 l 1319 625 l 1180 625 l 1180 764 l 1111 764 l 1111 555 l 903 555 l 903 694 l 833 694 l 833 555 l 764 555 l 764 694 l 694 694 l 694 555 l 416 555 l 416 625 l 347 625 l 347 555 l 278 555 l 278 278 l 625 278 l 625 208 l 694 208 l 694 278 l 972 278 l 972 208 l 1042 208 l 1042 278 l 1181 278 l 1181 208 l 1250 208 l 1250 278 l 1389 278 l 1389 208 l 1319 208 l 1319 69 l 1389 69 l 1389 0 l 1180 0 l 1180 69 l 1111 69 l 1111 0 l 833 0 l 833 69 l 764 69 l 764 0 l 694 0 l 694 69 l 625 69 l 625 0 l 0 0 z "},"3":{"ha":1597,"x_min":0,"x_max":1389,"o":"m 833 69 l 833 139 l 764 139 l 764 69 l 833 69 m 416 139 l 416 208 l 347 208 l 347 139 l 416 139 m 1042 139 l 1042 208 l 972 208 l 972 139 l 1042 139 m 1180 69 l 1180 208 l 1250 208 l 1250 278 l 1111 278 l 1111 69 l 1180 69 m 1319 278 l 1319 347 l 1250 347 l 1250 278 l 1319 278 m 1319 486 l 1319 555 l 1250 555 l 1250 486 l 1319 486 m 764 625 l 764 694 l 694 694 l 694 625 l 764 625 m 903 625 l 903 764 l 764 764 l 764 694 l 833 694 l 833 625 l 903 625 m 1250 764 l 1250 833 l 1181 833 l 1181 764 l 1250 764 m 1319 972 l 1319 1042 l 1250 1042 l 1250 972 l 1319 972 m 278 1180 l 278 1250 l 209 1250 l 209 1180 l 278 1180 m 625 1180 l 625 1250 l 556 1250 l 556 1180 l 625 1180 m 764 1180 l 764 1250 l 694 1250 l 694 1180 l 764 1180 m 1042 1180 l 1042 1250 l 903 1250 l 903 1180 l 1042 1180 m 1111 1250 l 1111 1319 l 1042 1319 l 1042 1250 l 1111 1250 m 0 0 l 0 278 l 764 278 l 764 208 l 833 208 l 833 278 l 1111 278 l 1111 416 l 1180 416 l 1180 555 l 1111 555 l 1111 694 l 1042 694 l 1042 555 l 555 555 l 555 625 l 625 625 l 625 694 l 555 694 l 555 833 l 903 833 l 903 764 l 972 764 l 972 833 l 1111 833 l 1111 1111 l 555 1111 l 555 1180 l 486 1180 l 486 1111 l 347 1111 l 347 1180 l 278 1180 l 278 1111 l 0 1111 l 0 1250 l 69 1250 l 69 1319 l 0 1319 l 0 1389 l 278 1389 l 278 1319 l 347 1319 l 347 1389 l 417 1389 l 417 1319 l 486 1319 l 486 1389 l 625 1389 l 625 1250 l 694 1250 l 694 1389 l 764 1389 l 764 1319 l 833 1319 l 833 1250 l 903 1250 l 903 1389 l 972 1389 l 972 1319 l 1042 1319 l 1042 1389 l 1181 1389 l 1181 1250 l 1111 1250 l 1111 1180 l 1181 1180 l 1181 1111 l 1250 1111 l 1250 1250 l 1319 1250 l 1319 1042 l 1389 1042 l 1389 903 l 1250 903 l 1250 833 l 1389 833 l 1389 694 l 1181 694 l 1181 625 l 1319 625 l 1319 555 l 1389 555 l 1389 416 l 1319 416 l 1319 347 l 1389 347 l 1389 139 l 1319 139 l 1319 69 l 1389 69 l 1389 0 l 1111 0 l 1111 69 l 1042 69 l 1042 0 l 555 0 l 555 69 l 486 69 l 486 0 l 0 0 z "},"4":{"ha":1597,"x_min":0,"x_max":1389,"o":"m 1319 139 l 1319 208 l 1250 208 l 1250 139 l 1319 139 m 1250 347 l 1250 416 l 1181 416 l 1181 347 l 1250 347 m 1250 486 l 1250 555 l 1181 555 l 1181 486 l 1250 486 m 903 555 l 903 625 l 972 625 l 972 555 l 903 555 m 1180 555 l 1180 625 l 1111 625 l 1111 555 l 1180 555 m 486 625 l 486 694 l 417 694 l 417 625 l 486 625 m 1319 555 l 1319 694 l 1250 694 l 1250 555 l 1319 555 m 1111 694 l 1111 764 l 1042 764 l 1042 694 l 1111 694 m 278 764 l 278 833 l 139 833 l 139 764 l 278 764 m 1250 764 l 1250 833 l 1181 833 l 1181 764 l 1250 764 m 208 972 l 208 1042 l 139 1042 l 139 972 l 208 972 m 1319 1180 l 1319 1250 l 1389 1250 l 1389 1180 l 1319 1180 m 208 1250 l 208 1319 l 139 1319 l 139 1250 l 208 1250 m 1111 0 l 1111 139 l 1180 139 l 1180 208 l 1111 208 l 1111 555 l 1042 555 l 1042 694 l 903 694 l 903 764 l 833 764 l 833 555 l 694 555 l 694 625 l 764 625 l 764 694 l 694 694 l 694 764 l 625 764 l 625 694 l 556 694 l 556 625 l 625 625 l 625 555 l 555 555 l 555 625 l 486 625 l 486 555 l 0 555 l 0 1389 l 70 1389 l 70 1319 l 139 1319 l 139 1389 l 278 1389 l 278 833 l 486 833 l 486 694 l 555 694 l 555 833 l 764 833 l 764 764 l 833 764 l 833 833 l 1111 833 l 1111 1042 l 1181 1042 l 1181 972 l 1250 972 l 1250 903 l 1389 903 l 1389 833 l 1319 833 l 1319 764 l 1389 764 l 1389 416 l 1319 416 l 1319 347 l 1389 347 l 1389 0 l 1111 0 m 1319 972 l 1319 1042 l 1250 1042 l 1250 1111 l 1111 1111 l 1111 1180 l 1180 1180 l 1180 1250 l 1111 1250 l 1111 1319 l 1180 1319 l 1180 1389 l 1319 1389 l 1319 1319 l 1181 1319 l 1181 1250 l 1250 1250 l 1250 1111 l 1319 1111 l 1319 1042 l 1389 1042 l 1389 972 l 1319 972 z "},"5":{"ha":1597,"x_min":0,"x_max":1389,"o":"m 208 69 l 208 139 l 139 139 l 139 69 l 208 69 m 625 69 l 625 139 l 556 139 l 556 69 l 625 69 m 833 69 l 833 139 l 764 139 l 764 69 l 833 69 m 1042 69 l 1042 139 l 972 139 l 972 69 l 1042 69 m 903 139 l 903 208 l 833 208 l 833 139 l 903 139 m 1250 555 l 1250 625 l 1181 625 l 1181 555 l 1250 555 m 416 625 l 416 694 l 347 694 l 347 625 l 416 625 m 208 694 l 208 764 l 139 764 l 139 694 l 208 694 m 486 694 l 486 764 l 417 764 l 417 694 l 486 694 m 903 625 l 903 694 l 833 694 l 833 764 l 694 764 l 694 694 l 764 694 l 764 625 l 903 625 m 1180 694 l 1180 764 l 1111 764 l 1111 694 l 1180 694 m 208 903 l 208 972 l 139 972 l 139 903 l 208 903 m 139 1111 l 139 1180 l 70 1180 l 70 1111 l 139 1111 m 903 1111 l 903 1180 l 1042 1180 l 1042 1111 l 903 1111 m 278 1250 l 278 1319 l 139 1319 l 139 1250 l 278 1250 m 694 1180 l 694 1250 l 625 1250 l 625 1319 l 486 1319 l 486 1250 l 556 1250 l 556 1180 l 694 1180 m 0 0 l 0 278 l 417 278 l 417 208 l 486 208 l 486 278 l 1111 278 l 1111 555 l 694 555 l 694 694 l 625 694 l 625 555 l 555 555 l 555 694 l 486 694 l 486 555 l 0 555 l 0 1389 l 417 1389 l 417 1319 l 486 1319 l 486 1389 l 694 1389 l 694 1250 l 764 1250 l 764 1389 l 972 1389 l 972 1319 l 1042 1319 l 1042 1250 l 833 1250 l 833 1111 l 416 1111 l 416 1250 l 347 1250 l 347 1111 l 278 1111 l 278 1042 l 209 1042 l 209 972 l 278 972 l 278 833 l 347 833 l 347 764 l 416 764 l 416 833 l 486 833 l 486 764 l 555 764 l 555 833 l 833 833 l 833 764 l 903 764 l 903 833 l 972 833 l 972 625 l 1042 625 l 1042 833 l 1181 833 l 1181 764 l 1250 764 l 1250 625 l 1389 625 l 1389 555 l 1319 555 l 1319 486 l 1389 486 l 1389 416 l 1250 416 l 1250 486 l 1181 486 l 1181 347 l 1389 347 l 1389 278 l 1111 278 l 1111 0 l 416 0 l 416 69 l 347 69 l 347 0 l 0 0 m 1111 1111 l 1111 1180 l 1180 1180 l 1180 1250 l 1111 1250 l 1111 1389 l 1181 1389 l 1181 1250 l 1250 1250 l 1250 1389 l 1319 1389 l 1319 1319 l 1389 1319 l 1389 1250 l 1319 1250 l 1319 1180 l 1389 1180 l 1389 1111 l 1250 1111 l 1250 1180 l 1181 1180 l 1181 1111 l 1111 1111 z "},"6":{"ha":1597,"x_min":0,"x_max":1389,"o":"m 486 69 l 486 139 l 417 139 l 417 69 l 486 69 m 764 69 l 764 139 l 694 139 l 694 69 l 764 69 m 1319 69 l 1319 139 l 1250 139 l 1250 69 l 1319 69 m 278 139 l 278 208 l 209 208 l 209 139 l 278 139 m 972 139 l 972 208 l 833 208 l 833 139 l 972 139 m 1111 139 l 1111 208 l 1042 208 l 1042 139 l 1111 139 m 208 416 l 208 486 l 139 486 l 139 416 l 208 416 m 139 625 l 139 694 l 70 694 l 70 625 l 139 625 m 416 625 l 416 694 l 278 694 l 278 625 l 416 625 m 903 625 l 903 694 l 833 694 l 833 625 l 903 625 m 694 208 l 694 278 l 1111 278 l 1111 347 l 1180 347 l 1180 416 l 1111 416 l 1111 694 l 1042 694 l 1042 555 l 833 555 l 833 625 l 694 625 l 694 555 l 625 555 l 625 694 l 556 694 l 556 625 l 486 625 l 486 555 l 278 555 l 278 416 l 209 416 l 209 347 l 278 347 l 278 278 l 417 278 l 417 208 l 555 208 l 555 278 l 625 278 l 625 208 l 694 208 m 694 694 l 694 764 l 625 764 l 625 694 l 694 694 m 972 694 l 972 764 l 903 764 l 903 694 l 972 694 m 278 764 l 278 833 l 209 833 l 209 764 l 278 764 m 208 833 l 208 903 l 139 903 l 139 833 l 208 833 m 208 972 l 208 1042 l 139 1042 l 139 972 l 208 972 m 1319 1111 l 1319 1180 l 1389 1180 l 1389 1111 l 1319 1111 m 139 1180 l 139 1250 l 70 1250 l 70 1180 l 139 1180 m 278 1111 l 278 1250 l 209 1250 l 209 1111 l 278 1111 m 0 0 l 0 1389 l 70 1389 l 70 1319 l 139 1319 l 139 1389 l 347 1389 l 347 1250 l 486 1250 l 486 1319 l 416 1319 l 416 1389 l 556 1389 l 556 1319 l 625 1319 l 625 1389 l 694 1389 l 694 1319 l 625 1319 l 625 1250 l 764 1250 l 764 1389 l 903 1389 l 903 1250 l 764 1250 l 764 1180 l 903 1180 l 903 1111 l 625 1111 l 625 1250 l 556 1250 l 556 1111 l 486 1111 l 486 1180 l 417 1180 l 417 1111 l 278 1111 l 278 833 l 417 833 l 417 764 l 486 764 l 486 833 l 764 833 l 764 694 l 833 694 l 833 833 l 1181 833 l 1181 625 l 1250 625 l 1250 764 l 1319 764 l 1319 833 l 1389 833 l 1389 764 l 1319 764 l 1319 625 l 1250 625 l 1250 416 l 1319 416 l 1319 555 l 1389 555 l 1389 347 l 1250 347 l 1250 278 l 1319 278 l 1319 139 l 1389 139 l 1389 0 l 972 0 l 972 69 l 903 69 l 903 0 l 0 0 m 972 1111 l 972 1180 l 1042 1180 l 1042 1250 l 972 1250 l 972 1319 l 1042 1319 l 1042 1389 l 1181 1389 l 1181 1319 l 1250 1319 l 1250 1389 l 1319 1389 l 1319 1319 l 1250 1319 l 1250 1180 l 1180 1180 l 1180 1250 l 1111 1250 l 1111 1180 l 1042 1180 l 1042 1111 l 972 1111 z "},"7":{"ha":1597,"x_min":0,"x_max":1389,"o":"m 1319 278 l 1319 347 l 1250 347 l 1250 278 l 1319 278 m 1111 0 l 1111 278 l 1180 278 l 1180 347 l 1111 347 l 1111 416 l 1181 416 l 1181 347 l 1250 347 l 1250 416 l 1389 416 l 1389 278 l 1319 278 l 1319 139 l 1389 139 l 1389 0 l 1111 0 m 1319 972 l 1319 1042 l 1181 1042 l 1181 972 l 1319 972 m 486 1180 l 486 1250 l 417 1250 l 417 1180 l 486 1180 m 694 1180 l 694 1250 l 625 1250 l 625 1180 l 694 1180 m 347 1180 l 347 1250 l 416 1250 l 416 1319 l 209 1319 l 209 1250 l 278 1250 l 278 1180 l 347 1180 m 555 1250 l 555 1319 l 486 1319 l 486 1250 l 555 1250 m 833 1180 l 833 1319 l 764 1319 l 764 1180 l 833 1180 m 972 1250 l 972 1319 l 903 1319 l 903 1250 l 972 1250 m 1111 1250 l 1111 1319 l 1042 1319 l 1042 1250 l 1111 1250 m 1250 1250 l 1250 1319 l 1181 1319 l 1181 1250 l 1250 1250 m 1180 486 l 1180 555 l 1111 555 l 1111 625 l 1180 625 l 1180 694 l 1111 694 l 1111 833 l 1181 833 l 1181 764 l 1250 764 l 1250 833 l 1319 833 l 1319 903 l 1111 903 l 1111 1042 l 1180 1042 l 1180 1111 l 1250 1111 l 1250 1180 l 1180 1180 l 1180 1250 l 1111 1250 l 1111 1111 l 1042 1111 l 1042 1250 l 972 1250 l 972 1111 l 764 1111 l 764 1180 l 694 1180 l 694 1111 l 625 1111 l 625 1180 l 556 1180 l 556 1111 l 416 1111 l 416 1180 l 347 1180 l 347 1111 l 0 1111 l 0 1389 l 139 1389 l 139 1319 l 208 1319 l 208 1389 l 556 1389 l 556 1319 l 694 1319 l 694 1389 l 972 1389 l 972 1319 l 1042 1319 l 1042 1389 l 1111 1389 l 1111 1319 l 1180 1319 l 1180 1389 l 1250 1389 l 1250 1319 l 1319 1319 l 1319 1180 l 1389 1180 l 1389 1111 l 1319 1111 l 1319 1042 l 1389 1042 l 1389 972 l 1319 972 l 1319 903 l 1389 903 l 1389 764 l 1250 764 l 1250 625 l 1319 625 l 1319 694 l 1389 694 l 1389 625 l 1319 625 l 1319 555 l 1389 555 l 1389 486 l 1180 486 z "},"8":{"ha":1597,"x_min":0,"x_max":1389,"o":"m 833 69 l 833 139 l 764 139 l 764 69 l 833 69 m 486 139 l 486 208 l 417 208 l 417 139 l 486 139 m 764 139 l 764 208 l 694 208 l 694 139 l 764 139 m 972 139 l 972 208 l 833 208 l 833 139 l 972 139 m 1111 139 l 1111 208 l 1042 208 l 1042 139 l 1111 139 m 1180 208 l 1180 278 l 1111 278 l 1111 208 l 1180 208 m 1319 278 l 1319 416 l 1250 416 l 1250 278 l 1319 278 m 1250 416 l 1250 486 l 1181 486 l 1181 416 l 1250 416 m 833 208 l 833 278 l 1111 278 l 1111 555 l 764 555 l 764 625 l 625 625 l 625 555 l 278 555 l 278 278 l 347 278 l 347 208 l 416 208 l 416 278 l 764 278 l 764 208 l 833 208 m 1319 555 l 1319 625 l 1181 625 l 1181 555 l 1319 555 m 555 625 l 555 694 l 417 694 l 417 625 l 555 625 m 1042 625 l 1042 694 l 972 694 l 972 625 l 1042 625 m 1180 625 l 1180 694 l 1111 694 l 1111 625 l 1180 625 m 278 694 l 278 764 l 209 764 l 209 694 l 278 694 m 903 694 l 903 764 l 833 764 l 833 694 l 903 694 m 1319 764 l 1319 833 l 1389 833 l 1389 764 l 1319 764 m 1250 1042 l 1250 1111 l 1181 1111 l 1181 1042 l 1250 1042 m 139 1111 l 139 1180 l 70 1180 l 70 1111 l 139 1111 m 486 1180 l 486 1319 l 417 1319 l 417 1180 l 486 1180 m 0 0 l 0 1389 l 209 1389 l 209 1319 l 278 1319 l 278 1389 l 347 1389 l 347 1319 l 416 1319 l 416 1389 l 486 1389 l 486 1319 l 555 1319 l 555 1389 l 625 1389 l 625 1250 l 556 1250 l 556 1180 l 694 1180 l 694 1389 l 764 1389 l 764 1319 l 833 1319 l 833 1389 l 903 1389 l 903 1319 l 833 1319 l 833 1180 l 903 1180 l 903 1250 l 972 1250 l 972 1389 l 1111 1389 l 1111 1250 l 972 1250 l 972 1180 l 1042 1180 l 1042 1111 l 972 1111 l 972 1180 l 903 1180 l 903 1111 l 416 1111 l 416 1180 l 347 1180 l 347 1111 l 278 1111 l 278 833 l 625 833 l 625 764 l 694 764 l 694 833 l 903 833 l 903 764 l 972 764 l 972 833 l 1042 833 l 1042 764 l 1111 764 l 1111 1180 l 1250 1180 l 1250 1111 l 1319 1111 l 1319 1042 l 1389 1042 l 1389 972 l 1181 972 l 1181 833 l 1250 833 l 1250 694 l 1389 694 l 1389 486 l 1319 486 l 1319 416 l 1389 416 l 1389 139 l 1319 139 l 1319 69 l 1389 69 l 1389 0 l 0 0 m 1180 1250 l 1180 1389 l 1250 1389 l 1250 1319 l 1319 1319 l 1319 1250 l 1180 1250 z "},"9":{"ha":1597,"x_min":0,"x_max":1389,"o":"m 1042 69 l 1042 139 l 972 139 l 972 69 l 1042 69 m 764 139 l 764 208 l 694 208 l 694 139 l 764 139 m 1319 139 l 1319 208 l 1250 208 l 1250 139 l 1319 139 m 1250 208 l 1250 278 l 1181 278 l 1181 208 l 1250 208 m 972 625 l 972 694 l 903 694 l 903 625 l 972 625 m 903 694 l 903 764 l 764 764 l 764 694 l 903 694 m 0 0 l 0 278 l 1111 278 l 1111 486 l 1180 486 l 1180 625 l 1319 625 l 1319 694 l 1250 694 l 1250 833 l 1389 833 l 1389 764 l 1319 764 l 1319 694 l 1389 694 l 1389 625 l 1319 625 l 1319 555 l 1389 555 l 1389 416 l 1250 416 l 1250 347 l 1389 347 l 1389 0 l 0 0 m 208 833 l 208 903 l 139 903 l 139 833 l 208 833 m 1319 903 l 1319 1042 l 1389 1042 l 1389 903 l 1319 903 m 278 1180 l 278 1250 l 209 1250 l 209 1180 l 278 1180 m 1111 1180 l 1111 1250 l 972 1250 l 972 1180 l 1111 1180 m 208 1250 l 208 1319 l 139 1319 l 139 1250 l 208 1250 m 486 1180 l 486 1250 l 555 1250 l 555 1319 l 417 1319 l 417 1180 l 486 1180 m 1180 1250 l 1180 1319 l 1111 1319 l 1111 1250 l 1180 1250 m 0 555 l 0 1389 l 209 1389 l 209 1319 l 278 1319 l 278 1389 l 347 1389 l 347 1319 l 416 1319 l 416 1389 l 694 1389 l 694 1319 l 625 1319 l 625 1111 l 555 1111 l 555 1180 l 486 1180 l 486 1111 l 416 1111 l 416 1180 l 347 1180 l 347 1111 l 209 1111 l 209 1042 l 278 1042 l 278 694 l 347 694 l 347 833 l 486 833 l 486 694 l 555 694 l 555 833 l 625 833 l 625 764 l 694 764 l 694 833 l 903 833 l 903 764 l 972 764 l 972 833 l 1111 833 l 1111 903 l 1181 903 l 1181 764 l 1042 764 l 1042 694 l 1111 694 l 1111 625 l 1042 625 l 1042 555 l 764 555 l 764 625 l 694 625 l 694 555 l 625 555 l 625 694 l 556 694 l 556 555 l 0 555 m 1111 972 l 1111 1111 l 903 1111 l 903 1180 l 833 1180 l 833 1111 l 764 1111 l 764 1180 l 694 1180 l 694 1250 l 764 1250 l 764 1180 l 833 1180 l 833 1250 l 903 1250 l 903 1389 l 972 1389 l 972 1319 l 1042 1319 l 1042 1389 l 1181 1389 l 1181 1319 l 1250 1319 l 1250 1389 l 1389 1389 l 1389 1319 l 1319 1319 l 1319 1250 l 1181 1250 l 1181 1180 l 1111 1180 l 1111 1111 l 1250 1111 l 1250 1180 l 1389 1180 l 1389 1111 l 1250 1111 l 1250 972 l 1111 972 z "}," ":{"ha":1491,"x_min":0,"x_max":0,"o":""},"!":{"ha":486,"x_min":0,"x_max":278,"o":"m 208 139 l 208 208 l 139 208 l 139 139 l 208 139 m 0 0 l 0 278 l 209 278 l 209 208 l 278 208 l 278 139 l 209 139 l 209 69 l 278 69 l 278 0 l 0 0 m 139 1042 l 139 1111 l 70 1111 l 70 1042 l 139 1042 m 0 555 l 0 1389 l 70 1389 l 70 1319 l 139 1319 l 139 1389 l 209 1389 l 209 1319 l 139 1319 l 139 1180 l 208 1180 l 208 1250 l 278 1250 l 278 1180 l 209 1180 l 209 1111 l 278 1111 l 278 972 l 208 972 l 208 1042 l 139 1042 l 139 972 l 70 972 l 70 903 l 139 903 l 139 833 l 208 833 l 208 903 l 278 903 l 278 764 l 139 764 l 139 694 l 278 694 l 278 555 l 0 555 z "},"\"":{"ha":1041,"x_min":0,"x_max":833,"o":"m 764 1250 l 764 1319 l 694 1319 l 694 1250 l 764 1250 m 139 1319 l 139 1389 l 70 1389 l 70 1319 l 139 1319 m 694 1319 l 694 1458 l 625 1458 l 625 1319 l 694 1319 m 0 1111 l 0 1597 l 139 1597 l 139 1458 l 209 1458 l 209 1319 l 139 1319 l 139 1250 l 278 1250 l 278 1111 l 0 1111 m 208 1528 l 208 1597 l 278 1597 l 278 1528 l 208 1528 m 555 1111 l 555 1597 l 625 1597 l 625 1528 l 694 1528 l 694 1458 l 833 1458 l 833 1389 l 764 1389 l 764 1319 l 833 1319 l 833 1250 l 764 1250 l 764 1180 l 833 1180 l 833 1111 l 555 1111 m 764 1528 l 764 1597 l 833 1597 l 833 1528 l 764 1528 z "},"#":{"ha":1597,"x_min":0,"x_max":1389,"o":"m 486 139 l 486 208 l 417 208 l 417 139 l 486 139 m 555 347 l 555 416 l 486 416 l 486 347 l 555 347 m 347 416 l 347 486 l 278 486 l 278 416 l 347 416 m 764 347 l 764 486 l 625 486 l 625 416 l 694 416 l 694 347 l 764 347 m 1042 278 l 1042 347 l 1180 347 l 1180 416 l 1250 416 l 1250 486 l 1111 486 l 1111 416 l 1042 416 l 1042 486 l 972 486 l 972 416 l 833 416 l 833 347 l 903 347 l 903 278 l 1042 278 m 416 486 l 416 555 l 347 555 l 347 486 l 416 486 m 486 555 l 486 694 l 347 694 l 347 625 l 417 625 l 417 555 l 486 555 m 1042 625 l 1042 694 l 972 694 l 972 764 l 1111 764 l 1111 625 l 1042 625 m 416 903 l 416 972 l 347 972 l 347 903 l 416 903 m 139 903 l 139 972 l 208 972 l 208 1042 l 70 1042 l 70 903 l 139 903 m 347 972 l 347 1111 l 278 1111 l 278 972 l 347 972 m 1042 1042 l 1042 1180 l 1111 1180 l 1111 1111 l 1181 1111 l 1181 1042 l 1042 1042 m 278 0 l 278 278 l 208 278 l 208 347 l 139 347 l 139 278 l 0 278 l 0 555 l 139 555 l 139 486 l 208 486 l 208 555 l 278 555 l 278 764 l 416 764 l 416 833 l 0 833 l 0 1111 l 278 1111 l 278 1250 l 347 1250 l 347 1111 l 416 1111 l 416 1180 l 486 1180 l 486 1250 l 416 1250 l 416 1319 l 278 1319 l 278 1389 l 417 1389 l 417 1319 l 486 1319 l 486 1389 l 556 1389 l 556 1111 l 625 1111 l 625 1042 l 555 1042 l 555 1111 l 417 1111 l 417 1042 l 486 1042 l 486 903 l 625 903 l 625 972 l 764 972 l 764 1042 l 694 1042 l 694 1111 l 764 1111 l 764 1042 l 833 1042 l 833 1180 l 903 1180 l 903 1319 l 972 1319 l 972 1111 l 903 1111 l 903 1042 l 972 1042 l 972 972 l 1111 972 l 1111 903 l 1180 903 l 1180 972 l 1250 972 l 1250 1042 l 1319 1042 l 1319 1111 l 1389 1111 l 1389 972 l 1250 972 l 1250 833 l 1042 833 l 1042 903 l 903 903 l 903 764 l 833 764 l 833 903 l 903 903 l 903 972 l 764 972 l 764 833 l 694 833 l 694 903 l 625 903 l 625 833 l 486 833 l 486 764 l 556 764 l 556 555 l 833 555 l 833 694 l 903 694 l 903 625 l 972 625 l 972 555 l 1042 555 l 1042 486 l 1111 486 l 1111 555 l 1250 555 l 1250 486 l 1389 486 l 1389 416 l 1319 416 l 1319 347 l 1389 347 l 1389 278 l 1042 278 l 1042 208 l 1111 208 l 1111 139 l 1042 139 l 1042 69 l 1111 69 l 1111 0 l 833 0 l 833 278 l 694 278 l 694 347 l 625 347 l 625 278 l 556 278 l 556 0 l 278 0 m 1042 1319 l 1042 1389 l 1111 1389 l 1111 1319 l 1042 1319 z "},"$":{"ha":1597,"x_min":0,"x_max":1389,"o":"m 764 -139 l 764 -69 l 694 -69 l 694 -139 l 764 -139 m 764 0 l 764 69 l 694 69 l 694 0 l 764 0 m 139 69 l 139 139 l 70 139 l 70 69 l 139 69 m 416 69 l 416 139 l 347 139 l 347 69 l 416 69 m 903 69 l 903 139 l 833 139 l 833 69 l 903 69 m 1042 69 l 1042 139 l 972 139 l 972 69 l 1042 69 m 208 139 l 208 208 l 139 208 l 139 139 l 208 139 m 555 139 l 555 208 l 486 208 l 486 139 l 555 139 m 833 139 l 833 208 l 764 208 l 764 139 l 833 139 m 972 139 l 972 208 l 903 208 l 903 139 l 972 139 m 1250 69 l 1250 139 l 1180 139 l 1180 208 l 1111 208 l 1111 69 l 1250 69 m 1319 416 l 1319 486 l 1181 486 l 1181 416 l 1319 416 m 694 486 l 694 555 l 625 555 l 625 486 l 694 486 m 625 555 l 625 625 l 556 625 l 556 555 l 625 555 m 1180 278 l 1180 347 l 1111 347 l 1111 625 l 1042 625 l 1042 555 l 833 555 l 833 278 l 1180 278 m 1250 555 l 1250 625 l 1181 625 l 1181 555 l 1250 555 m 347 625 l 347 694 l 278 694 l 278 625 l 347 625 m 1042 625 l 1042 694 l 903 694 l 903 625 l 1042 625 m 139 694 l 139 764 l 70 764 l 70 694 l 139 694 m 486 694 l 486 764 l 417 764 l 417 694 l 486 694 m 1180 625 l 1180 764 l 1042 764 l 1042 694 l 1111 694 l 1111 625 l 1180 625 m 694 764 l 694 833 l 625 833 l 625 764 l 694 764 m 208 972 l 208 1042 l 139 1042 l 139 972 l 208 972 m 764 1042 l 764 1111 l 625 1111 l 625 1042 l 764 1042 m 555 764 l 555 1111 l 416 1111 l 416 1180 l 347 1180 l 347 1111 l 278 1111 l 278 764 l 347 764 l 347 833 l 486 833 l 486 764 l 555 764 m 694 1180 l 694 1250 l 556 1250 l 556 1180 l 694 1180 m 139 1250 l 139 1319 l 70 1319 l 70 1250 l 139 1250 m 416 1250 l 416 1319 l 278 1319 l 278 1250 l 416 1250 m 555 1250 l 555 1319 l 486 1319 l 486 1250 l 555 1250 m 694 1319 l 694 1389 l 625 1389 l 625 1319 l 694 1319 m 1042 1111 l 1042 1180 l 1180 1180 l 1180 1389 l 1389 1389 l 1389 1319 l 1250 1319 l 1250 1250 l 1319 1250 l 1319 1180 l 1181 1180 l 1181 1111 l 1042 1111 m 764 1389 l 764 1458 l 694 1458 l 694 1389 l 764 1389 m 555 -278 l 555 -208 l 625 -208 l 625 -139 l 555 -139 l 555 0 l 0 0 l 0 278 l 555 278 l 555 555 l 0 555 l 0 1389 l 555 1389 l 555 1667 l 625 1667 l 625 1597 l 694 1597 l 694 1667 l 833 1667 l 833 1597 l 764 1597 l 764 1528 l 833 1528 l 833 1389 l 764 1389 l 764 1180 l 903 1180 l 903 1319 l 972 1319 l 972 1389 l 1111 1389 l 1111 1319 l 1042 1319 l 1042 1250 l 972 1250 l 972 1111 l 833 1111 l 833 972 l 764 972 l 764 903 l 694 903 l 694 833 l 764 833 l 764 764 l 694 764 l 694 625 l 764 625 l 764 694 l 833 694 l 833 833 l 972 833 l 972 764 l 1042 764 l 1042 833 l 1181 833 l 1181 764 l 1250 764 l 1250 833 l 1389 833 l 1389 764 l 1319 764 l 1319 694 l 1250 694 l 1250 625 l 1389 625 l 1389 278 l 1319 278 l 1319 347 l 1250 347 l 1250 139 l 1389 139 l 1389 0 l 1111 0 l 1111 69 l 1042 69 l 1042 0 l 833 0 l 833 -278 l 555 -278 z "},"%":{"ha":1597,"x_min":0,"x_max":1389,"o":"m 139 69 l 139 139 l 70 139 l 70 69 l 139 69 m 1180 69 l 1180 139 l 1111 139 l 1111 69 l 1180 69 m 208 139 l 208 208 l 139 208 l 139 139 l 208 139 m 1319 139 l 1319 208 l 1250 208 l 1250 139 l 1319 139 m 1042 347 l 1042 416 l 972 416 l 972 347 l 1042 347 m 1250 208 l 1250 278 l 1180 278 l 1180 416 l 1111 416 l 1111 278 l 1042 278 l 1042 208 l 1250 208 m 486 416 l 486 486 l 347 486 l 347 416 l 486 416 m 1319 486 l 1319 555 l 1389 555 l 1389 486 l 1319 486 m 694 625 l 694 694 l 625 694 l 625 625 l 694 625 m 972 972 l 972 1042 l 903 1042 l 903 972 l 972 972 m 416 903 l 416 1042 l 486 1042 l 486 1111 l 347 1111 l 347 903 l 416 903 m 278 1042 l 278 1111 l 208 1111 l 208 1180 l 139 1180 l 139 1042 l 278 1042 m 486 1180 l 486 1250 l 417 1250 l 417 1180 l 486 1180 m 972 833 l 972 903 l 833 903 l 833 1111 l 1111 1111 l 1111 1250 l 1250 1250 l 1250 1180 l 1389 1180 l 1389 1111 l 1111 1111 l 1111 1042 l 1042 1042 l 1042 972 l 1111 972 l 1111 833 l 972 833 m 278 1250 l 278 1319 l 209 1319 l 209 1250 l 278 1250 m 0 0 l 0 278 l 278 278 l 278 555 l 555 555 l 555 833 l 0 833 l 0 1389 l 347 1389 l 347 1319 l 416 1319 l 416 1389 l 486 1389 l 486 1319 l 556 1319 l 556 1180 l 486 1180 l 486 1111 l 556 1111 l 556 972 l 486 972 l 486 903 l 556 903 l 556 833 l 833 833 l 833 555 l 972 555 l 972 486 l 1111 486 l 1111 555 l 1181 555 l 1181 486 l 1250 486 l 1250 347 l 1319 347 l 1319 416 l 1389 416 l 1389 347 l 1319 347 l 1319 278 l 1389 278 l 1389 139 l 1319 139 l 1319 69 l 1389 69 l 1389 0 l 833 0 l 833 555 l 764 555 l 764 625 l 694 625 l 694 555 l 556 555 l 556 416 l 486 416 l 486 347 l 556 347 l 556 278 l 278 278 l 278 0 l 0 0 m 1319 1250 l 1319 1319 l 1111 1319 l 1111 1389 l 1389 1389 l 1389 1250 l 1319 1250 z "},"&":{"ha":1597,"x_min":0,"x_max":1389,"o":"m 208 69 l 208 139 l 139 139 l 139 69 l 208 69 m 764 69 l 764 139 l 694 139 l 694 69 l 764 69 m 903 69 l 903 139 l 833 139 l 833 69 l 903 69 m 1250 69 l 1250 139 l 1111 139 l 1111 69 l 1250 69 m 555 69 l 555 139 l 486 139 l 486 208 l 417 208 l 417 69 l 555 69 m 694 139 l 694 208 l 625 208 l 625 139 l 694 139 m 1111 139 l 1111 208 l 1042 208 l 1042 139 l 1111 139 m 208 208 l 208 278 l 139 278 l 139 208 l 208 208 m 972 139 l 972 278 l 903 278 l 903 139 l 972 139 m 972 347 l 972 486 l 903 486 l 903 347 l 972 347 m 139 486 l 139 555 l 70 555 l 70 486 l 139 486 m 1042 486 l 1042 555 l 972 555 l 972 486 l 1042 486 m 1319 555 l 1319 625 l 1389 625 l 1389 555 l 1319 555 m 416 625 l 416 694 l 347 694 l 347 625 l 416 625 m 764 625 l 764 694 l 694 694 l 694 625 l 764 625 m 555 208 l 555 278 l 903 278 l 903 347 l 833 347 l 833 555 l 972 555 l 972 625 l 903 625 l 903 694 l 833 694 l 833 625 l 764 625 l 764 555 l 625 555 l 625 625 l 556 625 l 556 555 l 209 555 l 209 486 l 278 486 l 278 278 l 486 278 l 486 208 l 555 208 m 1042 625 l 1042 694 l 972 694 l 972 625 l 1042 625 m 278 694 l 278 764 l 209 764 l 209 694 l 278 694 m 139 972 l 139 1042 l 70 1042 l 70 972 l 139 972 m 208 1042 l 208 1111 l 139 1111 l 139 1042 l 208 1042 m 486 1180 l 486 1250 l 417 1250 l 417 1180 l 486 1180 m 208 1180 l 208 1319 l 139 1319 l 139 1180 l 208 1180 m 69 0 l 69 69 l 0 69 l 0 694 l 69 694 l 69 764 l 0 764 l 0 1389 l 417 1389 l 417 1319 l 486 1319 l 486 1389 l 556 1389 l 556 1180 l 486 1180 l 486 1111 l 347 1111 l 347 1250 l 416 1250 l 416 1319 l 278 1319 l 278 903 l 209 903 l 209 833 l 417 833 l 417 764 l 486 764 l 486 833 l 556 833 l 556 764 l 486 764 l 486 694 l 694 694 l 694 833 l 764 833 l 764 764 l 903 764 l 903 694 l 972 694 l 972 764 l 1042 764 l 1042 833 l 903 833 l 903 903 l 833 903 l 833 1042 l 903 1042 l 903 1111 l 972 1111 l 972 1042 l 1042 1042 l 1042 1111 l 1111 1111 l 1111 972 l 972 972 l 972 903 l 1042 903 l 1042 833 l 1111 833 l 1111 694 l 1250 694 l 1250 833 l 1389 833 l 1389 694 l 1250 694 l 1250 555 l 1180 555 l 1180 625 l 1111 625 l 1111 347 l 972 347 l 972 278 l 1250 278 l 1250 208 l 1319 208 l 1319 278 l 1389 278 l 1389 69 l 1250 69 l 1250 0 l 69 0 z "},"'":{"ha":486,"x_min":0,"x_max":278,"o":"m 0 1111 l 0 1597 l 70 1597 l 70 1528 l 208 1528 l 208 1597 l 278 1597 l 278 1528 l 209 1528 l 209 1458 l 278 1458 l 278 1389 l 139 1389 l 139 1319 l 278 1319 l 278 1111 l 0 1111 z "},"(":{"ha":764,"x_min":0,"x_max":556,"o":"m 486 -139 l 486 -69 l 417 -69 l 417 -139 l 486 -139 m 139 69 l 139 139 l 70 139 l 70 69 l 139 69 m 139 347 l 139 416 l 70 416 l 70 347 l 139 347 m 278 -278 l 278 0 l 0 0 l 0 486 l 69 486 l 69 555 l 0 555 l 0 764 l 139 764 l 139 694 l 70 694 l 70 625 l 209 625 l 209 555 l 278 555 l 278 486 l 209 486 l 209 347 l 278 347 l 278 278 l 208 278 l 208 347 l 139 347 l 139 208 l 278 208 l 278 0 l 347 0 l 347 -69 l 416 -69 l 416 0 l 556 0 l 556 -139 l 486 -139 l 486 -208 l 556 -208 l 556 -278 l 486 -278 l 486 -208 l 417 -208 l 417 -278 l 278 -278 m 208 694 l 208 833 l 278 833 l 278 694 l 208 694 m 0 833 l 0 1250 l 69 1250 l 69 1319 l 0 1319 l 0 1389 l 70 1389 l 70 1319 l 278 1319 l 278 1250 l 209 1250 l 209 1180 l 70 1180 l 70 1042 l 139 1042 l 139 1111 l 209 1111 l 209 1042 l 278 1042 l 278 972 l 139 972 l 139 833 l 0 833 m 486 1389 l 486 1528 l 556 1528 l 556 1389 l 486 1389 m 278 1389 l 278 1528 l 347 1528 l 347 1597 l 278 1597 l 278 1667 l 347 1667 l 347 1597 l 416 1597 l 416 1667 l 556 1667 l 556 1597 l 417 1597 l 417 1389 l 278 1389 z "},")":{"ha":764,"x_min":0,"x_max":556,"o":"m 208 -208 l 208 -139 l 139 -139 l 139 -208 l 208 -208 m 416 347 l 416 416 l 347 416 l 347 347 l 416 347 m 486 486 l 486 555 l 417 555 l 417 486 l 486 486 m 486 625 l 486 694 l 417 694 l 417 625 l 486 625 m 0 -278 l 0 -69 l 69 -69 l 69 0 l 278 0 l 278 139 l 347 139 l 347 208 l 278 208 l 278 486 l 347 486 l 347 555 l 278 555 l 278 625 l 347 625 l 347 694 l 278 694 l 278 972 l 416 972 l 416 1042 l 486 1042 l 486 972 l 556 972 l 556 833 l 486 833 l 486 903 l 417 903 l 417 764 l 556 764 l 556 416 l 486 416 l 486 347 l 556 347 l 556 278 l 417 278 l 417 208 l 556 208 l 556 0 l 278 0 l 278 -69 l 209 -69 l 209 -139 l 278 -139 l 278 -278 l 0 -278 m 278 1042 l 278 1180 l 416 1180 l 416 1319 l 347 1319 l 347 1250 l 278 1250 l 278 1389 l 208 1389 l 208 1458 l 139 1458 l 139 1389 l 0 1389 l 0 1528 l 139 1528 l 139 1597 l 0 1597 l 0 1667 l 139 1667 l 139 1597 l 208 1597 l 208 1667 l 278 1667 l 278 1528 l 209 1528 l 209 1458 l 278 1458 l 278 1389 l 417 1389 l 417 1319 l 486 1319 l 486 1389 l 556 1389 l 556 1319 l 486 1319 l 486 1250 l 556 1250 l 556 1111 l 486 1111 l 486 1180 l 417 1180 l 417 1111 l 347 1111 l 347 1042 l 278 1042 z "},"*":{"ha":1597,"x_min":0,"x_max":1389,"o":"m 694 69 l 694 139 l 625 139 l 625 69 l 694 69 m 1250 69 l 1250 139 l 1181 139 l 1181 69 l 1250 69 m 208 139 l 208 208 l 139 208 l 139 139 l 208 139 m 416 347 l 416 416 l 347 416 l 347 347 l 416 347 m 903 416 l 903 486 l 833 486 l 833 416 l 903 416 m 764 486 l 764 555 l 694 555 l 694 486 l 764 486 m 555 486 l 555 625 l 486 625 l 486 486 l 555 486 m 972 486 l 972 555 l 1042 555 l 1042 625 l 903 625 l 903 486 l 972 486 m 833 625 l 833 694 l 764 694 l 764 625 l 833 625 m 1180 625 l 1180 694 l 1111 694 l 1111 625 l 1180 625 m 347 625 l 347 764 l 278 764 l 278 625 l 347 625 m 625 625 l 625 694 l 764 694 l 764 833 l 694 833 l 694 764 l 556 764 l 556 625 l 625 625 m 903 764 l 903 833 l 833 833 l 833 764 l 903 764 m 1111 694 l 1111 833 l 1042 833 l 1042 764 l 972 764 l 972 694 l 1111 694 m 486 903 l 486 972 l 417 972 l 417 903 l 486 903 m 625 833 l 625 972 l 694 972 l 694 1042 l 556 1042 l 556 833 l 625 833 m 903 972 l 903 1111 l 972 1111 l 972 972 l 903 972 m 139 1250 l 139 1319 l 70 1319 l 70 1250 l 139 1250 m 0 0 l 0 278 l 278 278 l 278 555 l 0 555 l 0 833 l 278 833 l 278 972 l 347 972 l 347 1042 l 278 1042 l 278 1111 l 0 1111 l 0 1389 l 278 1389 l 278 1319 l 209 1319 l 209 1250 l 139 1250 l 139 1180 l 278 1180 l 278 1111 l 347 1111 l 347 1042 l 416 1042 l 416 1111 l 555 1111 l 555 1389 l 764 1389 l 764 1319 l 833 1319 l 833 1250 l 764 1250 l 764 1319 l 694 1319 l 694 1250 l 625 1250 l 625 1111 l 764 1111 l 764 1180 l 833 1180 l 833 1042 l 764 1042 l 764 972 l 833 972 l 833 903 l 1042 903 l 1042 1111 l 1111 1111 l 1111 1389 l 1181 1389 l 1181 1319 l 1250 1319 l 1250 1389 l 1319 1389 l 1319 1319 l 1389 1319 l 1389 1250 l 1181 1250 l 1181 1180 l 1389 1180 l 1389 1111 l 1111 1111 l 1111 833 l 1181 833 l 1181 764 l 1319 764 l 1319 833 l 1389 833 l 1389 764 l 1319 764 l 1319 694 l 1389 694 l 1389 625 l 1319 625 l 1319 555 l 1111 555 l 1111 416 l 1042 416 l 1042 347 l 1111 347 l 1111 278 l 1319 278 l 1319 208 l 1389 208 l 1389 0 l 1111 0 l 1111 278 l 833 278 l 833 208 l 764 208 l 764 139 l 833 139 l 833 0 l 555 0 l 555 278 l 278 278 l 278 0 l 0 0 z "},"+":{"ha":1597,"x_min":0,"x_max":1389,"o":"m 694 139 l 694 208 l 625 208 l 625 139 l 694 139 m 764 278 l 764 347 l 694 347 l 694 278 l 764 278 m 694 555 l 694 625 l 625 625 l 625 555 l 694 555 m 1319 625 l 1319 694 l 1181 694 l 1181 625 l 1319 625 m 139 694 l 139 764 l 70 764 l 70 694 l 139 694 m 764 694 l 764 764 l 486 764 l 486 694 l 764 694 m 1042 625 l 1042 764 l 972 764 l 972 625 l 1042 625 m 903 555 l 903 764 l 972 764 l 972 833 l 1111 833 l 1111 764 l 1180 764 l 1180 833 l 1250 833 l 1250 764 l 1319 764 l 1319 833 l 1389 833 l 1389 625 l 1319 625 l 1319 555 l 1111 555 l 1111 625 l 1042 625 l 1042 555 l 903 555 m 694 833 l 694 903 l 625 903 l 625 833 l 694 833 m 764 1250 l 764 1319 l 694 1319 l 694 1250 l 764 1250 m 555 0 l 555 416 l 625 416 l 625 486 l 555 486 l 555 555 l 347 555 l 347 694 l 278 694 l 278 555 l 0 555 l 0 833 l 139 833 l 139 764 l 208 764 l 208 833 l 555 833 l 555 972 l 625 972 l 625 1042 l 555 1042 l 555 1319 l 625 1319 l 625 1389 l 833 1389 l 833 1180 l 694 1180 l 694 1250 l 625 1250 l 625 1042 l 764 1042 l 764 1111 l 833 1111 l 833 1042 l 764 1042 l 764 903 l 833 903 l 833 416 l 764 416 l 764 347 l 833 347 l 833 0 l 555 0 z "},",":{"ha":486,"x_min":0,"x_max":278,"o":"m 139 0 l 139 69 l 70 69 l 70 0 l 139 0 m 0 -278 l 0 139 l 69 139 l 69 208 l 0 208 l 0 278 l 209 278 l 209 208 l 278 208 l 278 139 l 208 139 l 208 208 l 139 208 l 139 69 l 209 69 l 209 0 l 278 0 l 278 -69 l 139 -69 l 139 -139 l 278 -139 l 278 -278 l 0 -278 z "},"-":{"ha":1319,"x_min":0,"x_max":1111,"o":"m 278 625 l 278 694 l 209 694 l 209 625 l 278 625 m 903 625 l 903 694 l 833 694 l 833 764 l 764 764 l 764 625 l 903 625 m 0 555 l 0 833 l 347 833 l 347 764 l 416 764 l 416 833 l 556 833 l 556 625 l 694 625 l 694 764 l 625 764 l 625 833 l 833 833 l 833 764 l 903 764 l 903 833 l 972 833 l 972 694 l 1042 694 l 1042 833 l 1111 833 l 1111 694 l 1042 694 l 1042 625 l 1111 625 l 1111 555 l 972 555 l 972 625 l 903 625 l 903 555 l 486 555 l 486 694 l 417 694 l 417 555 l 0 555 z "},".":{"ha":486,"x_min":0,"x_max":278,"o":"m 0 0 l 0 139 l 69 139 l 69 208 l 0 208 l 0 278 l 139 278 l 139 139 l 278 139 l 278 0 l 0 0 m 208 208 l 208 278 l 278 278 l 278 208 l 208 208 z "},"/":{"ha":1597,"x_min":0,"x_max":1389,"o":"m 208 69 l 208 139 l 139 139 l 139 69 l 208 69 m 416 347 l 416 416 l 347 416 l 347 347 l 416 347 m 764 694 l 764 764 l 694 764 l 694 694 l 764 694 m 833 1042 l 833 1111 l 903 1111 l 903 1042 l 833 1042 m 69 0 l 69 69 l 0 69 l 0 278 l 70 278 l 70 208 l 139 208 l 139 278 l 278 278 l 278 555 l 347 555 l 347 486 l 486 486 l 486 555 l 555 555 l 555 694 l 625 694 l 625 764 l 555 764 l 555 833 l 833 833 l 833 972 l 903 972 l 903 903 l 972 903 l 972 1111 l 1111 1111 l 1111 1180 l 1180 1180 l 1180 1250 l 1111 1250 l 1111 1389 l 1181 1389 l 1181 1319 l 1250 1319 l 1250 1389 l 1319 1389 l 1319 1319 l 1389 1319 l 1389 1250 l 1319 1250 l 1319 1319 l 1250 1319 l 1250 1180 l 1389 1180 l 1389 1111 l 1111 1111 l 1111 972 l 1042 972 l 1042 903 l 1111 903 l 1111 833 l 833 833 l 833 555 l 764 555 l 764 625 l 694 625 l 694 555 l 556 555 l 556 278 l 278 278 l 278 208 l 209 208 l 209 139 l 278 139 l 278 0 l 69 0 z "},":":{"ha":486,"x_min":0,"x_max":278,"o":"m 0 0 l 0 278 l 70 278 l 70 139 l 139 139 l 139 69 l 208 69 l 208 208 l 139 208 l 139 278 l 278 278 l 278 0 l 0 0 m 0 833 l 0 972 l 69 972 l 69 1042 l 0 1042 l 0 1111 l 139 1111 l 139 972 l 208 972 l 208 1111 l 278 1111 l 278 833 l 208 833 l 208 903 l 139 903 l 139 833 l 0 833 z "},";":{"ha":486,"x_min":0,"x_max":278,"o":"m 208 -208 l 208 -139 l 139 -139 l 139 -208 l 208 -208 m 0 -278 l 0 278 l 70 278 l 70 208 l 139 208 l 139 278 l 278 278 l 278 208 l 139 208 l 139 139 l 70 139 l 70 69 l 139 69 l 139 -69 l 208 -69 l 208 69 l 278 69 l 278 -278 l 0 -278 m 0 833 l 0 1111 l 70 1111 l 70 1042 l 139 1042 l 139 1111 l 278 1111 l 278 972 l 139 972 l 139 903 l 278 903 l 278 833 l 0 833 z "},"<":{"ha":1041,"x_min":0,"x_max":833,"o":"m 764 139 l 764 208 l 625 208 l 625 139 l 764 139 m 486 416 l 486 486 l 417 486 l 417 416 l 486 416 m 208 694 l 208 764 l 139 764 l 139 694 l 208 694 m 486 972 l 486 1042 l 347 1042 l 347 972 l 486 972 m 555 0 l 555 278 l 486 278 l 486 347 l 417 347 l 417 278 l 278 278 l 278 416 l 347 416 l 347 486 l 278 486 l 278 555 l 208 555 l 208 625 l 70 625 l 70 555 l 0 555 l 0 694 l 69 694 l 69 764 l 0 764 l 0 833 l 278 833 l 278 1111 l 555 1111 l 555 1389 l 625 1389 l 625 1319 l 694 1319 l 694 1389 l 833 1389 l 833 1319 l 694 1319 l 694 1180 l 764 1180 l 764 1250 l 833 1250 l 833 1111 l 694 1111 l 694 1180 l 625 1180 l 625 1111 l 556 1111 l 556 972 l 486 972 l 486 903 l 556 903 l 556 833 l 416 833 l 416 903 l 347 903 l 347 833 l 278 833 l 278 555 l 556 555 l 556 416 l 486 416 l 486 347 l 556 347 l 556 278 l 833 278 l 833 0 l 764 0 l 764 69 l 694 69 l 694 0 l 555 0 z "},"=":{"ha":1319,"x_min":0,"x_max":1111,"o":"m 347 347 l 347 416 l 209 416 l 209 347 l 347 347 m 625 347 l 625 486 l 556 486 l 556 347 l 625 347 m 833 347 l 833 416 l 764 416 l 764 486 l 694 486 l 694 347 l 833 347 m 1042 416 l 1042 486 l 903 486 l 903 416 l 1042 416 m 0 278 l 0 555 l 70 555 l 70 486 l 139 486 l 139 555 l 347 555 l 347 416 l 486 416 l 486 486 l 416 486 l 416 555 l 486 555 l 486 486 l 555 486 l 555 555 l 833 555 l 833 486 l 903 486 l 903 555 l 1111 555 l 1111 278 l 1042 278 l 1042 347 l 972 347 l 972 278 l 486 278 l 486 347 l 417 347 l 417 278 l 0 278 m 833 903 l 833 972 l 694 972 l 694 903 l 833 903 m 139 972 l 139 1042 l 70 1042 l 70 972 l 139 972 m 347 903 l 347 1042 l 278 1042 l 278 903 l 347 903 m 0 833 l 0 1111 l 209 1111 l 209 1042 l 278 1042 l 278 1111 l 417 1111 l 417 972 l 486 972 l 486 1111 l 556 1111 l 556 972 l 625 972 l 625 1042 l 764 1042 l 764 1111 l 972 1111 l 972 1042 l 1042 1042 l 1042 1111 l 1111 1111 l 1111 972 l 972 972 l 972 1042 l 903 1042 l 903 903 l 1111 903 l 1111 833 l 625 833 l 625 903 l 556 903 l 556 833 l 416 833 l 416 903 l 347 903 l 347 833 l 0 833 z "},">":{"ha":1041,"x_min":0,"x_max":833,"o":"m 208 69 l 208 208 l 139 208 l 139 69 l 208 69 m 416 416 l 416 486 l 347 486 l 347 416 l 416 416 m 0 0 l 0 278 l 278 278 l 278 555 l 417 555 l 417 486 l 556 486 l 556 278 l 278 278 l 278 0 l 0 0 m 555 555 l 555 833 l 833 833 l 833 764 l 694 764 l 694 694 l 833 694 l 833 555 l 764 555 l 764 625 l 694 625 l 694 555 l 555 555 m 416 903 l 416 972 l 347 972 l 347 903 l 416 903 m 139 1250 l 139 1319 l 70 1319 l 70 1250 l 139 1250 m 278 833 l 278 1111 l 0 1111 l 0 1389 l 139 1389 l 139 1319 l 278 1319 l 278 1250 l 139 1250 l 139 1180 l 278 1180 l 278 1111 l 417 1111 l 417 972 l 486 972 l 486 1111 l 556 1111 l 556 903 l 486 903 l 486 833 l 278 833 z "},"?":{"ha":1597,"x_min":0,"x_max":1389,"o":"m 555 0 l 555 278 l 694 278 l 694 208 l 764 208 l 764 278 l 833 278 l 833 208 l 764 208 l 764 139 l 833 139 l 833 0 l 555 0 m 903 694 l 903 764 l 833 764 l 833 694 l 903 694 m 1042 694 l 1042 764 l 972 764 l 972 694 l 1042 694 m 1180 625 l 1180 764 l 1111 764 l 1111 625 l 1180 625 m 1250 833 l 1250 972 l 1181 972 l 1181 833 l 1250 833 m 416 1180 l 416 1250 l 347 1250 l 347 1180 l 416 1180 m 555 1180 l 555 1250 l 486 1250 l 486 1180 l 555 1180 m 903 1180 l 903 1250 l 833 1250 l 833 1180 l 903 1180 m 139 1250 l 139 1319 l 70 1319 l 70 1250 l 139 1250 m 555 555 l 555 833 l 903 833 l 903 764 l 972 764 l 972 833 l 1111 833 l 1111 1319 l 1042 1319 l 1042 1250 l 972 1250 l 972 1180 l 1042 1180 l 1042 1111 l 833 1111 l 833 1180 l 764 1180 l 764 1111 l 0 1111 l 0 1389 l 417 1389 l 417 1319 l 486 1319 l 486 1389 l 625 1389 l 625 1250 l 833 1250 l 833 1319 l 764 1319 l 764 1389 l 1181 1389 l 1181 1319 l 1319 1319 l 1319 1250 l 1389 1250 l 1389 1180 l 1181 1180 l 1181 1042 l 1250 1042 l 1250 1111 l 1319 1111 l 1319 1042 l 1250 1042 l 1250 972 l 1319 972 l 1319 903 l 1389 903 l 1389 833 l 1319 833 l 1319 764 l 1250 764 l 1250 694 l 1389 694 l 1389 555 l 1319 555 l 1319 625 l 1250 625 l 1250 555 l 903 555 l 903 625 l 833 625 l 833 555 l 555 555 z "},"@":{"ha":2153,"x_min":0,"x_max":1945,"o":"m 1319 -208 l 1319 -139 l 1181 -139 l 1181 -208 l 1319 -208 m 1805 -208 l 1805 -139 l 1736 -139 l 1736 -208 l 1805 -208 m 903 -139 l 903 -69 l 764 -69 l 764 -139 l 903 -139 m 1736 -139 l 1736 -69 l 1667 -69 l 1667 -139 l 1736 -139 m 1528 347 l 1528 416 l 1458 416 l 1458 347 l 1528 347 m 1458 416 l 1458 486 l 1319 486 l 1319 416 l 1458 416 m 1667 416 l 1667 486 l 1528 486 l 1528 416 l 1667 416 m 1875 416 l 1875 486 l 1806 486 l 1806 416 l 1875 416 m 139 486 l 139 555 l 70 555 l 70 486 l 139 486 m 764 486 l 764 555 l 694 555 l 694 486 l 764 486 m 1180 416 l 1180 555 l 1111 555 l 1111 416 l 1180 416 m 1805 486 l 1805 555 l 1736 555 l 1736 486 l 1805 486 m 208 625 l 208 694 l 139 694 l 139 625 l 208 625 m 764 694 l 764 764 l 694 764 l 694 694 l 764 694 m 1250 764 l 1250 833 l 1181 833 l 1181 764 l 1250 764 m 1042 486 l 1042 555 l 1111 555 l 1111 625 l 1180 625 l 1180 694 l 1111 694 l 1111 833 l 1042 833 l 1042 903 l 972 903 l 972 833 l 833 833 l 833 555 l 972 555 l 972 486 l 1042 486 m 1875 833 l 1875 903 l 1945 903 l 1945 833 l 1875 833 m 139 972 l 139 1042 l 70 1042 l 70 972 l 139 972 m 903 903 l 903 1042 l 833 1042 l 833 903 l 903 903 m 1180 972 l 1180 1042 l 1111 1042 l 1111 972 l 1180 972 m 555 278 l 555 1111 l 903 1111 l 903 1042 l 972 1042 l 972 1111 l 1181 1111 l 1181 1042 l 1319 1042 l 1319 1111 l 1389 1111 l 1389 1042 l 1319 1042 l 1319 972 l 1250 972 l 1250 833 l 1389 833 l 1389 764 l 1319 764 l 1319 694 l 1389 694 l 1389 625 l 1319 625 l 1319 694 l 1250 694 l 1250 555 l 1667 555 l 1667 625 l 1736 625 l 1736 694 l 1667 694 l 1667 903 l 1806 903 l 1806 764 l 1736 764 l 1736 694 l 1806 694 l 1806 555 l 1875 555 l 1875 625 l 1945 625 l 1945 278 l 1111 278 l 1111 347 l 1042 347 l 1042 278 l 555 278 m 1667 972 l 1667 1180 l 1736 1180 l 1736 1042 l 1805 1042 l 1805 1111 l 1875 1111 l 1875 1042 l 1806 1042 l 1806 972 l 1667 972 m 1667 1250 l 1667 1319 l 1945 1319 l 1945 1250 l 1667 1250 m 1319 1389 l 1319 1458 l 1389 1458 l 1389 1389 l 1319 1389 m 555 1458 l 555 1528 l 486 1528 l 486 1597 l 417 1597 l 417 1528 l 347 1528 l 347 1458 l 555 1458 m 625 1528 l 625 1597 l 556 1597 l 556 1528 l 625 1528 m 903 1458 l 903 1597 l 833 1597 l 833 1528 l 694 1528 l 694 1458 l 903 1458 m 1180 1458 l 1180 1597 l 1042 1597 l 1042 1528 l 1111 1528 l 1111 1458 l 1180 1458 m 278 -278 l 278 0 l 0 0 l 0 1389 l 278 1389 l 278 1667 l 694 1667 l 694 1597 l 764 1597 l 764 1667 l 1250 1667 l 1250 1597 l 1319 1597 l 1319 1667 l 1389 1667 l 1389 1528 l 1250 1528 l 1250 1458 l 1181 1458 l 1181 1389 l 1042 1389 l 1042 1458 l 903 1458 l 903 1389 l 278 1389 l 278 0 l 1458 0 l 1458 -69 l 1528 -69 l 1528 0 l 1875 0 l 1875 -69 l 1945 -69 l 1945 -278 l 1111 -278 l 1111 -208 l 1042 -208 l 1042 -278 l 278 -278 m 1458 1389 l 1458 1458 l 1667 1458 l 1667 1597 l 1597 1597 l 1597 1528 l 1528 1528 l 1528 1667 l 1667 1667 l 1667 1597 l 1736 1597 l 1736 1667 l 1806 1667 l 1806 1597 l 1736 1597 l 1736 1528 l 1806 1528 l 1806 1458 l 1945 1458 l 1945 1389 l 1736 1389 l 1736 1458 l 1667 1458 l 1667 1389 l 1458 1389 m 1875 1528 l 1875 1667 l 1945 1667 l 1945 1528 l 1875 1528 z "},"A":{"ha":1597,"x_min":0,"x_max":1389,"o":"m 1319 139 l 1319 208 l 1250 208 l 1250 139 l 1319 139 m 208 347 l 208 416 l 139 416 l 139 347 l 208 347 m 1319 486 l 1319 555 l 1250 555 l 1250 486 l 1319 486 m 139 555 l 139 625 l 70 625 l 70 555 l 139 555 m 1180 555 l 1180 625 l 1111 625 l 1111 555 l 1180 555 m 347 625 l 347 694 l 278 694 l 278 625 l 347 625 m 764 625 l 764 694 l 694 694 l 694 625 l 764 625 m 972 625 l 972 694 l 903 694 l 903 625 l 972 625 m 1319 694 l 1319 764 l 1111 764 l 1111 694 l 1319 694 m 208 764 l 208 833 l 139 833 l 139 764 l 208 764 m 139 833 l 139 903 l 70 903 l 70 833 l 139 833 m 208 1042 l 208 1111 l 139 1111 l 139 1042 l 208 1042 m 278 1111 l 278 1180 l 209 1180 l 209 1111 l 278 1111 m 139 1180 l 139 1250 l 70 1250 l 70 1180 l 139 1180 m 1111 1180 l 1111 1250 l 1042 1250 l 1042 1180 l 1111 1180 m 1250 1111 l 1250 1180 l 1319 1180 l 1319 1250 l 1181 1250 l 1181 1111 l 1250 1111 m 278 1250 l 278 1319 l 209 1319 l 209 1250 l 278 1250 m 0 0 l 0 1042 l 69 1042 l 69 1111 l 0 1111 l 0 1389 l 139 1389 l 139 1319 l 208 1319 l 208 1389 l 347 1389 l 347 1250 l 416 1250 l 416 1389 l 556 1389 l 556 1250 l 625 1250 l 625 1389 l 764 1389 l 764 1250 l 833 1250 l 833 1389 l 903 1389 l 903 1319 l 972 1319 l 972 1250 l 1042 1250 l 1042 1389 l 1111 1389 l 1111 1250 l 1180 1250 l 1180 1319 l 1319 1319 l 1319 1250 l 1389 1250 l 1389 1180 l 1319 1180 l 1319 1111 l 1389 1111 l 1389 903 l 1250 903 l 1250 972 l 1319 972 l 1319 1111 l 1250 1111 l 1250 1042 l 1111 1042 l 1111 1111 l 972 1111 l 972 1250 l 903 1250 l 903 1111 l 833 1111 l 833 1180 l 764 1180 l 764 1111 l 694 1111 l 694 1180 l 764 1180 l 764 1250 l 625 1250 l 625 1111 l 486 1111 l 486 1180 l 555 1180 l 555 1250 l 417 1250 l 417 1111 l 278 1111 l 278 1042 l 209 1042 l 209 972 l 278 972 l 278 833 l 347 833 l 347 764 l 416 764 l 416 833 l 486 833 l 486 694 l 555 694 l 555 833 l 764 833 l 764 764 l 833 764 l 833 833 l 972 833 l 972 764 l 1042 764 l 1042 833 l 1111 833 l 1111 972 l 1181 972 l 1181 833 l 1319 833 l 1319 764 l 1389 764 l 1389 625 l 1319 625 l 1319 555 l 1389 555 l 1389 416 l 1319 416 l 1319 278 l 1389 278 l 1389 0 l 1111 0 l 1111 347 l 1180 347 l 1180 416 l 1111 416 l 1111 555 l 833 555 l 833 625 l 764 625 l 764 555 l 625 555 l 625 625 l 556 625 l 556 555 l 278 555 l 278 0 l 0 0 z "},"B":{"ha":1597,"x_min":0,"x_max":1389,"o":"m 764 139 l 764 208 l 694 208 l 694 139 l 764 139 m 1319 347 l 1319 555 l 1250 555 l 1250 486 l 1181 486 l 1181 416 l 1250 416 l 1250 347 l 1319 347 m 625 625 l 625 694 l 556 694 l 556 625 l 625 625 m 764 625 l 764 694 l 694 694 l 694 625 l 764 625 m 1111 278 l 1111 555 l 1042 555 l 1042 694 l 903 694 l 903 625 l 972 625 l 972 555 l 416 555 l 416 625 l 347 625 l 347 555 l 278 555 l 278 278 l 1111 278 m 1250 625 l 1250 694 l 1111 694 l 1111 625 l 1250 625 m 903 694 l 903 764 l 833 764 l 833 694 l 903 694 m 1250 764 l 1250 833 l 1181 833 l 1181 764 l 1250 764 m 208 972 l 208 1042 l 139 1042 l 139 972 l 208 972 m 1250 972 l 1250 1042 l 1181 1042 l 1181 972 l 1250 972 m 278 1111 l 278 1180 l 209 1180 l 209 1111 l 278 1111 m 416 1180 l 416 1250 l 347 1250 l 347 1180 l 416 1180 m 1042 764 l 1042 833 l 1111 833 l 1111 903 l 1180 903 l 1180 972 l 1111 972 l 1111 1111 l 972 1111 l 972 1180 l 903 1180 l 903 1111 l 694 1111 l 694 1250 l 625 1250 l 625 1111 l 278 1111 l 278 833 l 347 833 l 347 764 l 416 764 l 416 833 l 556 833 l 556 764 l 694 764 l 694 833 l 903 833 l 903 764 l 1042 764 m 139 1250 l 139 1319 l 70 1319 l 70 1250 l 139 1250 m 278 1250 l 278 1319 l 209 1319 l 209 1250 l 278 1250 m 625 1250 l 625 1319 l 486 1319 l 486 1250 l 625 1250 m 0 0 l 0 1111 l 69 1111 l 69 1180 l 0 1180 l 0 1389 l 347 1389 l 347 1319 l 416 1319 l 416 1389 l 694 1389 l 694 1319 l 764 1319 l 764 1389 l 833 1389 l 833 1250 l 764 1250 l 764 1180 l 903 1180 l 903 1250 l 972 1250 l 972 1319 l 903 1319 l 903 1389 l 972 1389 l 972 1319 l 1111 1319 l 1111 1250 l 1042 1250 l 1042 1180 l 1111 1180 l 1111 1111 l 1250 1111 l 1250 1042 l 1319 1042 l 1319 1111 l 1389 1111 l 1389 972 l 1250 972 l 1250 833 l 1319 833 l 1319 903 l 1389 903 l 1389 833 l 1319 833 l 1319 694 l 1389 694 l 1389 625 l 1319 625 l 1319 555 l 1389 555 l 1389 278 l 1111 278 l 1111 208 l 1042 208 l 1042 139 l 1111 139 l 1111 0 l 0 0 z "},"C":{"ha":1597,"x_min":0,"x_max":1389,"o":"m 764 69 l 764 139 l 694 139 l 694 69 l 764 69 m 903 69 l 903 139 l 833 139 l 833 69 l 903 69 m 1042 69 l 1042 139 l 972 139 l 972 69 l 1042 69 m 833 139 l 833 208 l 764 208 l 764 139 l 833 139 m 1250 139 l 1250 208 l 1181 208 l 1181 139 l 1250 139 m 208 625 l 208 694 l 139 694 l 139 625 l 208 625 m 139 833 l 139 903 l 70 903 l 70 833 l 139 833 m 208 972 l 208 1042 l 139 1042 l 139 972 l 208 972 m 139 1042 l 139 1111 l 70 1111 l 70 1042 l 139 1042 m 903 1111 l 903 1180 l 972 1180 l 972 1111 l 903 1111 m 278 1180 l 278 1250 l 209 1250 l 209 1180 l 278 1180 m 764 1180 l 764 1250 l 694 1250 l 694 1180 l 764 1180 m 625 1180 l 625 1250 l 555 1250 l 555 1319 l 486 1319 l 486 1180 l 625 1180 m 1042 1111 l 1042 1250 l 1111 1250 l 1111 1180 l 1180 1180 l 1180 1250 l 1250 1250 l 1250 1319 l 1389 1319 l 1389 1250 l 1250 1250 l 1250 1180 l 1181 1180 l 1181 1111 l 1042 1111 m 0 0 l 0 972 l 69 972 l 69 1042 l 0 1042 l 0 1250 l 69 1250 l 69 1319 l 0 1319 l 0 1389 l 278 1389 l 278 1319 l 347 1319 l 347 1389 l 625 1389 l 625 1250 l 694 1250 l 694 1389 l 764 1389 l 764 1250 l 833 1250 l 833 1180 l 764 1180 l 764 1111 l 694 1111 l 694 1180 l 625 1180 l 625 1111 l 347 1111 l 347 1180 l 278 1180 l 278 972 l 209 972 l 209 903 l 278 903 l 278 833 l 209 833 l 209 764 l 278 764 l 278 278 l 486 278 l 486 208 l 555 208 l 555 278 l 903 278 l 903 139 l 972 139 l 972 278 l 1111 278 l 1111 208 l 1180 208 l 1180 278 l 1250 278 l 1250 208 l 1319 208 l 1319 139 l 1250 139 l 1250 69 l 1389 69 l 1389 0 l 1250 0 l 1250 69 l 1181 69 l 1181 0 l 0 0 m 903 1250 l 903 1319 l 833 1319 l 833 1389 l 972 1389 l 972 1250 l 903 1250 m 1111 1319 l 1111 1389 l 1181 1389 l 1181 1319 l 1111 1319 z "},"D":{"ha":1597,"x_min":0,"x_max":1389,"o":"m 972 69 l 972 139 l 903 139 l 903 69 l 972 69 m 208 139 l 208 208 l 139 208 l 139 139 l 208 139 m 555 139 l 555 208 l 486 208 l 486 139 l 555 139 m 1042 139 l 1042 208 l 972 208 l 972 139 l 1042 139 m 278 208 l 278 278 l 209 278 l 209 208 l 278 208 m 139 347 l 139 416 l 70 416 l 70 347 l 139 347 m 1250 416 l 1250 486 l 1181 486 l 1181 416 l 1250 416 m 139 555 l 139 625 l 70 625 l 70 555 l 139 555 m 1319 555 l 1319 625 l 1250 625 l 1250 555 l 1319 555 m 1250 625 l 1250 694 l 1181 694 l 1181 625 l 1250 625 m 208 764 l 208 833 l 139 833 l 139 764 l 208 764 m 139 903 l 139 1042 l 70 1042 l 70 903 l 139 903 m 1111 833 l 1111 903 l 1180 903 l 1180 972 l 1111 972 l 1111 1042 l 1181 1042 l 1181 972 l 1319 972 l 1319 903 l 1389 903 l 1389 833 l 1250 833 l 1250 903 l 1181 903 l 1181 833 l 1111 833 m 1319 1042 l 1319 1111 l 1389 1111 l 1389 1042 l 1319 1042 m 208 1111 l 208 1250 l 139 1250 l 139 1111 l 208 1111 m 694 1180 l 694 1250 l 625 1250 l 625 1180 l 694 1180 m 833 1180 l 833 1250 l 764 1250 l 764 1180 l 833 1180 m 347 1180 l 347 1319 l 278 1319 l 278 1180 l 347 1180 m 625 1250 l 625 1319 l 556 1319 l 556 1250 l 625 1250 m 764 1250 l 764 1319 l 694 1319 l 694 1250 l 764 1250 m 0 0 l 0 694 l 69 694 l 69 764 l 0 764 l 0 1042 l 69 1042 l 69 1111 l 0 1111 l 0 1250 l 69 1250 l 69 1319 l 0 1319 l 0 1389 l 209 1389 l 209 1319 l 278 1319 l 278 1389 l 417 1389 l 417 1319 l 555 1319 l 555 1389 l 764 1389 l 764 1319 l 903 1319 l 903 1111 l 764 1111 l 764 1180 l 694 1180 l 694 1111 l 555 1111 l 555 1250 l 417 1250 l 417 1180 l 486 1180 l 486 1111 l 278 1111 l 278 972 l 209 972 l 209 903 l 278 903 l 278 764 l 209 764 l 209 694 l 278 694 l 278 278 l 625 278 l 625 208 l 764 208 l 764 278 l 1111 278 l 1111 764 l 1319 764 l 1319 625 l 1389 625 l 1389 486 l 1319 486 l 1319 416 l 1389 416 l 1389 278 l 1319 278 l 1319 347 l 1250 347 l 1250 278 l 1111 278 l 1111 0 l 1042 0 l 1042 69 l 972 69 l 972 0 l 0 0 m 972 1111 l 972 1180 l 1042 1180 l 1042 1319 l 972 1319 l 972 1389 l 1042 1389 l 1042 1319 l 1111 1319 l 1111 1180 l 1042 1180 l 1042 1111 l 972 1111 z "},"E":{"ha":1597,"x_min":0,"x_max":1389,"o":"m 208 69 l 208 139 l 139 139 l 139 69 l 208 69 m 1042 69 l 1042 139 l 972 139 l 972 69 l 1042 69 m 625 69 l 625 208 l 556 208 l 556 69 l 625 69 m 903 139 l 903 208 l 833 208 l 833 139 l 903 139 m 1180 69 l 1180 139 l 1250 139 l 1250 208 l 1111 208 l 1111 69 l 1180 69 m 208 278 l 208 347 l 139 347 l 139 278 l 208 278 m 139 486 l 139 555 l 70 555 l 70 486 l 139 486 m 208 555 l 208 694 l 139 694 l 139 555 l 208 555 m 694 625 l 694 694 l 556 694 l 556 625 l 694 625 m 416 694 l 416 764 l 347 764 l 347 694 l 416 694 m 278 764 l 278 833 l 209 833 l 209 764 l 278 764 m 139 972 l 139 1042 l 70 1042 l 70 972 l 139 972 m 139 1111 l 139 1180 l 70 1180 l 70 1111 l 139 1111 m 1180 1111 l 1180 1180 l 1250 1180 l 1250 1111 l 1180 1111 m 1319 1111 l 1319 1180 l 1389 1180 l 1389 1111 l 1319 1111 m 278 1111 l 278 1250 l 209 1250 l 209 1111 l 278 1111 m 416 1180 l 416 1250 l 347 1250 l 347 1180 l 416 1180 m 555 1180 l 555 1250 l 486 1250 l 486 1180 l 555 1180 m 694 1180 l 694 1250 l 625 1250 l 625 1180 l 694 1180 m 833 1180 l 833 1250 l 764 1250 l 764 1180 l 833 1180 m 208 1250 l 208 1319 l 139 1319 l 139 1250 l 208 1250 m 486 1250 l 486 1319 l 417 1319 l 417 1250 l 486 1250 m 1180 1250 l 1180 1319 l 1250 1319 l 1250 1250 l 1180 1250 m 0 0 l 0 833 l 139 833 l 139 903 l 0 903 l 0 1389 l 278 1389 l 278 1319 l 347 1319 l 347 1389 l 625 1389 l 625 1319 l 694 1319 l 694 1389 l 764 1389 l 764 1319 l 833 1319 l 833 1389 l 903 1389 l 903 1319 l 972 1319 l 972 1389 l 1111 1389 l 1111 1319 l 1042 1319 l 1042 1250 l 903 1250 l 903 1180 l 1111 1180 l 1111 1111 l 903 1111 l 903 1180 l 833 1180 l 833 1111 l 278 1111 l 278 833 l 486 833 l 486 694 l 555 694 l 555 764 l 694 764 l 694 694 l 764 694 l 764 625 l 833 625 l 833 555 l 764 555 l 764 625 l 694 625 l 694 555 l 555 555 l 555 625 l 486 625 l 486 555 l 278 555 l 278 278 l 764 278 l 764 208 l 833 208 l 833 278 l 1389 278 l 1389 208 l 1319 208 l 1319 139 l 1389 139 l 1389 0 l 1250 0 l 1250 69 l 1181 69 l 1181 0 l 0 0 z "},"F":{"ha":1597,"x_min":0,"x_max":1389,"o":"m 416 625 l 416 694 l 347 694 l 347 625 l 416 625 m 555 625 l 555 694 l 486 694 l 486 625 l 555 625 m 139 694 l 139 764 l 70 764 l 70 694 l 139 694 m 347 694 l 347 764 l 278 764 l 278 694 l 347 694 m 694 764 l 694 833 l 764 833 l 764 764 l 694 764 m 208 972 l 208 1042 l 139 1042 l 139 972 l 208 972 m 139 1111 l 139 1180 l 70 1180 l 70 1111 l 139 1111 m 208 1250 l 208 1319 l 139 1319 l 139 1250 l 208 1250 m 347 1250 l 347 1319 l 278 1319 l 278 1250 l 347 1250 m 625 1180 l 625 1319 l 556 1319 l 556 1250 l 486 1250 l 486 1180 l 625 1180 m 833 1250 l 833 1319 l 764 1319 l 764 1250 l 833 1250 m 1319 1111 l 1319 1250 l 1250 1250 l 1250 1319 l 1319 1319 l 1319 1250 l 1389 1250 l 1389 1111 l 1319 1111 m 0 0 l 0 1389 l 209 1389 l 209 1319 l 278 1319 l 278 1389 l 417 1389 l 417 1250 l 486 1250 l 486 1389 l 694 1389 l 694 1319 l 764 1319 l 764 1389 l 833 1389 l 833 1319 l 903 1319 l 903 1389 l 972 1389 l 972 1319 l 903 1319 l 903 1250 l 972 1250 l 972 1180 l 1042 1180 l 1042 1389 l 1111 1389 l 1111 1250 l 1181 1250 l 1181 1180 l 1250 1180 l 1250 1111 l 1111 1111 l 1111 1180 l 1042 1180 l 1042 1111 l 903 1111 l 903 1180 l 694 1180 l 694 1111 l 347 1111 l 347 1180 l 278 1180 l 278 833 l 486 833 l 486 764 l 625 764 l 625 694 l 694 694 l 694 625 l 764 625 l 764 694 l 833 694 l 833 555 l 278 555 l 278 0 l 0 0 z "},"G":{"ha":1597,"x_min":0,"x_max":1389,"o":"m 903 69 l 903 139 l 833 139 l 833 69 l 903 69 m 1319 69 l 1319 139 l 1250 139 l 1250 69 l 1319 69 m 1180 139 l 1180 208 l 1111 208 l 1111 139 l 1180 139 m 1250 278 l 1250 347 l 1181 347 l 1181 278 l 1250 278 m 1319 347 l 1319 416 l 1250 416 l 1250 347 l 1319 347 m 1319 486 l 1319 555 l 1250 555 l 1250 625 l 1181 625 l 1181 486 l 1319 486 m 208 694 l 208 764 l 139 764 l 139 694 l 208 694 m 139 833 l 139 903 l 70 903 l 70 833 l 139 833 m 208 972 l 208 1042 l 139 1042 l 139 972 l 208 972 m 208 1111 l 208 1180 l 139 1180 l 139 1111 l 208 1111 m 347 1180 l 347 1250 l 278 1250 l 278 1180 l 347 1180 m 486 1180 l 486 1250 l 417 1250 l 417 1180 l 486 1180 m 416 1250 l 416 1319 l 347 1319 l 347 1250 l 416 1250 m 625 1180 l 625 1250 l 694 1250 l 694 1319 l 556 1319 l 556 1180 l 625 1180 m 833 1250 l 833 1319 l 764 1319 l 764 1250 l 833 1250 m 0 0 l 0 1042 l 69 1042 l 69 1180 l 0 1180 l 0 1250 l 70 1250 l 70 1180 l 139 1180 l 139 1319 l 0 1319 l 0 1389 l 209 1389 l 209 1319 l 278 1319 l 278 1389 l 417 1389 l 417 1319 l 486 1319 l 486 1389 l 694 1389 l 694 1319 l 764 1319 l 764 1389 l 903 1389 l 903 1319 l 972 1319 l 972 1250 l 1042 1250 l 1042 1319 l 1111 1319 l 1111 1180 l 1181 1180 l 1181 1111 l 1111 1111 l 1111 1180 l 1042 1180 l 1042 1111 l 972 1111 l 972 1180 l 903 1180 l 903 1111 l 833 1111 l 833 1180 l 764 1180 l 764 1111 l 694 1111 l 694 1180 l 625 1180 l 625 1111 l 555 1111 l 555 1180 l 486 1180 l 486 1111 l 278 1111 l 278 972 l 209 972 l 209 903 l 278 903 l 278 278 l 556 278 l 556 208 l 625 208 l 625 278 l 1111 278 l 1111 416 l 1180 416 l 1180 486 l 1111 486 l 1111 694 l 1042 694 l 1042 555 l 555 555 l 555 833 l 625 833 l 625 764 l 694 764 l 694 833 l 833 833 l 833 764 l 764 764 l 764 694 l 694 694 l 694 625 l 972 625 l 972 694 l 903 694 l 903 833 l 1042 833 l 1042 764 l 1111 764 l 1111 833 l 1181 833 l 1181 694 l 1250 694 l 1250 764 l 1319 764 l 1319 694 l 1250 694 l 1250 625 l 1319 625 l 1319 555 l 1389 555 l 1389 486 l 1319 486 l 1319 416 l 1389 416 l 1389 347 l 1319 347 l 1319 278 l 1389 278 l 1389 0 l 1111 0 l 1111 69 l 1042 69 l 1042 0 l 0 0 m 1250 1111 l 1250 1250 l 1180 1250 l 1180 1319 l 1250 1319 l 1250 1389 l 1389 1389 l 1389 1319 l 1250 1319 l 1250 1250 l 1319 1250 l 1319 1180 l 1389 1180 l 1389 1111 l 1250 1111 z "},"H":{"ha":1597,"x_min":0,"x_max":1389,"o":"m 208 139 l 208 208 l 139 208 l 139 139 l 208 139 m 1250 278 l 1250 347 l 1181 347 l 1181 278 l 1250 278 m 139 347 l 139 416 l 70 416 l 70 347 l 139 347 m 1250 416 l 1250 555 l 1181 555 l 1181 416 l 1250 416 m 278 555 l 278 625 l 139 625 l 139 555 l 278 555 m 972 625 l 972 694 l 903 694 l 903 625 l 972 625 m 1111 625 l 1111 694 l 1042 694 l 1042 625 l 1111 625 m 1250 625 l 1250 694 l 1181 694 l 1181 625 l 1250 625 m 694 694 l 694 764 l 625 764 l 625 694 l 694 694 m 833 694 l 833 764 l 764 764 l 764 694 l 833 694 m 1042 694 l 1042 764 l 972 764 l 972 694 l 1042 694 m 139 694 l 139 833 l 70 833 l 70 694 l 139 694 m 1319 764 l 1319 833 l 1250 833 l 1250 764 l 1319 764 m 139 972 l 139 1042 l 70 1042 l 70 972 l 139 972 m 208 1042 l 208 1111 l 139 1111 l 139 1042 l 208 1042 m 139 1111 l 139 1180 l 70 1180 l 70 1111 l 139 1111 m 1250 1111 l 1250 1180 l 1181 1180 l 1181 1111 l 1250 1111 m 0 0 l 0 1042 l 69 1042 l 69 1111 l 0 1111 l 0 1389 l 70 1389 l 70 1250 l 139 1250 l 139 1319 l 208 1319 l 208 1389 l 278 1389 l 278 1319 l 209 1319 l 209 1250 l 139 1250 l 139 1180 l 209 1180 l 209 1111 l 278 1111 l 278 1042 l 209 1042 l 209 972 l 278 972 l 278 903 l 139 903 l 139 833 l 209 833 l 209 694 l 278 694 l 278 833 l 347 833 l 347 764 l 416 764 l 416 833 l 486 833 l 486 694 l 347 694 l 347 625 l 555 625 l 555 833 l 694 833 l 694 764 l 764 764 l 764 833 l 903 833 l 903 764 l 972 764 l 972 833 l 1042 833 l 1042 764 l 1180 764 l 1180 833 l 1250 833 l 1250 903 l 1111 903 l 1111 972 l 1180 972 l 1180 1042 l 1111 1042 l 1111 1180 l 1180 1180 l 1180 1250 l 1250 1250 l 1250 1180 l 1319 1180 l 1319 1111 l 1389 1111 l 1389 1042 l 1319 1042 l 1319 1111 l 1250 1111 l 1250 903 l 1319 903 l 1319 972 l 1389 972 l 1389 903 l 1319 903 l 1319 833 l 1389 833 l 1389 764 l 1319 764 l 1319 694 l 1389 694 l 1389 625 l 1319 625 l 1319 555 l 1389 555 l 1389 486 l 1319 486 l 1319 416 l 1389 416 l 1389 347 l 1319 347 l 1319 278 l 1389 278 l 1389 208 l 1319 208 l 1319 139 l 1389 139 l 1389 0 l 1111 0 l 1111 555 l 1042 555 l 1042 625 l 972 625 l 972 555 l 833 555 l 833 625 l 764 625 l 764 555 l 694 555 l 694 625 l 625 625 l 625 555 l 278 555 l 278 486 l 209 486 l 209 416 l 278 416 l 278 278 l 209 278 l 209 208 l 278 208 l 278 0 l 0 0 m 1111 1319 l 1111 1389 l 1181 1389 l 1181 1319 l 1111 1319 m 1319 1319 l 1319 1389 l 1389 1389 l 1389 1319 l 1319 1319 z "},"I":{"ha":1597,"x_min":0,"x_max":1389,"o":"m 278 69 l 278 139 l 209 139 l 209 69 l 278 69 m 972 69 l 972 139 l 903 139 l 903 69 l 972 69 m 1250 69 l 1250 139 l 1181 139 l 1181 69 l 1250 69 m 416 139 l 416 208 l 347 208 l 347 139 l 416 139 m 625 139 l 625 208 l 556 208 l 556 139 l 625 139 m 764 208 l 764 278 l 694 278 l 694 208 l 764 208 m 694 486 l 694 555 l 625 555 l 625 486 l 694 486 m 764 625 l 764 694 l 694 694 l 694 625 l 764 625 m 764 903 l 764 972 l 625 972 l 625 903 l 764 903 m 764 1042 l 764 1111 l 694 1111 l 694 1180 l 625 1180 l 625 1042 l 764 1042 m 347 1180 l 347 1250 l 278 1250 l 278 1180 l 347 1180 m 1250 1111 l 1250 1250 l 1389 1250 l 1389 1180 l 1319 1180 l 1319 1111 l 1250 1111 m 486 1180 l 486 1319 l 417 1319 l 417 1180 l 486 1180 m 764 1180 l 764 1319 l 694 1319 l 694 1180 l 764 1180 m 0 0 l 0 278 l 555 278 l 555 625 l 625 625 l 625 694 l 555 694 l 555 764 l 625 764 l 625 833 l 555 833 l 555 1111 l 0 1111 l 0 1250 l 69 1250 l 69 1319 l 0 1319 l 0 1389 l 139 1389 l 139 1180 l 208 1180 l 208 1250 l 278 1250 l 278 1319 l 208 1319 l 208 1389 l 278 1389 l 278 1319 l 347 1319 l 347 1389 l 556 1389 l 556 1180 l 625 1180 l 625 1319 l 694 1319 l 694 1389 l 833 1389 l 833 1319 l 903 1319 l 903 1389 l 972 1389 l 972 1250 l 1042 1250 l 1042 1180 l 1111 1180 l 1111 1250 l 1181 1250 l 1181 1111 l 1042 1111 l 1042 1180 l 972 1180 l 972 1111 l 903 1111 l 903 1250 l 833 1250 l 833 1042 l 764 1042 l 764 972 l 833 972 l 833 833 l 694 833 l 694 764 l 833 764 l 833 555 l 764 555 l 764 486 l 833 486 l 833 278 l 1111 278 l 1111 208 l 1180 208 l 1180 278 l 1389 278 l 1389 0 l 1319 0 l 1319 69 l 1250 69 l 1250 0 l 625 0 l 625 69 l 556 69 l 556 0 l 0 0 m 1042 1319 l 1042 1389 l 1111 1389 l 1111 1319 l 1042 1319 m 1250 1319 l 1250 1389 l 1319 1389 l 1319 1319 l 1250 1319 z "},"J":{"ha":1597,"x_min":0,"x_max":1389,"o":"m 416 69 l 416 139 l 347 139 l 347 69 l 416 69 m 972 69 l 972 139 l 903 139 l 903 69 l 972 69 m 347 139 l 347 208 l 278 208 l 278 139 l 347 139 m 833 139 l 833 208 l 694 208 l 694 139 l 833 139 m 1250 347 l 1250 416 l 1181 416 l 1181 347 l 1250 347 m 1319 625 l 1319 694 l 1250 694 l 1250 625 l 1319 625 m 1319 764 l 1319 833 l 1250 833 l 1250 764 l 1319 764 m 555 1111 l 555 1250 l 833 1250 l 833 1111 l 694 1111 l 694 1180 l 625 1180 l 625 1111 l 555 1111 m 555 1319 l 555 1389 l 694 1389 l 694 1319 l 555 1319 m 0 0 l 0 278 l 486 278 l 486 208 l 555 208 l 555 278 l 972 278 l 972 208 l 1042 208 l 1042 278 l 1111 278 l 1111 416 l 1180 416 l 1180 486 l 1111 486 l 1111 694 l 1180 694 l 1180 764 l 1111 764 l 1111 1042 l 1180 1042 l 1180 1111 l 1111 1111 l 1111 1250 l 1042 1250 l 1042 1319 l 972 1319 l 972 1180 l 1042 1180 l 1042 1111 l 972 1111 l 972 1180 l 903 1180 l 903 1389 l 1181 1389 l 1181 1319 l 1250 1319 l 1250 1389 l 1389 1389 l 1389 1319 l 1250 1319 l 1250 1180 l 1181 1180 l 1181 1111 l 1389 1111 l 1389 1042 l 1181 1042 l 1181 972 l 1250 972 l 1250 903 l 1319 903 l 1319 833 l 1389 833 l 1389 764 l 1319 764 l 1319 694 l 1389 694 l 1389 555 l 1250 555 l 1250 486 l 1389 486 l 1389 278 l 1111 278 l 1111 0 l 833 0 l 833 69 l 764 69 l 764 0 l 0 0 z "},"K":{"ha":1597,"x_min":0,"x_max":1389,"o":"m 1250 139 l 1250 208 l 1181 208 l 1181 139 l 1250 139 m 1111 0 l 1111 278 l 1389 278 l 1389 208 l 1319 208 l 1319 69 l 1389 69 l 1389 0 l 1111 0 m 972 347 l 972 416 l 903 416 l 903 347 l 972 347 m 208 555 l 208 625 l 139 625 l 139 555 l 208 555 m 347 625 l 347 694 l 278 694 l 278 625 l 347 625 m 694 694 l 694 764 l 556 764 l 556 694 l 694 694 m 139 764 l 139 833 l 70 833 l 70 764 l 139 764 m 1042 833 l 1042 903 l 972 903 l 972 972 l 1111 972 l 1111 833 l 1042 833 m 208 1042 l 208 1111 l 139 1111 l 139 1042 l 208 1042 m 833 972 l 833 1042 l 903 1042 l 903 1111 l 1111 1111 l 1111 1180 l 1181 1180 l 1181 1111 l 1111 1111 l 1111 1042 l 903 1042 l 903 972 l 833 972 m 139 1180 l 139 1250 l 70 1250 l 70 1180 l 139 1180 m 208 1250 l 208 1319 l 139 1319 l 139 1250 l 208 1250 m 0 0 l 0 555 l 69 555 l 69 625 l 0 625 l 0 1389 l 278 1389 l 278 1042 l 209 1042 l 209 972 l 278 972 l 278 833 l 417 833 l 417 694 l 486 694 l 486 833 l 694 833 l 694 764 l 764 764 l 764 833 l 833 833 l 833 903 l 903 903 l 903 833 l 833 833 l 833 555 l 903 555 l 903 486 l 972 486 l 972 555 l 1111 555 l 1111 486 l 1042 486 l 1042 416 l 1111 416 l 1111 347 l 1042 347 l 1042 278 l 833 278 l 833 555 l 764 555 l 764 625 l 694 625 l 694 555 l 555 555 l 555 625 l 486 625 l 486 555 l 278 555 l 278 347 l 139 347 l 139 278 l 278 278 l 278 0 l 0 0 m 1250 1111 l 1250 1180 l 1319 1180 l 1319 1250 l 1250 1250 l 1250 1319 l 1111 1319 l 1111 1389 l 1250 1389 l 1250 1319 l 1319 1319 l 1319 1250 l 1389 1250 l 1389 1111 l 1250 1111 z "},"L":{"ha":1597,"x_min":0,"x_max":1389,"o":"m 972 69 l 972 139 l 903 139 l 903 69 l 972 69 m 416 139 l 416 208 l 347 208 l 347 139 l 416 139 m 833 139 l 833 208 l 764 208 l 764 139 l 833 139 m 208 416 l 208 486 l 139 486 l 139 416 l 208 416 m 139 555 l 139 625 l 70 625 l 70 555 l 139 555 m 208 625 l 208 694 l 139 694 l 139 625 l 208 625 m 208 764 l 208 833 l 139 833 l 139 764 l 208 764 m 208 1042 l 208 1111 l 278 1111 l 278 1042 l 208 1042 m 139 1180 l 139 1250 l 70 1250 l 70 1180 l 139 1180 m 0 0 l 0 1389 l 70 1389 l 70 1319 l 139 1319 l 139 1250 l 278 1250 l 278 1180 l 139 1180 l 139 1042 l 70 1042 l 70 972 l 139 972 l 139 903 l 208 903 l 208 972 l 278 972 l 278 764 l 209 764 l 209 694 l 278 694 l 278 555 l 209 555 l 209 486 l 278 486 l 278 416 l 209 416 l 209 347 l 278 347 l 278 278 l 486 278 l 486 139 l 555 139 l 555 278 l 694 278 l 694 208 l 764 208 l 764 278 l 903 278 l 903 208 l 972 208 l 972 139 l 1111 139 l 1111 69 l 1319 69 l 1319 139 l 1180 139 l 1180 208 l 1319 208 l 1319 278 l 1389 278 l 1389 208 l 1319 208 l 1319 139 l 1389 139 l 1389 69 l 1319 69 l 1319 0 l 1042 0 l 1042 69 l 972 69 l 972 0 l 833 0 l 833 69 l 764 69 l 764 0 l 625 0 l 625 69 l 556 69 l 556 0 l 0 0 z "},"M":{"ha":1597,"x_min":0,"x_max":1389,"o":"m 139 208 l 139 278 l 70 278 l 70 208 l 139 208 m 139 347 l 139 416 l 70 416 l 70 347 l 139 347 m 208 416 l 208 486 l 139 486 l 139 416 l 208 416 m 1319 416 l 1319 486 l 1250 486 l 1250 416 l 1319 416 m 208 555 l 208 625 l 139 625 l 139 555 l 208 555 m 139 625 l 139 694 l 70 694 l 70 625 l 139 625 m 1319 625 l 1319 764 l 1389 764 l 1389 625 l 1319 625 m 139 764 l 139 833 l 70 833 l 70 764 l 139 764 m 1180 833 l 1180 903 l 1111 903 l 1111 833 l 1180 833 m 278 833 l 278 972 l 209 972 l 209 833 l 278 833 m 139 972 l 139 1042 l 70 1042 l 70 972 l 139 972 m 486 972 l 486 1042 l 417 1042 l 417 972 l 486 972 m 833 1042 l 833 1111 l 903 1111 l 903 1042 l 833 1042 m 1111 1180 l 1111 1250 l 1181 1250 l 1181 1180 l 1111 1180 m 1319 1180 l 1319 1250 l 1389 1250 l 1389 1180 l 1319 1180 m 139 1250 l 139 1319 l 70 1319 l 70 1250 l 139 1250 m 0 0 l 0 416 l 69 416 l 69 486 l 0 486 l 0 1111 l 69 1111 l 69 1180 l 0 1180 l 0 1389 l 278 1389 l 278 1319 l 209 1319 l 209 1250 l 278 1250 l 278 1111 l 139 1111 l 139 1042 l 347 1042 l 347 1111 l 486 1111 l 486 1042 l 556 1042 l 556 972 l 486 972 l 486 903 l 556 903 l 556 833 l 694 833 l 694 764 l 764 764 l 764 833 l 833 833 l 833 972 l 972 972 l 972 1111 l 1042 1111 l 1042 1042 l 1180 1042 l 1180 1111 l 1319 1111 l 1319 1042 l 1181 1042 l 1181 972 l 1250 972 l 1250 903 l 1319 903 l 1319 972 l 1389 972 l 1389 833 l 1250 833 l 1250 764 l 1181 764 l 1181 694 l 1250 694 l 1250 555 l 1389 555 l 1389 416 l 1319 416 l 1319 347 l 1389 347 l 1389 278 l 1319 278 l 1319 208 l 1389 208 l 1389 0 l 1111 0 l 1111 278 l 1180 278 l 1180 347 l 1111 347 l 1111 486 l 1180 486 l 1180 555 l 1111 555 l 1111 833 l 1042 833 l 1042 903 l 1111 903 l 1111 972 l 972 972 l 972 833 l 833 833 l 833 694 l 764 694 l 764 625 l 833 625 l 833 555 l 694 555 l 694 625 l 625 625 l 625 555 l 555 555 l 555 694 l 694 694 l 694 764 l 555 764 l 555 833 l 486 833 l 486 903 l 347 903 l 347 833 l 278 833 l 278 764 l 209 764 l 209 694 l 278 694 l 278 278 l 209 278 l 209 208 l 278 208 l 278 0 l 0 0 m 1111 1319 l 1111 1389 l 1181 1389 l 1181 1319 l 1111 1319 m 1319 1319 l 1319 1389 l 1389 1389 l 1389 1319 l 1319 1319 z "},"N":{"ha":1597,"x_min":0,"x_max":1389,"o":"m 1250 139 l 1250 208 l 1181 208 l 1181 139 l 1250 139 m 1319 278 l 1319 347 l 1250 347 l 1250 278 l 1319 278 m 1250 347 l 1250 416 l 1181 416 l 1181 347 l 1250 347 m 972 416 l 972 486 l 903 486 l 903 416 l 972 416 m 1111 416 l 1111 486 l 1042 486 l 1042 416 l 1111 416 m 208 486 l 208 555 l 139 555 l 139 486 l 208 486 m 1319 486 l 1319 625 l 1250 625 l 1250 555 l 1181 555 l 1181 486 l 1319 486 m 139 833 l 139 903 l 70 903 l 70 833 l 139 833 m 347 972 l 347 1042 l 278 1042 l 278 972 l 347 972 m 1111 0 l 1111 278 l 833 278 l 833 347 l 903 347 l 903 416 l 833 416 l 833 555 l 764 555 l 764 625 l 625 625 l 625 555 l 555 555 l 555 694 l 625 694 l 625 764 l 555 764 l 555 833 l 486 833 l 486 903 l 556 903 l 556 833 l 833 833 l 833 764 l 764 764 l 764 694 l 833 694 l 833 555 l 1111 555 l 1111 625 l 1180 625 l 1180 694 l 1111 694 l 1111 903 l 1250 903 l 1250 972 l 1319 972 l 1319 1042 l 1389 1042 l 1389 833 l 1250 833 l 1250 694 l 1319 694 l 1319 764 l 1389 764 l 1389 486 l 1319 486 l 1319 416 l 1389 416 l 1389 0 l 1111 0 m 139 1042 l 139 1111 l 70 1111 l 70 1042 l 139 1042 m 208 1250 l 208 1319 l 139 1319 l 139 1250 l 208 1250 m 1111 1042 l 1111 1111 l 1180 1111 l 1180 1180 l 1111 1180 l 1111 1319 l 1181 1319 l 1181 1180 l 1319 1180 l 1319 1250 l 1389 1250 l 1389 1111 l 1250 1111 l 1250 1042 l 1111 1042 m 0 0 l 0 278 l 69 278 l 69 347 l 0 347 l 0 1180 l 69 1180 l 69 1250 l 0 1250 l 0 1389 l 278 1389 l 278 1180 l 209 1180 l 209 1042 l 278 1042 l 278 1111 l 417 1111 l 417 1042 l 556 1042 l 556 972 l 347 972 l 347 903 l 417 903 l 417 833 l 209 833 l 209 764 l 278 764 l 278 347 l 209 347 l 209 278 l 278 278 l 278 0 l 0 0 m 1319 1319 l 1319 1389 l 1389 1389 l 1389 1319 l 1319 1319 z "},"O":{"ha":1597,"x_min":0,"x_max":1389,"o":"m 208 69 l 208 139 l 139 139 l 139 69 l 208 69 m 903 69 l 903 139 l 833 139 l 833 69 l 903 69 m 1180 69 l 1180 139 l 1111 139 l 1111 69 l 1180 69 m 625 139 l 625 208 l 556 208 l 556 139 l 625 139 m 278 208 l 278 278 l 209 278 l 209 208 l 278 208 m 1180 208 l 1180 278 l 1111 278 l 1111 208 l 1180 208 m 208 486 l 208 555 l 70 555 l 70 486 l 208 486 m 1250 347 l 1250 416 l 1319 416 l 1319 555 l 1250 555 l 1250 486 l 1181 486 l 1181 347 l 1250 347 m 208 694 l 208 764 l 139 764 l 139 694 l 208 694 m 139 764 l 139 833 l 70 833 l 70 764 l 139 764 m 208 833 l 208 972 l 139 972 l 139 833 l 208 833 m 139 1042 l 139 1111 l 70 1111 l 70 1042 l 139 1042 m 278 1250 l 278 1319 l 209 1319 l 209 1250 l 278 1250 m 416 1250 l 416 1319 l 347 1319 l 347 1250 l 416 1250 m 764 1180 l 764 1250 l 833 1250 l 833 1319 l 694 1319 l 694 1250 l 625 1250 l 625 1180 l 764 1180 m 0 0 l 0 1389 l 70 1389 l 70 1319 l 139 1319 l 139 1389 l 417 1389 l 417 1319 l 486 1319 l 486 1389 l 556 1389 l 556 1319 l 625 1319 l 625 1389 l 833 1389 l 833 1319 l 972 1319 l 972 1389 l 1042 1389 l 1042 1250 l 903 1250 l 903 1180 l 1042 1180 l 1042 1111 l 833 1111 l 833 1180 l 764 1180 l 764 1111 l 555 1111 l 555 1319 l 486 1319 l 486 1111 l 278 1111 l 278 1180 l 208 1180 l 208 1250 l 139 1250 l 139 1111 l 209 1111 l 209 972 l 278 972 l 278 694 l 209 694 l 209 625 l 278 625 l 278 278 l 1111 278 l 1111 486 l 1180 486 l 1180 555 l 1111 555 l 1111 625 l 1180 625 l 1180 694 l 1111 694 l 1111 764 l 1250 764 l 1250 833 l 1180 833 l 1180 903 l 1111 903 l 1111 1111 l 1181 1111 l 1181 1042 l 1250 1042 l 1250 903 l 1319 903 l 1319 1042 l 1389 1042 l 1389 833 l 1319 833 l 1319 764 l 1389 764 l 1389 694 l 1250 694 l 1250 625 l 1389 625 l 1389 278 l 1250 278 l 1250 208 l 1389 208 l 1389 0 l 694 0 l 694 69 l 625 69 l 625 0 l 0 0 m 1180 1180 l 1180 1250 l 1111 1250 l 1111 1389 l 1181 1389 l 1181 1250 l 1250 1250 l 1250 1180 l 1180 1180 m 1250 1319 l 1250 1389 l 1319 1389 l 1319 1319 l 1250 1319 z "},"P":{"ha":1597,"x_min":0,"x_max":1389,"o":"m 139 208 l 139 347 l 70 347 l 70 208 l 139 208 m 208 347 l 208 416 l 139 416 l 139 347 l 208 347 m 139 625 l 139 694 l 70 694 l 70 625 l 139 625 m 625 625 l 625 694 l 694 694 l 694 764 l 556 764 l 556 625 l 625 625 m 208 764 l 208 833 l 70 833 l 70 764 l 208 764 m 1319 903 l 1319 972 l 1389 972 l 1389 903 l 1319 903 m 139 972 l 139 1042 l 70 1042 l 70 972 l 139 972 m 694 1180 l 694 1250 l 556 1250 l 556 1180 l 694 1180 m 833 1180 l 833 1250 l 764 1250 l 764 1180 l 833 1180 m 486 1250 l 486 1319 l 347 1319 l 347 1250 l 486 1250 m 0 0 l 0 486 l 69 486 l 69 555 l 0 555 l 0 1111 l 69 1111 l 69 1180 l 0 1180 l 0 1389 l 209 1389 l 209 1319 l 70 1319 l 70 1180 l 139 1180 l 139 1250 l 278 1250 l 278 1389 l 625 1389 l 625 1319 l 694 1319 l 694 1389 l 972 1389 l 972 1319 l 903 1319 l 903 1250 l 972 1250 l 972 1180 l 1042 1180 l 1042 1250 l 1111 1250 l 1111 1111 l 1250 1111 l 1250 1042 l 1181 1042 l 1181 903 l 1111 903 l 1111 1111 l 903 1111 l 903 1180 l 833 1180 l 833 1111 l 555 1111 l 555 1180 l 486 1180 l 486 1111 l 416 1111 l 416 1180 l 347 1180 l 347 1111 l 278 1111 l 278 1042 l 209 1042 l 209 972 l 278 972 l 278 764 l 209 764 l 209 625 l 278 625 l 278 694 l 347 694 l 347 764 l 416 764 l 416 833 l 972 833 l 972 694 l 1042 694 l 1042 625 l 1250 625 l 1250 694 l 1319 694 l 1319 764 l 1181 764 l 1181 694 l 1111 694 l 1111 764 l 1042 764 l 1042 833 l 1319 833 l 1319 764 l 1389 764 l 1389 555 l 1319 555 l 1319 625 l 1250 625 l 1250 555 l 972 555 l 972 625 l 903 625 l 903 555 l 833 555 l 833 694 l 764 694 l 764 555 l 486 555 l 486 625 l 417 625 l 417 555 l 278 555 l 278 486 l 209 486 l 209 416 l 278 416 l 278 139 l 209 139 l 209 69 l 278 69 l 278 0 l 0 0 z "},"Q":{"ha":1597,"x_min":0,"x_max":1389,"o":"m 416 69 l 416 139 l 347 139 l 347 69 l 416 69 m 139 139 l 139 208 l 70 208 l 70 139 l 139 139 m 555 139 l 555 208 l 486 208 l 486 139 l 555 139 m 1250 69 l 1250 208 l 1181 208 l 1181 69 l 1250 69 m 1042 347 l 1042 416 l 972 416 l 972 347 l 1042 347 m 139 486 l 139 555 l 70 555 l 70 486 l 139 486 m 1319 625 l 1319 694 l 1181 694 l 1181 625 l 1319 625 m 139 764 l 139 833 l 70 833 l 70 764 l 139 764 m 555 764 l 555 833 l 694 833 l 694 764 l 555 764 m 139 972 l 139 1042 l 70 1042 l 70 972 l 139 972 m 1111 555 l 1111 1042 l 1250 1042 l 1250 1111 l 1389 1111 l 1389 1042 l 1250 1042 l 1250 972 l 1389 972 l 1389 903 l 1250 903 l 1250 972 l 1181 972 l 1181 833 l 1250 833 l 1250 764 l 1319 764 l 1319 833 l 1389 833 l 1389 764 l 1319 764 l 1319 694 l 1389 694 l 1389 555 l 1111 555 m 1042 1111 l 1042 1180 l 1181 1180 l 1181 1111 l 1042 1111 m 555 1180 l 555 1250 l 347 1250 l 347 1180 l 555 1180 m 903 1180 l 903 1250 l 833 1250 l 833 1180 l 903 1180 m 1250 1180 l 1250 1250 l 1319 1250 l 1319 1180 l 1250 1180 m 208 1180 l 208 1319 l 139 1319 l 139 1180 l 208 1180 m 347 1250 l 347 1319 l 278 1319 l 278 1250 l 347 1250 m 0 0 l 0 278 l 69 278 l 69 347 l 0 347 l 0 1389 l 417 1389 l 417 1319 l 486 1319 l 486 1389 l 694 1389 l 694 1319 l 764 1319 l 764 1250 l 833 1250 l 833 1389 l 903 1389 l 903 1250 l 972 1250 l 972 1111 l 833 1111 l 833 1180 l 764 1180 l 764 1111 l 694 1111 l 694 1180 l 764 1180 l 764 1250 l 625 1250 l 625 1180 l 556 1180 l 556 1111 l 278 1111 l 278 625 l 209 625 l 209 555 l 278 555 l 278 278 l 833 278 l 833 555 l 764 555 l 764 625 l 694 625 l 694 555 l 555 555 l 555 625 l 694 625 l 694 694 l 833 694 l 833 555 l 903 555 l 903 486 l 972 486 l 972 555 l 1042 555 l 1042 416 l 1111 416 l 1111 278 l 1319 278 l 1319 139 l 1389 139 l 1389 0 l 1319 0 l 1319 69 l 1250 69 l 1250 0 l 1111 0 l 1111 278 l 972 278 l 972 347 l 903 347 l 903 278 l 833 278 l 833 139 l 764 139 l 764 69 l 833 69 l 833 0 l 0 0 m 1042 1250 l 1042 1319 l 972 1319 l 972 1389 l 1111 1389 l 1111 1250 l 1042 1250 m 1319 1319 l 1319 1389 l 1389 1389 l 1389 1319 l 1319 1319 z "},"R":{"ha":1597,"x_min":0,"x_max":1389,"o":"m 1042 416 l 1042 555 l 972 555 l 972 416 l 1042 416 m 208 555 l 208 625 l 139 625 l 139 555 l 208 555 m 903 625 l 903 694 l 833 694 l 833 625 l 903 625 m 1250 625 l 1250 694 l 1181 694 l 1181 625 l 1250 625 m 764 625 l 764 764 l 694 764 l 694 625 l 764 625 m 972 694 l 972 764 l 903 764 l 903 694 l 972 694 m 1180 694 l 1180 764 l 1042 764 l 1042 694 l 1180 694 m 208 833 l 208 903 l 139 903 l 139 833 l 208 833 m 1042 1250 l 1042 1319 l 1111 1319 l 1111 1250 l 1042 1250 m 555 1111 l 555 1319 l 486 1319 l 486 1389 l 694 1389 l 694 1319 l 625 1319 l 625 1250 l 694 1250 l 694 1111 l 555 1111 m 0 0 l 0 416 l 69 416 l 69 486 l 0 486 l 0 1389 l 139 1389 l 139 1180 l 347 1180 l 347 1319 l 208 1319 l 208 1389 l 417 1389 l 417 1180 l 486 1180 l 486 1111 l 278 1111 l 278 833 l 417 833 l 417 764 l 347 764 l 347 694 l 486 694 l 486 833 l 833 833 l 833 764 l 903 764 l 903 833 l 1180 833 l 1180 903 l 1111 903 l 1111 1111 l 972 1111 l 972 1180 l 833 1180 l 833 1111 l 764 1111 l 764 1180 l 833 1180 l 833 1250 l 903 1250 l 903 1319 l 764 1319 l 764 1389 l 903 1389 l 903 1319 l 972 1319 l 972 1180 l 1111 1180 l 1111 1111 l 1319 1111 l 1319 972 l 1250 972 l 1250 1042 l 1181 1042 l 1181 903 l 1250 903 l 1250 833 l 1319 833 l 1319 903 l 1389 903 l 1389 764 l 1250 764 l 1250 694 l 1319 694 l 1319 625 l 1389 625 l 1389 555 l 1111 555 l 1111 416 l 1042 416 l 1042 347 l 1111 347 l 1111 278 l 1250 278 l 1250 208 l 1319 208 l 1319 278 l 1389 278 l 1389 139 l 1250 139 l 1250 69 l 1389 69 l 1389 0 l 1111 0 l 1111 69 l 1180 69 l 1180 139 l 1111 139 l 1111 278 l 833 278 l 833 347 l 903 347 l 903 486 l 833 486 l 833 625 l 764 625 l 764 555 l 278 555 l 278 347 l 209 347 l 209 278 l 278 278 l 278 0 l 0 0 z "},"S":{"ha":1597,"x_min":0,"x_max":1389,"o":"m 694 69 l 694 139 l 625 139 l 625 69 l 694 69 m 903 139 l 903 208 l 764 208 l 764 139 l 903 139 m 1319 69 l 1319 208 l 1250 208 l 1250 69 l 1319 69 m 1319 278 l 1319 347 l 1250 347 l 1250 416 l 1181 416 l 1181 278 l 1319 278 m 1250 555 l 1250 625 l 1181 625 l 1181 555 l 1250 555 m 1042 625 l 1042 694 l 972 694 l 972 625 l 1042 625 m 1319 625 l 1319 694 l 1250 694 l 1250 625 l 1319 625 m 139 694 l 139 764 l 70 764 l 70 694 l 139 694 m 486 625 l 486 764 l 417 764 l 417 625 l 486 625 m 694 694 l 694 764 l 625 764 l 625 694 l 694 694 m 903 625 l 903 694 l 833 694 l 833 764 l 764 764 l 764 625 l 903 625 m 1180 694 l 1180 764 l 1111 764 l 1111 694 l 1180 694 m 208 833 l 208 903 l 139 903 l 139 972 l 70 972 l 70 833 l 208 833 m 139 1042 l 139 1111 l 70 1111 l 70 1042 l 139 1042 m 208 1180 l 208 1250 l 139 1250 l 139 1180 l 208 1180 m 833 1180 l 833 1250 l 694 1250 l 694 1180 l 833 1180 m 416 1250 l 416 1319 l 278 1319 l 278 1250 l 416 1250 m 1180 1180 l 1180 1250 l 1111 1250 l 1111 1319 l 1042 1319 l 1042 1180 l 1180 1180 m 1319 1250 l 1319 1319 l 1389 1319 l 1389 1250 l 1319 1250 m 0 0 l 0 278 l 209 278 l 209 208 l 278 208 l 278 278 l 417 278 l 417 69 l 486 69 l 486 278 l 1042 278 l 1042 208 l 1111 208 l 1111 625 l 1042 625 l 1042 555 l 278 555 l 278 625 l 209 625 l 209 555 l 0 555 l 0 1389 l 70 1389 l 70 1319 l 139 1319 l 139 1389 l 417 1389 l 417 1319 l 486 1319 l 486 1389 l 556 1389 l 556 1319 l 486 1319 l 486 1250 l 556 1250 l 556 1180 l 625 1180 l 625 1250 l 694 1250 l 694 1319 l 625 1319 l 625 1389 l 694 1389 l 694 1319 l 833 1319 l 833 1389 l 903 1389 l 903 1319 l 833 1319 l 833 1250 l 903 1250 l 903 1180 l 972 1180 l 972 1319 l 1042 1319 l 1042 1389 l 1111 1389 l 1111 1319 l 1180 1319 l 1180 1389 l 1250 1389 l 1250 1319 l 1181 1319 l 1181 1250 l 1250 1250 l 1250 1111 l 1042 1111 l 1042 1180 l 972 1180 l 972 1111 l 903 1111 l 903 1180 l 833 1180 l 833 1111 l 555 1111 l 555 1180 l 486 1180 l 486 1111 l 347 1111 l 347 1180 l 209 1180 l 209 1111 l 278 1111 l 278 972 l 209 972 l 209 903 l 278 903 l 278 694 l 347 694 l 347 833 l 972 833 l 972 764 l 1042 764 l 1042 833 l 1181 833 l 1181 764 l 1250 764 l 1250 833 l 1319 833 l 1319 764 l 1389 764 l 1389 625 l 1319 625 l 1319 555 l 1389 555 l 1389 486 l 1250 486 l 1250 416 l 1389 416 l 1389 0 l 1111 0 l 1111 69 l 1042 69 l 1042 0 l 972 0 l 972 69 l 833 69 l 833 0 l 0 0 z "},"T":{"ha":1597,"x_min":0,"x_max":1389,"o":"m 764 139 l 764 208 l 694 208 l 694 139 l 764 139 m 764 347 l 764 416 l 694 416 l 694 347 l 764 347 m 694 555 l 694 625 l 625 625 l 625 555 l 694 555 m 764 625 l 764 694 l 694 694 l 694 625 l 764 625 m 764 833 l 764 903 l 694 903 l 694 833 l 764 833 m 694 1042 l 694 1180 l 625 1180 l 625 1042 l 694 1042 m 139 1180 l 139 1250 l 70 1250 l 70 1180 l 139 1180 m 833 1180 l 833 1250 l 764 1250 l 764 1180 l 833 1180 m 1111 1180 l 1111 1250 l 1042 1250 l 1042 1180 l 1111 1180 m 278 1250 l 278 1319 l 209 1319 l 209 1250 l 278 1250 m 903 1250 l 903 1319 l 833 1319 l 833 1250 l 903 1250 m 1319 1250 l 1319 1319 l 1250 1319 l 1250 1250 l 1319 1250 m 555 0 l 555 347 l 625 347 l 625 416 l 555 416 l 555 1111 l 416 1111 l 416 1250 l 347 1250 l 347 1111 l 0 1111 l 0 1389 l 70 1389 l 70 1319 l 139 1319 l 139 1389 l 347 1389 l 347 1319 l 416 1319 l 416 1389 l 486 1389 l 486 1319 l 556 1319 l 556 1250 l 486 1250 l 486 1180 l 625 1180 l 625 1250 l 694 1250 l 694 1319 l 625 1319 l 625 1389 l 764 1389 l 764 1319 l 833 1319 l 833 1389 l 903 1389 l 903 1319 l 972 1319 l 972 1250 l 1042 1250 l 1042 1389 l 1111 1389 l 1111 1250 l 1180 1250 l 1180 1319 l 1250 1319 l 1250 1389 l 1319 1389 l 1319 1319 l 1389 1319 l 1389 1250 l 1319 1250 l 1319 1180 l 1389 1180 l 1389 1111 l 1250 1111 l 1250 1250 l 1181 1250 l 1181 1111 l 1042 1111 l 1042 1180 l 972 1180 l 972 1250 l 903 1250 l 903 1111 l 833 1111 l 833 1042 l 694 1042 l 694 972 l 833 972 l 833 555 l 764 555 l 764 486 l 833 486 l 833 0 l 694 0 l 694 69 l 625 69 l 625 0 l 555 0 z "},"U":{"ha":1597,"x_min":0,"x_max":1389,"o":"m 278 69 l 278 139 l 209 139 l 209 69 l 278 69 m 486 139 l 486 208 l 347 208 l 347 139 l 486 139 m 764 69 l 764 208 l 694 208 l 694 69 l 764 69 m 903 139 l 903 208 l 833 208 l 833 139 l 903 139 m 1111 69 l 1111 139 l 1180 139 l 1180 208 l 1042 208 l 1042 69 l 1111 69 m 278 208 l 278 278 l 209 278 l 209 208 l 278 208 m 1250 208 l 1250 278 l 1181 278 l 1181 208 l 1250 208 m 139 347 l 139 416 l 70 416 l 70 347 l 139 347 m 1250 347 l 1250 416 l 1181 416 l 1181 347 l 1250 347 m 139 486 l 139 555 l 70 555 l 70 486 l 139 486 m 208 694 l 208 764 l 139 764 l 139 694 l 208 694 m 139 764 l 139 833 l 70 833 l 70 764 l 139 764 m 1319 694 l 1319 833 l 1250 833 l 1250 694 l 1319 694 m 1319 486 l 1319 625 l 1250 625 l 1250 694 l 1180 694 l 1180 764 l 1111 764 l 1111 903 l 1181 903 l 1181 833 l 1250 833 l 1250 903 l 1319 903 l 1319 833 l 1389 833 l 1389 694 l 1319 694 l 1319 625 l 1389 625 l 1389 486 l 1319 486 m 208 903 l 208 972 l 139 972 l 139 903 l 208 903 m 139 972 l 139 1042 l 70 1042 l 70 972 l 139 972 m 208 1042 l 208 1111 l 139 1111 l 139 1042 l 208 1042 m 1111 972 l 1111 1111 l 1181 1111 l 1181 972 l 1111 972 m 1319 1042 l 1319 1111 l 1250 1111 l 1250 1180 l 1180 1180 l 1180 1250 l 1250 1250 l 1250 1180 l 1319 1180 l 1319 1111 l 1389 1111 l 1389 1042 l 1319 1042 m 1319 1250 l 1319 1319 l 1389 1319 l 1389 1250 l 1319 1250 m 0 0 l 0 1111 l 69 1111 l 69 1180 l 0 1180 l 0 1319 l 69 1319 l 69 1389 l 139 1389 l 139 1319 l 278 1319 l 278 1250 l 139 1250 l 139 1180 l 209 1180 l 209 1111 l 278 1111 l 278 833 l 209 833 l 209 764 l 278 764 l 278 694 l 209 694 l 209 625 l 278 625 l 278 555 l 209 555 l 209 486 l 278 486 l 278 278 l 625 278 l 625 208 l 694 208 l 694 278 l 1111 278 l 1111 486 l 1180 486 l 1180 555 l 1111 555 l 1111 625 l 1181 625 l 1181 555 l 1250 555 l 1250 416 l 1389 416 l 1389 347 l 1319 347 l 1319 278 l 1389 278 l 1389 208 l 1319 208 l 1319 139 l 1389 139 l 1389 0 l 1319 0 l 1319 69 l 1250 69 l 1250 0 l 972 0 l 972 69 l 903 69 l 903 0 l 625 0 l 625 139 l 556 139 l 556 0 l 347 0 l 347 69 l 278 69 l 278 0 l 0 0 m 1111 1319 l 1111 1389 l 1181 1389 l 1181 1319 l 1111 1319 z "},"V":{"ha":1597,"x_min":0,"x_max":1389,"o":"m 694 69 l 694 139 l 625 139 l 625 69 l 694 69 m 764 139 l 764 208 l 694 208 l 694 139 l 764 139 m 555 0 l 555 278 l 764 278 l 764 208 l 833 208 l 833 0 l 555 0 m 972 347 l 972 416 l 903 416 l 903 347 l 972 347 m 486 416 l 486 486 l 417 486 l 417 416 l 486 416 m 833 278 l 833 486 l 903 486 l 903 555 l 972 555 l 972 416 l 1042 416 l 1042 486 l 1111 486 l 1111 416 l 1042 416 l 1042 347 l 1111 347 l 1111 278 l 1042 278 l 1042 347 l 972 347 l 972 278 l 833 278 m 208 625 l 208 694 l 139 694 l 139 625 l 208 625 m 139 764 l 139 903 l 70 903 l 70 764 l 139 764 m 1111 555 l 1111 694 l 1250 694 l 1250 833 l 1181 833 l 1181 764 l 1111 764 l 1111 903 l 1180 903 l 1180 972 l 1250 972 l 1250 833 l 1319 833 l 1319 903 l 1389 903 l 1389 833 l 1319 833 l 1319 625 l 1389 625 l 1389 555 l 1250 555 l 1250 625 l 1181 625 l 1181 555 l 1111 555 m 208 1042 l 208 1111 l 139 1111 l 139 1042 l 208 1042 m 1250 1111 l 1250 1180 l 1181 1180 l 1181 1111 l 1250 1111 m 1319 972 l 1319 1042 l 1111 1042 l 1111 1250 l 1250 1250 l 1250 1180 l 1319 1180 l 1319 1250 l 1389 1250 l 1389 1180 l 1319 1180 l 1319 1111 l 1389 1111 l 1389 972 l 1319 972 m 139 1250 l 139 1319 l 70 1319 l 70 1250 l 139 1250 m 278 278 l 278 347 l 347 347 l 347 416 l 278 416 l 278 555 l 0 555 l 0 972 l 69 972 l 69 1042 l 0 1042 l 0 1389 l 139 1389 l 139 1319 l 208 1319 l 208 1389 l 278 1389 l 278 1250 l 209 1250 l 209 1180 l 278 1180 l 278 1042 l 209 1042 l 209 972 l 278 972 l 278 833 l 209 833 l 209 764 l 278 764 l 278 555 l 347 555 l 347 486 l 416 486 l 416 555 l 556 555 l 556 347 l 486 347 l 486 278 l 278 278 m 1111 1319 l 1111 1389 l 1181 1389 l 1181 1319 l 1111 1319 z "},"W":{"ha":1597,"x_min":0,"x_max":1389,"o":"m 1250 139 l 1250 208 l 1181 208 l 1181 139 l 1250 139 m 139 278 l 139 347 l 70 347 l 70 278 l 139 278 m 486 347 l 486 416 l 417 416 l 417 347 l 486 347 m 1111 347 l 1111 416 l 1042 416 l 1042 347 l 1111 347 m 1319 347 l 1319 416 l 1389 416 l 1389 347 l 1319 347 m 416 416 l 416 486 l 347 486 l 347 416 l 416 416 m 972 416 l 972 486 l 903 486 l 903 416 l 972 416 m 208 486 l 208 555 l 139 555 l 139 486 l 208 486 m 208 625 l 208 694 l 139 694 l 139 625 l 208 625 m 694 625 l 694 694 l 625 694 l 625 625 l 694 625 m 1319 625 l 1319 694 l 1181 694 l 1181 625 l 1319 625 m 764 694 l 764 764 l 694 764 l 694 694 l 764 694 m 208 833 l 208 903 l 70 903 l 70 833 l 208 833 m 208 972 l 208 1042 l 139 1042 l 139 972 l 208 972 m 208 1180 l 208 1250 l 139 1250 l 139 1180 l 208 1180 m 0 0 l 0 416 l 69 416 l 69 486 l 0 486 l 0 1111 l 69 1111 l 69 1180 l 0 1180 l 0 1389 l 70 1389 l 70 1319 l 139 1319 l 139 1389 l 209 1389 l 209 1319 l 278 1319 l 278 764 l 209 764 l 209 694 l 278 694 l 278 555 l 486 555 l 486 486 l 556 486 l 556 278 l 278 278 l 278 0 l 0 0 m 1111 0 l 1111 278 l 833 278 l 833 555 l 555 555 l 555 694 l 625 694 l 625 764 l 555 764 l 555 833 l 764 833 l 764 764 l 833 764 l 833 694 l 764 694 l 764 625 l 833 625 l 833 555 l 1180 555 l 1180 625 l 1111 625 l 1111 764 l 1180 764 l 1180 833 l 1111 833 l 1111 972 l 1180 972 l 1180 1042 l 1111 1042 l 1111 1180 l 1180 1180 l 1180 1250 l 1111 1250 l 1111 1389 l 1181 1389 l 1181 1250 l 1250 1250 l 1250 1180 l 1181 1180 l 1181 1042 l 1250 1042 l 1250 1111 l 1319 1111 l 1319 1180 l 1389 1180 l 1389 1111 l 1319 1111 l 1319 972 l 1181 972 l 1181 833 l 1250 833 l 1250 903 l 1389 903 l 1389 833 l 1250 833 l 1250 764 l 1389 764 l 1389 625 l 1319 625 l 1319 555 l 1389 555 l 1389 486 l 1250 486 l 1250 555 l 1181 555 l 1181 416 l 1250 416 l 1250 347 l 1181 347 l 1181 278 l 1389 278 l 1389 139 l 1319 139 l 1319 69 l 1389 69 l 1389 0 l 1111 0 m 1250 1319 l 1250 1389 l 1319 1389 l 1319 1319 l 1250 1319 z "},"X":{"ha":1597,"x_min":0,"x_max":1389,"o":"m 139 139 l 139 208 l 70 208 l 70 139 l 139 139 m 486 347 l 486 416 l 417 416 l 417 347 l 486 347 m 694 625 l 694 694 l 625 694 l 625 625 l 694 625 m 1042 833 l 1042 903 l 1111 903 l 1111 833 l 1042 833 m 416 903 l 416 972 l 347 972 l 347 903 l 416 903 m 1319 1111 l 1319 1180 l 1389 1180 l 1389 1111 l 1319 1111 m 764 764 l 764 833 l 833 833 l 833 903 l 903 903 l 903 972 l 833 972 l 833 1111 l 903 1111 l 903 972 l 972 972 l 972 1042 l 1042 1042 l 1042 1111 l 1111 1111 l 1111 1180 l 1180 1180 l 1180 1250 l 1250 1250 l 1250 1111 l 1111 1111 l 1111 1042 l 1042 1042 l 1042 972 l 972 972 l 972 833 l 833 833 l 833 764 l 764 764 m 139 1250 l 139 1319 l 70 1319 l 70 1250 l 139 1250 m 0 0 l 0 278 l 278 278 l 278 555 l 417 555 l 417 486 l 486 486 l 486 555 l 555 555 l 555 833 l 278 833 l 278 1111 l 208 1111 l 208 1180 l 139 1180 l 139 1111 l 69 1111 l 69 1180 l 0 1180 l 0 1389 l 139 1389 l 139 1319 l 208 1319 l 208 1389 l 278 1389 l 278 1319 l 209 1319 l 209 1250 l 278 1250 l 278 1111 l 347 1111 l 347 1042 l 416 1042 l 416 1111 l 486 1111 l 486 1042 l 556 1042 l 556 972 l 486 972 l 486 903 l 556 903 l 556 833 l 694 833 l 694 694 l 833 694 l 833 555 l 903 555 l 903 486 l 972 486 l 972 555 l 1111 555 l 1111 416 l 1042 416 l 1042 486 l 972 486 l 972 416 l 903 416 l 903 347 l 1111 347 l 1111 278 l 1250 278 l 1250 139 l 1319 139 l 1319 208 l 1389 208 l 1389 139 l 1319 139 l 1319 69 l 1389 69 l 1389 0 l 1250 0 l 1250 139 l 1181 139 l 1181 0 l 1111 0 l 1111 278 l 833 278 l 833 555 l 556 555 l 556 278 l 278 278 l 278 0 l 0 0 m 1111 1319 l 1111 1389 l 1181 1389 l 1181 1319 l 1111 1319 m 1319 1250 l 1319 1319 l 1250 1319 l 1250 1389 l 1389 1389 l 1389 1250 l 1319 1250 z "},"Y":{"ha":1597,"x_min":0,"x_max":1389,"o":"m 694 278 l 694 347 l 625 347 l 625 278 l 694 278 m 625 555 l 625 625 l 556 625 l 556 555 l 625 555 m 833 555 l 833 625 l 764 625 l 764 555 l 833 555 m 139 694 l 139 764 l 70 764 l 70 694 l 139 694 m 764 694 l 764 764 l 556 764 l 556 694 l 764 694 m 139 833 l 139 903 l 70 903 l 70 833 l 139 833 m 1250 903 l 1250 972 l 1181 972 l 1181 903 l 1250 903 m 208 972 l 208 1042 l 70 1042 l 70 972 l 208 972 m 1319 1042 l 1319 1111 l 1389 1111 l 1389 1042 l 1319 1042 m 1111 1111 l 1111 1180 l 1250 1180 l 1250 1111 l 1111 1111 m 139 1250 l 139 1319 l 70 1319 l 70 1250 l 139 1250 m 555 0 l 555 555 l 278 555 l 278 625 l 209 625 l 209 555 l 0 555 l 0 1111 l 69 1111 l 69 1180 l 0 1180 l 0 1389 l 139 1389 l 139 1319 l 278 1319 l 278 1180 l 209 1180 l 209 1111 l 278 1111 l 278 972 l 209 972 l 209 903 l 278 903 l 278 833 l 347 833 l 347 764 l 209 764 l 209 694 l 416 694 l 416 833 l 764 833 l 764 764 l 833 764 l 833 694 l 903 694 l 903 833 l 1042 833 l 1042 764 l 1111 764 l 1111 833 l 1180 833 l 1180 903 l 1111 903 l 1111 1042 l 1250 1042 l 1250 972 l 1319 972 l 1319 694 l 1389 694 l 1389 555 l 1319 555 l 1319 694 l 1250 694 l 1250 833 l 1181 833 l 1181 694 l 972 694 l 972 625 l 1250 625 l 1250 555 l 972 555 l 972 625 l 903 625 l 903 555 l 833 555 l 833 486 l 764 486 l 764 416 l 833 416 l 833 0 l 555 0 m 1111 1250 l 1111 1319 l 1180 1319 l 1180 1389 l 1319 1389 l 1319 1319 l 1389 1319 l 1389 1250 l 1319 1250 l 1319 1319 l 1250 1319 l 1250 1250 l 1111 1250 z "},"Z":{"ha":1597,"x_min":0,"x_max":1389,"o":"m 903 69 l 903 139 l 833 139 l 833 69 l 903 69 m 278 139 l 278 208 l 209 208 l 209 139 l 278 139 m 625 139 l 625 208 l 556 208 l 556 139 l 625 139 m 764 139 l 764 208 l 694 208 l 694 139 l 764 139 m 1180 139 l 1180 208 l 1111 208 l 1111 139 l 1180 139 m 486 208 l 486 278 l 417 278 l 417 208 l 486 208 m 486 347 l 486 416 l 417 416 l 417 347 l 486 347 m 416 416 l 416 486 l 347 486 l 347 416 l 416 416 m 0 0 l 0 278 l 278 278 l 278 555 l 486 555 l 486 486 l 556 486 l 556 278 l 833 278 l 833 208 l 903 208 l 903 278 l 1250 278 l 1250 208 l 1319 208 l 1319 278 l 1389 278 l 1389 139 l 1319 139 l 1319 69 l 1389 69 l 1389 0 l 1180 0 l 1180 69 l 1111 69 l 1111 0 l 555 0 l 555 69 l 486 69 l 486 0 l 0 0 m 694 694 l 694 764 l 625 764 l 625 694 l 694 694 m 972 903 l 972 972 l 903 972 l 903 903 l 972 903 m 208 1180 l 208 1250 l 139 1250 l 139 1180 l 208 1180 m 416 1180 l 416 1250 l 347 1250 l 347 1180 l 416 1180 m 555 1180 l 555 1250 l 486 1250 l 486 1180 l 555 1180 m 1319 1180 l 1319 1250 l 1250 1250 l 1250 1180 l 1319 1180 m 278 1250 l 278 1319 l 209 1319 l 209 1250 l 278 1250 m 486 1250 l 486 1319 l 417 1319 l 417 1250 l 486 1250 m 625 1250 l 625 1319 l 556 1319 l 556 1250 l 625 1250 m 555 555 l 555 625 l 625 625 l 625 694 l 555 694 l 555 833 l 833 833 l 833 972 l 903 972 l 903 1042 l 833 1042 l 833 1111 l 0 1111 l 0 1389 l 70 1389 l 70 1319 l 139 1319 l 139 1389 l 347 1389 l 347 1319 l 416 1319 l 416 1389 l 694 1389 l 694 1180 l 833 1180 l 833 1319 l 764 1319 l 764 1389 l 903 1389 l 903 1319 l 972 1319 l 972 1250 l 1042 1250 l 1042 1180 l 972 1180 l 972 1042 l 1042 1042 l 1042 1111 l 1111 1111 l 1111 1042 l 1042 1042 l 1042 972 l 1111 972 l 1111 833 l 833 833 l 833 764 l 764 764 l 764 694 l 833 694 l 833 555 l 764 555 l 764 625 l 694 625 l 694 555 l 555 555 m 1180 1111 l 1180 1250 l 1250 1250 l 1250 1319 l 1111 1319 l 1111 1389 l 1250 1389 l 1250 1319 l 1319 1319 l 1319 1250 l 1389 1250 l 1389 1111 l 1180 1111 z "},"[":{"ha":764,"x_min":0,"x_max":556,"o":"m 208 -139 l 208 -69 l 139 -69 l 139 -139 l 208 -139 m 416 -139 l 416 -69 l 347 -69 l 347 -139 l 416 -139 m 208 0 l 208 69 l 139 69 l 139 0 l 208 0 m 139 139 l 139 278 l 70 278 l 70 139 l 139 139 m 208 416 l 208 555 l 139 555 l 139 416 l 208 416 m 139 555 l 139 625 l 208 625 l 208 694 l 70 694 l 70 555 l 139 555 m 208 764 l 208 833 l 139 833 l 139 764 l 208 764 m 139 833 l 139 903 l 70 903 l 70 833 l 139 833 m 139 972 l 139 1042 l 70 1042 l 70 972 l 139 972 m 139 1250 l 139 1319 l 70 1319 l 70 1250 l 139 1250 m 208 1458 l 208 1528 l 139 1528 l 139 1597 l 70 1597 l 70 1458 l 208 1458 m 0 -278 l 0 1111 l 139 1111 l 139 1180 l 0 1180 l 0 1667 l 209 1667 l 209 1597 l 278 1597 l 278 1667 l 347 1667 l 347 1597 l 278 1597 l 278 1528 l 416 1528 l 416 1597 l 486 1597 l 486 1667 l 556 1667 l 556 1528 l 486 1528 l 486 1458 l 556 1458 l 556 1389 l 486 1389 l 486 1458 l 347 1458 l 347 1389 l 139 1389 l 139 1319 l 278 1319 l 278 1111 l 139 1111 l 139 1042 l 209 1042 l 209 972 l 278 972 l 278 347 l 139 347 l 139 278 l 278 278 l 278 208 l 209 208 l 209 139 l 278 139 l 278 0 l 556 0 l 556 -69 l 486 -69 l 486 -208 l 556 -208 l 556 -278 l 416 -278 l 416 -208 l 347 -208 l 347 -278 l 0 -278 z "},"\\":{"ha":1597,"x_min":0,"x_max":1389,"o":"m 1250 69 l 1250 139 l 1181 139 l 1181 69 l 1250 69 m 1319 139 l 1319 208 l 1250 208 l 1250 139 l 1319 139 m 1111 0 l 1111 278 l 1389 278 l 1389 139 l 1319 139 l 1319 69 l 1389 69 l 1389 0 l 1111 0 m 972 347 l 972 486 l 903 486 l 903 347 l 972 347 m 694 694 l 694 764 l 625 764 l 625 694 l 694 694 m 416 903 l 416 972 l 347 972 l 347 903 l 416 903 m 208 1180 l 208 1250 l 139 1250 l 139 1180 l 208 1180 m 833 278 l 833 555 l 764 555 l 764 625 l 694 625 l 694 555 l 555 555 l 555 833 l 278 833 l 278 1111 l 0 1111 l 0 1250 l 69 1250 l 69 1319 l 0 1319 l 0 1389 l 139 1389 l 139 1319 l 208 1319 l 208 1389 l 278 1389 l 278 1111 l 347 1111 l 347 1042 l 416 1042 l 416 1111 l 486 1111 l 486 1042 l 556 1042 l 556 972 l 486 972 l 486 903 l 556 903 l 556 833 l 833 833 l 833 764 l 764 764 l 764 694 l 833 694 l 833 555 l 1111 555 l 1111 347 l 1042 347 l 1042 278 l 833 278 z "},"]":{"ha":764,"x_min":0,"x_max":556,"o":"m 416 -208 l 416 -139 l 347 -139 l 347 -208 l 416 -208 m 208 -139 l 208 -69 l 70 -69 l 70 -139 l 208 -139 m 486 -139 l 486 -69 l 417 -69 l 417 -139 l 486 -139 m 486 139 l 486 208 l 417 208 l 417 139 l 486 139 m 486 278 l 486 347 l 347 347 l 347 278 l 486 278 m 486 416 l 486 486 l 417 486 l 417 416 l 486 416 m 486 625 l 486 694 l 417 694 l 417 625 l 486 625 m 486 833 l 486 972 l 347 972 l 347 903 l 417 903 l 417 833 l 486 833 m 486 1042 l 486 1111 l 417 1111 l 417 1042 l 486 1042 m 416 1180 l 416 1250 l 347 1250 l 347 1180 l 416 1180 m 486 1250 l 486 1319 l 417 1319 l 417 1250 l 486 1250 m 0 -278 l 0 0 l 278 0 l 278 208 l 347 208 l 347 278 l 278 278 l 278 694 l 347 694 l 347 764 l 278 764 l 278 1389 l 0 1389 l 0 1597 l 69 1597 l 69 1667 l 139 1667 l 139 1597 l 209 1597 l 209 1528 l 139 1528 l 139 1458 l 278 1458 l 278 1528 l 347 1528 l 347 1597 l 278 1597 l 278 1667 l 347 1667 l 347 1597 l 416 1597 l 416 1667 l 556 1667 l 556 1597 l 417 1597 l 417 1528 l 556 1528 l 556 1458 l 347 1458 l 347 1319 l 416 1319 l 416 1389 l 556 1389 l 556 1250 l 486 1250 l 486 1180 l 556 1180 l 556 1042 l 486 1042 l 486 972 l 556 972 l 556 416 l 486 416 l 486 347 l 556 347 l 556 -278 l 208 -278 l 208 -208 l 139 -208 l 139 -278 l 0 -278 z "},"^":{"ha":1597,"x_min":0,"x_max":1389,"o":"m 1250 903 l 1250 972 l 1181 972 l 1181 903 l 1250 903 m 208 972 l 208 1042 l 70 1042 l 70 972 l 208 972 m 1111 833 l 1111 1042 l 1180 1042 l 1180 1111 l 1389 1111 l 1389 1042 l 1319 1042 l 1319 972 l 1389 972 l 1389 833 l 1111 833 m 486 1250 l 486 1319 l 417 1319 l 417 1250 l 486 1250 m 972 1250 l 972 1319 l 903 1319 l 903 1250 l 972 1250 m 0 833 l 0 1111 l 278 1111 l 278 1319 l 347 1319 l 347 1389 l 555 1389 l 555 1458 l 625 1458 l 625 1528 l 555 1528 l 555 1597 l 625 1597 l 625 1667 l 833 1667 l 833 1597 l 694 1597 l 694 1528 l 833 1528 l 833 1389 l 972 1389 l 972 1319 l 1042 1319 l 1042 1389 l 1111 1389 l 1111 1250 l 1042 1250 l 1042 1180 l 1111 1180 l 1111 1111 l 972 1111 l 972 1180 l 903 1180 l 903 1111 l 833 1111 l 833 1389 l 764 1389 l 764 1458 l 694 1458 l 694 1389 l 556 1389 l 556 1250 l 486 1250 l 486 1180 l 556 1180 l 556 1111 l 278 1111 l 278 833 l 208 833 l 208 903 l 139 903 l 139 833 l 0 833 z "},"_":{"ha":1597,"x_min":0,"x_max":1389,"o":"m 903 -208 l 903 -139 l 833 -139 l 833 -208 l 903 -208 m 1042 -208 l 1042 -139 l 972 -139 l 972 -208 l 1042 -208 m 694 -139 l 694 -69 l 625 -69 l 625 -139 l 694 -139 m 0 -278 l 0 0 l 417 0 l 417 -69 l 486 -69 l 486 0 l 833 0 l 833 -69 l 903 -69 l 903 0 l 1042 0 l 1042 -139 l 1250 -139 l 1250 -69 l 1111 -69 l 1111 0 l 1389 0 l 1389 -69 l 1319 -69 l 1319 -139 l 1389 -139 l 1389 -278 l 1319 -278 l 1319 -208 l 1250 -208 l 1250 -278 l 1180 -278 l 1180 -208 l 1111 -208 l 1111 -278 l 0 -278 z "},"`":{"ha":764,"x_min":0,"x_max":556,"o":"m 416 1736 l 416 1805 l 347 1805 l 347 1736 l 416 1736 m 139 2014 l 139 2083 l 70 2083 l 70 2014 l 139 2014 m 278 1667 l 278 1944 l 0 1944 l 0 2222 l 209 2222 l 209 2153 l 278 2153 l 278 2083 l 209 2083 l 209 2014 l 278 2014 l 278 1944 l 347 1944 l 347 1875 l 417 1875 l 417 1805 l 486 1805 l 486 1875 l 556 1875 l 556 1805 l 486 1805 l 486 1736 l 556 1736 l 556 1667 l 278 1667 z "},"a":{"ha":1597,"x_min":0,"x_max":1389,"o":"m 625 69 l 625 139 l 556 139 l 556 69 l 625 69 m 139 139 l 139 208 l 70 208 l 70 139 l 139 139 m 486 139 l 486 208 l 417 208 l 417 139 l 486 139 m 972 139 l 972 208 l 903 208 l 903 139 l 972 139 m 1319 139 l 1319 208 l 1250 208 l 1250 139 l 1319 139 m 1250 208 l 1250 278 l 1181 278 l 1181 208 l 1250 208 m 1250 416 l 1250 486 l 1181 486 l 1181 416 l 1250 416 m 139 416 l 139 555 l 70 555 l 70 416 l 139 416 m 1319 486 l 1319 555 l 1250 555 l 1250 486 l 1319 486 m 1180 555 l 1180 625 l 1111 625 l 1111 555 l 1180 555 m 625 625 l 625 694 l 486 694 l 486 625 l 625 625 m 278 694 l 278 764 l 209 764 l 209 694 l 278 694 m 694 694 l 694 764 l 625 764 l 625 694 l 694 694 m 1180 278 l 1180 347 l 1111 347 l 1111 555 l 903 555 l 903 694 l 833 694 l 833 764 l 764 764 l 764 625 l 833 625 l 833 555 l 764 555 l 764 625 l 694 625 l 694 555 l 278 555 l 278 278 l 1180 278 m 1250 764 l 1250 833 l 1181 833 l 1181 764 l 1250 764 m 486 1111 l 486 1180 l 625 1180 l 625 1111 l 486 1111 m 694 1111 l 694 1180 l 833 1180 l 833 1111 l 694 1111 m 208 1250 l 208 1319 l 139 1319 l 139 1250 l 208 1250 m 347 1180 l 347 1319 l 278 1319 l 278 1180 l 347 1180 m 0 0 l 0 833 l 417 833 l 417 764 l 486 764 l 486 833 l 903 833 l 903 694 l 972 694 l 972 625 l 1042 625 l 1042 764 l 972 764 l 972 833 l 1111 833 l 1111 972 l 1180 972 l 1180 1042 l 1111 1042 l 1111 1180 l 1042 1180 l 1042 1111 l 903 1111 l 903 1180 l 1042 1180 l 1042 1319 l 1111 1319 l 1111 1180 l 1181 1180 l 1181 1111 l 1250 1111 l 1250 1250 l 1180 1250 l 1180 1319 l 1250 1319 l 1250 1250 l 1319 1250 l 1319 1111 l 1250 1111 l 1250 1042 l 1319 1042 l 1319 972 l 1389 972 l 1389 903 l 1319 903 l 1319 972 l 1181 972 l 1181 903 l 1250 903 l 1250 833 l 1389 833 l 1389 764 l 1319 764 l 1319 694 l 1389 694 l 1389 625 l 1319 625 l 1319 555 l 1389 555 l 1389 486 l 1319 486 l 1319 416 l 1389 416 l 1389 347 l 1319 347 l 1319 208 l 1389 208 l 1389 0 l 1042 0 l 1042 69 l 972 69 l 972 0 l 0 0 m 0 1111 l 0 1389 l 347 1389 l 347 1319 l 416 1319 l 416 1389 l 625 1389 l 625 1319 l 694 1319 l 694 1389 l 764 1389 l 764 1319 l 903 1319 l 903 1389 l 972 1389 l 972 1250 l 764 1250 l 764 1319 l 694 1319 l 694 1250 l 625 1250 l 625 1319 l 486 1319 l 486 1250 l 417 1250 l 417 1111 l 0 1111 z "},"b":{"ha":1597,"x_min":0,"x_max":1389,"o":"m 764 139 l 764 208 l 694 208 l 694 139 l 764 139 m 1319 347 l 1319 555 l 1250 555 l 1250 486 l 1181 486 l 1181 416 l 1250 416 l 1250 347 l 1319 347 m 625 625 l 625 694 l 556 694 l 556 625 l 625 625 m 764 625 l 764 694 l 694 694 l 694 625 l 764 625 m 1111 278 l 1111 555 l 1042 555 l 1042 694 l 903 694 l 903 625 l 972 625 l 972 555 l 416 555 l 416 625 l 347 625 l 347 555 l 278 555 l 278 278 l 1111 278 m 1250 625 l 1250 694 l 1111 694 l 1111 625 l 1250 625 m 903 694 l 903 764 l 833 764 l 833 694 l 903 694 m 1250 764 l 1250 833 l 1181 833 l 1181 764 l 1250 764 m 208 972 l 208 1042 l 139 1042 l 139 972 l 208 972 m 1250 972 l 1250 1042 l 1181 1042 l 1181 972 l 1250 972 m 278 1111 l 278 1180 l 209 1180 l 209 1111 l 278 1111 m 416 1180 l 416 1250 l 347 1250 l 347 1180 l 416 1180 m 1042 764 l 1042 833 l 1111 833 l 1111 903 l 1180 903 l 1180 972 l 1111 972 l 1111 1111 l 972 1111 l 972 1180 l 903 1180 l 903 1111 l 694 1111 l 694 1250 l 625 1250 l 625 1111 l 278 1111 l 278 833 l 347 833 l 347 764 l 416 764 l 416 833 l 556 833 l 556 764 l 694 764 l 694 833 l 903 833 l 903 764 l 1042 764 m 139 1250 l 139 1319 l 70 1319 l 70 1250 l 139 1250 m 278 1250 l 278 1319 l 209 1319 l 209 1250 l 278 1250 m 625 1250 l 625 1319 l 486 1319 l 486 1250 l 625 1250 m 0 0 l 0 1111 l 69 1111 l 69 1180 l 0 1180 l 0 1389 l 347 1389 l 347 1319 l 416 1319 l 416 1389 l 694 1389 l 694 1319 l 764 1319 l 764 1389 l 833 1389 l 833 1250 l 764 1250 l 764 1180 l 903 1180 l 903 1250 l 972 1250 l 972 1319 l 903 1319 l 903 1389 l 972 1389 l 972 1319 l 1111 1319 l 1111 1250 l 1042 1250 l 1042 1180 l 1111 1180 l 1111 1111 l 1250 1111 l 1250 1042 l 1319 1042 l 1319 1111 l 1389 1111 l 1389 972 l 1250 972 l 1250 833 l 1319 833 l 1319 903 l 1389 903 l 1389 833 l 1319 833 l 1319 694 l 1389 694 l 1389 625 l 1319 625 l 1319 555 l 1389 555 l 1389 278 l 1111 278 l 1111 208 l 1042 208 l 1042 139 l 1111 139 l 1111 0 l 0 0 z "},"c":{"ha":1597,"x_min":0,"x_max":1389,"o":"m 764 69 l 764 139 l 694 139 l 694 69 l 764 69 m 903 69 l 903 139 l 833 139 l 833 69 l 903 69 m 1042 69 l 1042 139 l 972 139 l 972 69 l 1042 69 m 833 139 l 833 208 l 764 208 l 764 139 l 833 139 m 1250 139 l 1250 208 l 1181 208 l 1181 139 l 1250 139 m 208 625 l 208 694 l 139 694 l 139 625 l 208 625 m 139 833 l 139 903 l 70 903 l 70 833 l 139 833 m 208 972 l 208 1042 l 139 1042 l 139 972 l 208 972 m 139 1042 l 139 1111 l 70 1111 l 70 1042 l 139 1042 m 903 1111 l 903 1180 l 972 1180 l 972 1111 l 903 1111 m 278 1180 l 278 1250 l 209 1250 l 209 1180 l 278 1180 m 764 1180 l 764 1250 l 694 1250 l 694 1180 l 764 1180 m 625 1180 l 625 1250 l 555 1250 l 555 1319 l 486 1319 l 486 1180 l 625 1180 m 1042 1111 l 1042 1250 l 1111 1250 l 1111 1180 l 1180 1180 l 1180 1250 l 1250 1250 l 1250 1319 l 1389 1319 l 1389 1250 l 1250 1250 l 1250 1180 l 1181 1180 l 1181 1111 l 1042 1111 m 0 0 l 0 972 l 69 972 l 69 1042 l 0 1042 l 0 1250 l 69 1250 l 69 1319 l 0 1319 l 0 1389 l 278 1389 l 278 1319 l 347 1319 l 347 1389 l 625 1389 l 625 1250 l 694 1250 l 694 1389 l 764 1389 l 764 1250 l 833 1250 l 833 1180 l 764 1180 l 764 1111 l 694 1111 l 694 1180 l 625 1180 l 625 1111 l 347 1111 l 347 1180 l 278 1180 l 278 972 l 209 972 l 209 903 l 278 903 l 278 833 l 209 833 l 209 764 l 278 764 l 278 278 l 486 278 l 486 208 l 555 208 l 555 278 l 903 278 l 903 139 l 972 139 l 972 278 l 1111 278 l 1111 208 l 1180 208 l 1180 278 l 1250 278 l 1250 208 l 1319 208 l 1319 139 l 1250 139 l 1250 69 l 1389 69 l 1389 0 l 1250 0 l 1250 69 l 1181 69 l 1181 0 l 0 0 m 903 1250 l 903 1319 l 833 1319 l 833 1389 l 972 1389 l 972 1250 l 903 1250 m 1111 1319 l 1111 1389 l 1181 1389 l 1181 1319 l 1111 1319 z "},"d":{"ha":1597,"x_min":0,"x_max":1389,"o":"m 972 69 l 972 139 l 903 139 l 903 69 l 972 69 m 208 139 l 208 208 l 139 208 l 139 139 l 208 139 m 555 139 l 555 208 l 486 208 l 486 139 l 555 139 m 1042 139 l 1042 208 l 972 208 l 972 139 l 1042 139 m 278 208 l 278 278 l 209 278 l 209 208 l 278 208 m 139 347 l 139 416 l 70 416 l 70 347 l 139 347 m 1250 416 l 1250 486 l 1181 486 l 1181 416 l 1250 416 m 139 555 l 139 625 l 70 625 l 70 555 l 139 555 m 1319 555 l 1319 625 l 1250 625 l 1250 555 l 1319 555 m 1250 625 l 1250 694 l 1181 694 l 1181 625 l 1250 625 m 208 764 l 208 833 l 139 833 l 139 764 l 208 764 m 139 903 l 139 1042 l 70 1042 l 70 903 l 139 903 m 1111 833 l 1111 903 l 1180 903 l 1180 972 l 1111 972 l 1111 1042 l 1181 1042 l 1181 972 l 1319 972 l 1319 903 l 1389 903 l 1389 833 l 1250 833 l 1250 903 l 1181 903 l 1181 833 l 1111 833 m 1319 1042 l 1319 1111 l 1389 1111 l 1389 1042 l 1319 1042 m 208 1111 l 208 1250 l 139 1250 l 139 1111 l 208 1111 m 694 1180 l 694 1250 l 625 1250 l 625 1180 l 694 1180 m 833 1180 l 833 1250 l 764 1250 l 764 1180 l 833 1180 m 347 1180 l 347 1319 l 278 1319 l 278 1180 l 347 1180 m 625 1250 l 625 1319 l 556 1319 l 556 1250 l 625 1250 m 764 1250 l 764 1319 l 694 1319 l 694 1250 l 764 1250 m 0 0 l 0 694 l 69 694 l 69 764 l 0 764 l 0 1042 l 69 1042 l 69 1111 l 0 1111 l 0 1250 l 69 1250 l 69 1319 l 0 1319 l 0 1389 l 209 1389 l 209 1319 l 278 1319 l 278 1389 l 417 1389 l 417 1319 l 555 1319 l 555 1389 l 764 1389 l 764 1319 l 903 1319 l 903 1111 l 764 1111 l 764 1180 l 694 1180 l 694 1111 l 555 1111 l 555 1250 l 417 1250 l 417 1180 l 486 1180 l 486 1111 l 278 1111 l 278 972 l 209 972 l 209 903 l 278 903 l 278 764 l 209 764 l 209 694 l 278 694 l 278 278 l 625 278 l 625 208 l 764 208 l 764 278 l 1111 278 l 1111 764 l 1319 764 l 1319 625 l 1389 625 l 1389 486 l 1319 486 l 1319 416 l 1389 416 l 1389 278 l 1319 278 l 1319 347 l 1250 347 l 1250 278 l 1111 278 l 1111 0 l 1042 0 l 1042 69 l 972 69 l 972 0 l 0 0 m 972 1111 l 972 1180 l 1042 1180 l 1042 1319 l 972 1319 l 972 1389 l 1042 1389 l 1042 1319 l 1111 1319 l 1111 1180 l 1042 1180 l 1042 1111 l 972 1111 z "},"e":{"ha":1597,"x_min":0,"x_max":1389,"o":"m 278 69 l 278 139 l 209 139 l 209 69 l 278 69 m 486 69 l 486 139 l 417 139 l 417 69 l 486 69 m 694 139 l 694 208 l 625 208 l 625 139 l 694 139 m 972 139 l 972 208 l 903 208 l 903 139 l 972 139 m 1250 139 l 1250 208 l 1181 208 l 1181 139 l 1250 139 m 139 347 l 139 416 l 70 416 l 70 347 l 139 347 m 139 625 l 139 694 l 70 694 l 70 625 l 139 625 m 278 625 l 278 694 l 209 694 l 209 625 l 278 625 m 694 625 l 694 694 l 625 694 l 625 625 l 694 625 m 1319 625 l 1319 694 l 1250 694 l 1250 625 l 1319 625 m 486 694 l 486 764 l 347 764 l 347 694 l 486 694 m 1180 625 l 1180 694 l 1250 694 l 1250 764 l 1111 764 l 1111 625 l 1180 625 m 1319 764 l 1319 833 l 1250 833 l 1250 764 l 1319 764 m 208 833 l 208 903 l 139 903 l 139 833 l 208 833 m 1042 555 l 1042 764 l 1111 764 l 1111 972 l 1181 972 l 1181 833 l 1250 833 l 1250 972 l 1389 972 l 1389 903 l 1319 903 l 1319 833 l 1389 833 l 1389 764 l 1319 764 l 1319 694 l 1389 694 l 1389 555 l 1250 555 l 1250 625 l 1181 625 l 1181 555 l 1042 555 m 208 1042 l 208 1111 l 139 1111 l 139 1042 l 208 1042 m 486 1180 l 486 1250 l 417 1250 l 417 1180 l 486 1180 m 278 1180 l 278 1319 l 209 1319 l 209 1180 l 278 1180 m 416 1250 l 416 1319 l 347 1319 l 347 1250 l 416 1250 m 555 1250 l 555 1319 l 486 1319 l 486 1250 l 555 1250 m 903 1250 l 903 1319 l 833 1319 l 833 1250 l 903 1250 m 1250 1180 l 1250 1319 l 1319 1319 l 1319 1180 l 1250 1180 m 0 0 l 0 1250 l 69 1250 l 69 1319 l 0 1319 l 0 1389 l 417 1389 l 417 1319 l 486 1319 l 486 1389 l 556 1389 l 556 1319 l 625 1319 l 625 1389 l 694 1389 l 694 1319 l 764 1319 l 764 1389 l 972 1389 l 972 1319 l 1042 1319 l 1042 1250 l 1111 1250 l 1111 1319 l 1181 1319 l 1181 1250 l 1111 1250 l 1111 1180 l 1181 1180 l 1181 1111 l 1250 1111 l 1250 1042 l 1111 1042 l 1111 1111 l 972 1111 l 972 1180 l 1042 1180 l 1042 1250 l 903 1250 l 903 1111 l 764 1111 l 764 1180 l 833 1180 l 833 1250 l 694 1250 l 694 1319 l 625 1319 l 625 1250 l 556 1250 l 556 1180 l 694 1180 l 694 1111 l 555 1111 l 555 1180 l 486 1180 l 486 1111 l 347 1111 l 347 1180 l 278 1180 l 278 833 l 625 833 l 625 764 l 764 764 l 764 833 l 833 833 l 833 764 l 903 764 l 903 833 l 972 833 l 972 764 l 903 764 l 903 694 l 972 694 l 972 555 l 903 555 l 903 694 l 764 694 l 764 625 l 833 625 l 833 555 l 278 555 l 278 278 l 1389 278 l 1389 0 l 972 0 l 972 69 l 903 69 l 903 0 l 0 0 z "},"f":{"ha":1597,"x_min":0,"x_max":1389,"o":"m 416 625 l 416 694 l 347 694 l 347 625 l 416 625 m 555 625 l 555 694 l 486 694 l 486 625 l 555 625 m 139 694 l 139 764 l 70 764 l 70 694 l 139 694 m 347 694 l 347 764 l 278 764 l 278 694 l 347 694 m 694 764 l 694 833 l 764 833 l 764 764 l 694 764 m 208 972 l 208 1042 l 139 1042 l 139 972 l 208 972 m 139 1111 l 139 1180 l 70 1180 l 70 1111 l 139 1111 m 208 1250 l 208 1319 l 139 1319 l 139 1250 l 208 1250 m 347 1250 l 347 1319 l 278 1319 l 278 1250 l 347 1250 m 625 1180 l 625 1319 l 556 1319 l 556 1250 l 486 1250 l 486 1180 l 625 1180 m 833 1250 l 833 1319 l 764 1319 l 764 1250 l 833 1250 m 1319 1111 l 1319 1250 l 1250 1250 l 1250 1319 l 1319 1319 l 1319 1250 l 1389 1250 l 1389 1111 l 1319 1111 m 0 0 l 0 1389 l 209 1389 l 209 1319 l 278 1319 l 278 1389 l 417 1389 l 417 1250 l 486 1250 l 486 1389 l 694 1389 l 694 1319 l 764 1319 l 764 1389 l 833 1389 l 833 1319 l 903 1319 l 903 1389 l 972 1389 l 972 1319 l 903 1319 l 903 1250 l 972 1250 l 972 1180 l 1042 1180 l 1042 1389 l 1111 1389 l 1111 1250 l 1181 1250 l 1181 1180 l 1250 1180 l 1250 1111 l 1111 1111 l 1111 1180 l 1042 1180 l 1042 1111 l 903 1111 l 903 1180 l 694 1180 l 694 1111 l 347 1111 l 347 1180 l 278 1180 l 278 833 l 486 833 l 486 764 l 625 764 l 625 694 l 694 694 l 694 625 l 764 625 l 764 694 l 833 694 l 833 555 l 278 555 l 278 0 l 0 0 z "},"g":{"ha":1597,"x_min":0,"x_max":1389,"o":"m 903 69 l 903 139 l 833 139 l 833 69 l 903 69 m 1319 69 l 1319 139 l 1250 139 l 1250 69 l 1319 69 m 1180 139 l 1180 208 l 1111 208 l 1111 139 l 1180 139 m 1250 278 l 1250 347 l 1181 347 l 1181 278 l 1250 278 m 1319 347 l 1319 416 l 1250 416 l 1250 347 l 1319 347 m 1319 486 l 1319 555 l 1250 555 l 1250 625 l 1181 625 l 1181 486 l 1319 486 m 208 694 l 208 764 l 139 764 l 139 694 l 208 694 m 139 833 l 139 903 l 70 903 l 70 833 l 139 833 m 208 972 l 208 1042 l 139 1042 l 139 972 l 208 972 m 208 1111 l 208 1180 l 139 1180 l 139 1111 l 208 1111 m 347 1180 l 347 1250 l 278 1250 l 278 1180 l 347 1180 m 486 1180 l 486 1250 l 417 1250 l 417 1180 l 486 1180 m 416 1250 l 416 1319 l 347 1319 l 347 1250 l 416 1250 m 625 1180 l 625 1250 l 694 1250 l 694 1319 l 556 1319 l 556 1180 l 625 1180 m 833 1250 l 833 1319 l 764 1319 l 764 1250 l 833 1250 m 0 0 l 0 1042 l 69 1042 l 69 1180 l 0 1180 l 0 1250 l 70 1250 l 70 1180 l 139 1180 l 139 1319 l 0 1319 l 0 1389 l 209 1389 l 209 1319 l 278 1319 l 278 1389 l 417 1389 l 417 1319 l 486 1319 l 486 1389 l 694 1389 l 694 1319 l 764 1319 l 764 1389 l 903 1389 l 903 1319 l 972 1319 l 972 1250 l 1042 1250 l 1042 1319 l 1111 1319 l 1111 1180 l 1181 1180 l 1181 1111 l 1111 1111 l 1111 1180 l 1042 1180 l 1042 1111 l 972 1111 l 972 1180 l 903 1180 l 903 1111 l 833 1111 l 833 1180 l 764 1180 l 764 1111 l 694 1111 l 694 1180 l 625 1180 l 625 1111 l 555 1111 l 555 1180 l 486 1180 l 486 1111 l 278 1111 l 278 972 l 209 972 l 209 903 l 278 903 l 278 278 l 556 278 l 556 208 l 625 208 l 625 278 l 1111 278 l 1111 416 l 1180 416 l 1180 486 l 1111 486 l 1111 694 l 1042 694 l 1042 555 l 555 555 l 555 833 l 625 833 l 625 764 l 694 764 l 694 833 l 833 833 l 833 764 l 764 764 l 764 694 l 694 694 l 694 625 l 972 625 l 972 694 l 903 694 l 903 833 l 1042 833 l 1042 764 l 1111 764 l 1111 833 l 1181 833 l 1181 694 l 1250 694 l 1250 764 l 1319 764 l 1319 694 l 1250 694 l 1250 625 l 1319 625 l 1319 555 l 1389 555 l 1389 486 l 1319 486 l 1319 416 l 1389 416 l 1389 347 l 1319 347 l 1319 278 l 1389 278 l 1389 0 l 1111 0 l 1111 69 l 1042 69 l 1042 0 l 0 0 m 1250 1111 l 1250 1250 l 1180 1250 l 1180 1319 l 1250 1319 l 1250 1389 l 1389 1389 l 1389 1319 l 1250 1319 l 1250 1250 l 1319 1250 l 1319 1180 l 1389 1180 l 1389 1111 l 1250 1111 z "},"h":{"ha":1597,"x_min":0,"x_max":1389,"o":"m 208 139 l 208 208 l 139 208 l 139 139 l 208 139 m 1250 278 l 1250 347 l 1181 347 l 1181 278 l 1250 278 m 139 347 l 139 416 l 70 416 l 70 347 l 139 347 m 1250 416 l 1250 555 l 1181 555 l 1181 416 l 1250 416 m 278 555 l 278 625 l 139 625 l 139 555 l 278 555 m 972 625 l 972 694 l 903 694 l 903 625 l 972 625 m 1111 625 l 1111 694 l 1042 694 l 1042 625 l 1111 625 m 1250 625 l 1250 694 l 1181 694 l 1181 625 l 1250 625 m 694 694 l 694 764 l 625 764 l 625 694 l 694 694 m 833 694 l 833 764 l 764 764 l 764 694 l 833 694 m 1042 694 l 1042 764 l 972 764 l 972 694 l 1042 694 m 139 694 l 139 833 l 70 833 l 70 694 l 139 694 m 1319 764 l 1319 833 l 1250 833 l 1250 764 l 1319 764 m 139 972 l 139 1042 l 70 1042 l 70 972 l 139 972 m 208 1042 l 208 1111 l 139 1111 l 139 1042 l 208 1042 m 139 1111 l 139 1180 l 70 1180 l 70 1111 l 139 1111 m 1250 1111 l 1250 1180 l 1181 1180 l 1181 1111 l 1250 1111 m 0 0 l 0 1042 l 69 1042 l 69 1111 l 0 1111 l 0 1389 l 70 1389 l 70 1250 l 139 1250 l 139 1319 l 208 1319 l 208 1389 l 278 1389 l 278 1319 l 209 1319 l 209 1250 l 139 1250 l 139 1180 l 209 1180 l 209 1111 l 278 1111 l 278 1042 l 209 1042 l 209 972 l 278 972 l 278 903 l 139 903 l 139 833 l 209 833 l 209 694 l 278 694 l 278 833 l 347 833 l 347 764 l 416 764 l 416 833 l 486 833 l 486 694 l 347 694 l 347 625 l 555 625 l 555 833 l 694 833 l 694 764 l 764 764 l 764 833 l 903 833 l 903 764 l 972 764 l 972 833 l 1042 833 l 1042 764 l 1180 764 l 1180 833 l 1250 833 l 1250 903 l 1111 903 l 1111 972 l 1180 972 l 1180 1042 l 1111 1042 l 1111 1180 l 1180 1180 l 1180 1250 l 1250 1250 l 1250 1180 l 1319 1180 l 1319 1111 l 1389 1111 l 1389 1042 l 1319 1042 l 1319 1111 l 1250 1111 l 1250 903 l 1319 903 l 1319 972 l 1389 972 l 1389 903 l 1319 903 l 1319 833 l 1389 833 l 1389 764 l 1319 764 l 1319 694 l 1389 694 l 1389 625 l 1319 625 l 1319 555 l 1389 555 l 1389 486 l 1319 486 l 1319 416 l 1389 416 l 1389 347 l 1319 347 l 1319 278 l 1389 278 l 1389 208 l 1319 208 l 1319 139 l 1389 139 l 1389 0 l 1111 0 l 1111 555 l 1042 555 l 1042 625 l 972 625 l 972 555 l 833 555 l 833 625 l 764 625 l 764 555 l 694 555 l 694 625 l 625 625 l 625 555 l 278 555 l 278 486 l 209 486 l 209 416 l 278 416 l 278 278 l 209 278 l 209 208 l 278 208 l 278 0 l 0 0 m 1111 1319 l 1111 1389 l 1181 1389 l 1181 1319 l 1111 1319 m 1319 1319 l 1319 1389 l 1389 1389 l 1389 1319 l 1319 1319 z "},"i":{"ha":1597,"x_min":0,"x_max":1389,"o":"m 278 69 l 278 139 l 209 139 l 209 69 l 278 69 m 972 69 l 972 139 l 903 139 l 903 69 l 972 69 m 1250 69 l 1250 139 l 1181 139 l 1181 69 l 1250 69 m 416 139 l 416 208 l 347 208 l 347 139 l 416 139 m 625 139 l 625 208 l 556 208 l 556 139 l 625 139 m 764 208 l 764 278 l 694 278 l 694 208 l 764 208 m 694 486 l 694 555 l 625 555 l 625 486 l 694 486 m 764 625 l 764 694 l 694 694 l 694 625 l 764 625 m 764 903 l 764 972 l 625 972 l 625 903 l 764 903 m 764 1042 l 764 1111 l 694 1111 l 694 1180 l 625 1180 l 625 1042 l 764 1042 m 347 1180 l 347 1250 l 278 1250 l 278 1180 l 347 1180 m 1250 1111 l 1250 1250 l 1389 1250 l 1389 1180 l 1319 1180 l 1319 1111 l 1250 1111 m 486 1180 l 486 1319 l 417 1319 l 417 1180 l 486 1180 m 764 1180 l 764 1319 l 694 1319 l 694 1180 l 764 1180 m 0 0 l 0 278 l 555 278 l 555 625 l 625 625 l 625 694 l 555 694 l 555 764 l 625 764 l 625 833 l 555 833 l 555 1111 l 0 1111 l 0 1250 l 69 1250 l 69 1319 l 0 1319 l 0 1389 l 139 1389 l 139 1180 l 208 1180 l 208 1250 l 278 1250 l 278 1319 l 208 1319 l 208 1389 l 278 1389 l 278 1319 l 347 1319 l 347 1389 l 556 1389 l 556 1180 l 625 1180 l 625 1319 l 694 1319 l 694 1389 l 833 1389 l 833 1319 l 903 1319 l 903 1389 l 972 1389 l 972 1250 l 1042 1250 l 1042 1180 l 1111 1180 l 1111 1250 l 1181 1250 l 1181 1111 l 1042 1111 l 1042 1180 l 972 1180 l 972 1111 l 903 1111 l 903 1250 l 833 1250 l 833 1042 l 764 1042 l 764 972 l 833 972 l 833 833 l 694 833 l 694 764 l 833 764 l 833 555 l 764 555 l 764 486 l 833 486 l 833 278 l 1111 278 l 1111 208 l 1180 208 l 1180 278 l 1389 278 l 1389 0 l 1319 0 l 1319 69 l 1250 69 l 1250 0 l 625 0 l 625 69 l 556 69 l 556 0 l 0 0 m 1042 1319 l 1042 1389 l 1111 1389 l 1111 1319 l 1042 1319 m 1250 1319 l 1250 1389 l 1319 1389 l 1319 1319 l 1250 1319 z "},"j":{"ha":1597,"x_min":0,"x_max":1389,"o":"m 416 69 l 416 139 l 347 139 l 347 69 l 416 69 m 972 69 l 972 139 l 903 139 l 903 69 l 972 69 m 347 139 l 347 208 l 278 208 l 278 139 l 347 139 m 833 139 l 833 208 l 694 208 l 694 139 l 833 139 m 1250 347 l 1250 416 l 1181 416 l 1181 347 l 1250 347 m 1319 625 l 1319 694 l 1250 694 l 1250 625 l 1319 625 m 1319 764 l 1319 833 l 1250 833 l 1250 764 l 1319 764 m 555 1111 l 555 1250 l 833 1250 l 833 1111 l 694 1111 l 694 1180 l 625 1180 l 625 1111 l 555 1111 m 555 1319 l 555 1389 l 694 1389 l 694 1319 l 555 1319 m 0 0 l 0 278 l 486 278 l 486 208 l 555 208 l 555 278 l 972 278 l 972 208 l 1042 208 l 1042 278 l 1111 278 l 1111 416 l 1180 416 l 1180 486 l 1111 486 l 1111 694 l 1180 694 l 1180 764 l 1111 764 l 1111 1042 l 1180 1042 l 1180 1111 l 1111 1111 l 1111 1250 l 1042 1250 l 1042 1319 l 972 1319 l 972 1180 l 1042 1180 l 1042 1111 l 972 1111 l 972 1180 l 903 1180 l 903 1389 l 1181 1389 l 1181 1319 l 1250 1319 l 1250 1389 l 1389 1389 l 1389 1319 l 1250 1319 l 1250 1180 l 1181 1180 l 1181 1111 l 1389 1111 l 1389 1042 l 1181 1042 l 1181 972 l 1250 972 l 1250 903 l 1319 903 l 1319 833 l 1389 833 l 1389 764 l 1319 764 l 1319 694 l 1389 694 l 1389 555 l 1250 555 l 1250 486 l 1389 486 l 1389 278 l 1111 278 l 1111 0 l 833 0 l 833 69 l 764 69 l 764 0 l 0 0 z "},"k":{"ha":1597,"x_min":0,"x_max":1389,"o":"m 1250 139 l 1250 208 l 1181 208 l 1181 139 l 1250 139 m 1111 0 l 1111 278 l 1389 278 l 1389 208 l 1319 208 l 1319 69 l 1389 69 l 1389 0 l 1111 0 m 972 347 l 972 416 l 903 416 l 903 347 l 972 347 m 208 555 l 208 625 l 139 625 l 139 555 l 208 555 m 347 625 l 347 694 l 278 694 l 278 625 l 347 625 m 694 694 l 694 764 l 556 764 l 556 694 l 694 694 m 139 764 l 139 833 l 70 833 l 70 764 l 139 764 m 1042 833 l 1042 903 l 972 903 l 972 972 l 1111 972 l 1111 833 l 1042 833 m 208 1042 l 208 1111 l 139 1111 l 139 1042 l 208 1042 m 833 972 l 833 1042 l 903 1042 l 903 1111 l 1111 1111 l 1111 1180 l 1181 1180 l 1181 1111 l 1111 1111 l 1111 1042 l 903 1042 l 903 972 l 833 972 m 139 1180 l 139 1250 l 70 1250 l 70 1180 l 139 1180 m 208 1250 l 208 1319 l 139 1319 l 139 1250 l 208 1250 m 0 0 l 0 555 l 69 555 l 69 625 l 0 625 l 0 1389 l 278 1389 l 278 1042 l 209 1042 l 209 972 l 278 972 l 278 833 l 417 833 l 417 694 l 486 694 l 486 833 l 694 833 l 694 764 l 764 764 l 764 833 l 833 833 l 833 903 l 903 903 l 903 833 l 833 833 l 833 555 l 903 555 l 903 486 l 972 486 l 972 555 l 1111 555 l 1111 486 l 1042 486 l 1042 416 l 1111 416 l 1111 347 l 1042 347 l 1042 278 l 833 278 l 833 555 l 764 555 l 764 625 l 694 625 l 694 555 l 555 555 l 555 625 l 486 625 l 486 555 l 278 555 l 278 347 l 139 347 l 139 278 l 278 278 l 278 0 l 0 0 m 1250 1111 l 1250 1180 l 1319 1180 l 1319 1250 l 1250 1250 l 1250 1319 l 1111 1319 l 1111 1389 l 1250 1389 l 1250 1319 l 1319 1319 l 1319 1250 l 1389 1250 l 1389 1111 l 1250 1111 z "},"l":{"ha":1597,"x_min":0,"x_max":1389,"o":"m 972 69 l 972 139 l 903 139 l 903 69 l 972 69 m 416 139 l 416 208 l 347 208 l 347 139 l 416 139 m 833 139 l 833 208 l 764 208 l 764 139 l 833 139 m 208 416 l 208 486 l 139 486 l 139 416 l 208 416 m 139 555 l 139 625 l 70 625 l 70 555 l 139 555 m 208 625 l 208 694 l 139 694 l 139 625 l 208 625 m 208 764 l 208 833 l 139 833 l 139 764 l 208 764 m 208 1042 l 208 1111 l 278 1111 l 278 1042 l 208 1042 m 139 1180 l 139 1250 l 70 1250 l 70 1180 l 139 1180 m 0 0 l 0 1389 l 70 1389 l 70 1319 l 139 1319 l 139 1250 l 278 1250 l 278 1180 l 139 1180 l 139 1042 l 70 1042 l 70 972 l 139 972 l 139 903 l 208 903 l 208 972 l 278 972 l 278 764 l 209 764 l 209 694 l 278 694 l 278 555 l 209 555 l 209 486 l 278 486 l 278 416 l 209 416 l 209 347 l 278 347 l 278 278 l 486 278 l 486 139 l 555 139 l 555 278 l 694 278 l 694 208 l 764 208 l 764 278 l 903 278 l 903 208 l 972 208 l 972 139 l 1111 139 l 1111 69 l 1319 69 l 1319 139 l 1180 139 l 1180 208 l 1319 208 l 1319 278 l 1389 278 l 1389 208 l 1319 208 l 1319 139 l 1389 139 l 1389 69 l 1319 69 l 1319 0 l 1042 0 l 1042 69 l 972 69 l 972 0 l 833 0 l 833 69 l 764 69 l 764 0 l 625 0 l 625 69 l 556 69 l 556 0 l 0 0 z "},"m":{"ha":1597,"x_min":0,"x_max":1389,"o":"m 208 69 l 208 139 l 139 139 l 139 69 l 208 69 m 694 69 l 694 139 l 625 139 l 625 69 l 694 69 m 1319 139 l 1319 208 l 1250 208 l 1250 139 l 1319 139 m 208 278 l 208 347 l 139 347 l 139 278 l 208 278 m 1319 278 l 1319 347 l 1250 347 l 1250 278 l 1319 278 m 764 347 l 764 416 l 694 416 l 694 347 l 764 347 m 1250 416 l 1250 486 l 1181 486 l 1181 416 l 1250 416 m 139 625 l 139 694 l 70 694 l 70 625 l 139 625 m 694 625 l 694 694 l 764 694 l 764 764 l 625 764 l 625 625 l 694 625 m 208 903 l 208 972 l 139 972 l 139 903 l 208 903 m 139 972 l 139 1042 l 70 1042 l 70 972 l 139 972 m 764 972 l 764 1042 l 833 1042 l 833 972 l 764 972 m 208 1180 l 208 1250 l 139 1250 l 139 1180 l 208 1180 m 555 0 l 555 1042 l 625 1042 l 625 1111 l 555 1111 l 555 1250 l 625 1250 l 625 1180 l 764 1180 l 764 1111 l 694 1111 l 694 972 l 625 972 l 625 903 l 694 903 l 694 833 l 764 833 l 764 903 l 833 903 l 833 833 l 764 833 l 764 764 l 833 764 l 833 625 l 764 625 l 764 555 l 833 555 l 833 0 l 555 0 m 1111 0 l 1111 555 l 1250 555 l 1250 625 l 1111 625 l 1111 833 l 1180 833 l 1180 903 l 1111 903 l 1111 1111 l 1042 1111 l 1042 1250 l 1111 1250 l 1111 1111 l 1250 1111 l 1250 1042 l 1181 1042 l 1181 903 l 1250 903 l 1250 972 l 1319 972 l 1319 1042 l 1389 1042 l 1389 903 l 1250 903 l 1250 833 l 1181 833 l 1181 694 l 1250 694 l 1250 764 l 1389 764 l 1389 694 l 1319 694 l 1319 555 l 1389 555 l 1389 486 l 1319 486 l 1319 416 l 1389 416 l 1389 0 l 1111 0 m 1319 1111 l 1319 1180 l 1250 1180 l 1250 1250 l 1319 1250 l 1319 1180 l 1389 1180 l 1389 1111 l 1319 1111 m 139 1250 l 139 1319 l 70 1319 l 70 1250 l 139 1250 m 0 0 l 0 208 l 69 208 l 69 278 l 0 278 l 0 1389 l 347 1389 l 347 1319 l 278 1319 l 278 1180 l 347 1180 l 347 1250 l 486 1250 l 486 1111 l 416 1111 l 416 1180 l 347 1180 l 347 1111 l 209 1111 l 209 1042 l 278 1042 l 278 833 l 209 833 l 209 764 l 278 764 l 278 625 l 209 625 l 209 555 l 278 555 l 278 0 l 0 0 m 416 1319 l 416 1389 l 556 1389 l 556 1319 l 416 1319 m 833 1111 l 833 1180 l 903 1180 l 903 1250 l 764 1250 l 764 1319 l 625 1319 l 625 1389 l 764 1389 l 764 1319 l 903 1319 l 903 1250 l 972 1250 l 972 1180 l 903 1180 l 903 1111 l 833 1111 m 972 1319 l 972 1389 l 1111 1389 l 1111 1319 l 972 1319 m 1180 1319 l 1180 1389 l 1250 1389 l 1250 1319 l 1180 1319 z "},"n":{"ha":1597,"x_min":0,"x_max":1389,"o":"m 139 208 l 139 278 l 70 278 l 70 208 l 139 208 m 1250 278 l 1250 347 l 1181 347 l 1181 278 l 1250 278 m 208 416 l 208 486 l 139 486 l 139 416 l 208 416 m 1250 416 l 1250 486 l 1181 486 l 1181 416 l 1250 416 m 1319 486 l 1319 555 l 1250 555 l 1250 486 l 1319 486 m 139 903 l 139 972 l 70 972 l 70 903 l 139 903 m 208 1042 l 208 1111 l 139 1111 l 139 1042 l 208 1042 m 1250 1111 l 1250 1180 l 1111 1180 l 1111 1111 l 1250 1111 m 555 1180 l 555 1250 l 486 1250 l 486 1180 l 555 1180 m 1111 1180 l 1111 1250 l 972 1250 l 972 1180 l 1111 1180 m 0 0 l 0 1111 l 69 1111 l 69 1180 l 0 1180 l 0 1389 l 139 1389 l 139 1319 l 208 1319 l 208 1389 l 417 1389 l 417 1319 l 486 1319 l 486 1389 l 556 1389 l 556 1319 l 625 1319 l 625 1389 l 764 1389 l 764 1250 l 833 1250 l 833 1319 l 903 1319 l 903 1250 l 972 1250 l 972 1319 l 1042 1319 l 1042 1389 l 1111 1389 l 1111 1250 l 1250 1250 l 1250 1180 l 1319 1180 l 1319 1111 l 1250 1111 l 1250 972 l 1319 972 l 1319 1042 l 1389 1042 l 1389 972 l 1319 972 l 1319 903 l 1389 903 l 1389 833 l 1250 833 l 1250 764 l 1181 764 l 1181 694 l 1319 694 l 1319 764 l 1389 764 l 1389 694 l 1319 694 l 1319 625 l 1389 625 l 1389 486 l 1319 486 l 1319 416 l 1389 416 l 1389 208 l 1319 208 l 1319 139 l 1389 139 l 1389 0 l 1111 0 l 1111 625 l 1180 625 l 1180 694 l 1111 694 l 1111 903 l 1181 903 l 1181 833 l 1250 833 l 1250 972 l 1111 972 l 1111 1111 l 903 1111 l 903 1180 l 833 1180 l 833 1111 l 694 1111 l 694 1180 l 764 1180 l 764 1250 l 694 1250 l 694 1319 l 625 1319 l 625 1180 l 556 1180 l 556 1111 l 416 1111 l 416 1319 l 347 1319 l 347 1250 l 278 1250 l 278 1180 l 347 1180 l 347 1111 l 278 1111 l 278 764 l 209 764 l 209 694 l 278 694 l 278 0 l 0 0 z "},"o":{"ha":1597,"x_min":0,"x_max":1389,"o":"m 208 69 l 208 139 l 139 139 l 139 69 l 208 69 m 903 69 l 903 139 l 833 139 l 833 69 l 903 69 m 1180 69 l 1180 139 l 1111 139 l 1111 69 l 1180 69 m 625 139 l 625 208 l 556 208 l 556 139 l 625 139 m 278 208 l 278 278 l 209 278 l 209 208 l 278 208 m 1180 208 l 1180 278 l 1111 278 l 1111 208 l 1180 208 m 208 486 l 208 555 l 70 555 l 70 486 l 208 486 m 1250 347 l 1250 416 l 1319 416 l 1319 555 l 1250 555 l 1250 486 l 1181 486 l 1181 347 l 1250 347 m 208 694 l 208 764 l 139 764 l 139 694 l 208 694 m 139 764 l 139 833 l 70 833 l 70 764 l 139 764 m 208 833 l 208 972 l 139 972 l 139 833 l 208 833 m 139 1042 l 139 1111 l 70 1111 l 70 1042 l 139 1042 m 278 1250 l 278 1319 l 209 1319 l 209 1250 l 278 1250 m 416 1250 l 416 1319 l 347 1319 l 347 1250 l 416 1250 m 764 1180 l 764 1250 l 833 1250 l 833 1319 l 694 1319 l 694 1250 l 625 1250 l 625 1180 l 764 1180 m 0 0 l 0 1389 l 70 1389 l 70 1319 l 139 1319 l 139 1389 l 417 1389 l 417 1319 l 486 1319 l 486 1389 l 556 1389 l 556 1319 l 625 1319 l 625 1389 l 833 1389 l 833 1319 l 972 1319 l 972 1389 l 1042 1389 l 1042 1250 l 903 1250 l 903 1180 l 1042 1180 l 1042 1111 l 833 1111 l 833 1180 l 764 1180 l 764 1111 l 555 1111 l 555 1319 l 486 1319 l 486 1111 l 278 1111 l 278 1180 l 208 1180 l 208 1250 l 139 1250 l 139 1111 l 209 1111 l 209 972 l 278 972 l 278 694 l 209 694 l 209 625 l 278 625 l 278 278 l 1111 278 l 1111 486 l 1180 486 l 1180 555 l 1111 555 l 1111 625 l 1180 625 l 1180 694 l 1111 694 l 1111 764 l 1250 764 l 1250 833 l 1180 833 l 1180 903 l 1111 903 l 1111 1111 l 1181 1111 l 1181 1042 l 1250 1042 l 1250 903 l 1319 903 l 1319 1042 l 1389 1042 l 1389 833 l 1319 833 l 1319 764 l 1389 764 l 1389 694 l 1250 694 l 1250 625 l 1389 625 l 1389 278 l 1250 278 l 1250 208 l 1389 208 l 1389 0 l 694 0 l 694 69 l 625 69 l 625 0 l 0 0 m 1180 1180 l 1180 1250 l 1111 1250 l 1111 1389 l 1181 1389 l 1181 1250 l 1250 1250 l 1250 1180 l 1180 1180 m 1250 1319 l 1250 1389 l 1319 1389 l 1319 1319 l 1250 1319 z "},"p":{"ha":1597,"x_min":0,"x_max":1389,"o":"m 139 208 l 139 347 l 70 347 l 70 208 l 139 208 m 208 347 l 208 416 l 139 416 l 139 347 l 208 347 m 139 625 l 139 694 l 70 694 l 70 625 l 139 625 m 625 625 l 625 694 l 694 694 l 694 764 l 556 764 l 556 625 l 625 625 m 208 764 l 208 833 l 70 833 l 70 764 l 208 764 m 1319 903 l 1319 972 l 1389 972 l 1389 903 l 1319 903 m 139 972 l 139 1042 l 70 1042 l 70 972 l 139 972 m 694 1180 l 694 1250 l 556 1250 l 556 1180 l 694 1180 m 833 1180 l 833 1250 l 764 1250 l 764 1180 l 833 1180 m 486 1250 l 486 1319 l 347 1319 l 347 1250 l 486 1250 m 0 0 l 0 486 l 69 486 l 69 555 l 0 555 l 0 1111 l 69 1111 l 69 1180 l 0 1180 l 0 1389 l 209 1389 l 209 1319 l 70 1319 l 70 1180 l 139 1180 l 139 1250 l 278 1250 l 278 1389 l 625 1389 l 625 1319 l 694 1319 l 694 1389 l 972 1389 l 972 1319 l 903 1319 l 903 1250 l 972 1250 l 972 1180 l 1042 1180 l 1042 1250 l 1111 1250 l 1111 1111 l 1250 1111 l 1250 1042 l 1181 1042 l 1181 903 l 1111 903 l 1111 1111 l 903 1111 l 903 1180 l 833 1180 l 833 1111 l 555 1111 l 555 1180 l 486 1180 l 486 1111 l 416 1111 l 416 1180 l 347 1180 l 347 1111 l 278 1111 l 278 1042 l 209 1042 l 209 972 l 278 972 l 278 764 l 209 764 l 209 625 l 278 625 l 278 694 l 347 694 l 347 764 l 416 764 l 416 833 l 972 833 l 972 694 l 1042 694 l 1042 625 l 1250 625 l 1250 694 l 1319 694 l 1319 764 l 1181 764 l 1181 694 l 1111 694 l 1111 764 l 1042 764 l 1042 833 l 1319 833 l 1319 764 l 1389 764 l 1389 555 l 1319 555 l 1319 625 l 1250 625 l 1250 555 l 972 555 l 972 625 l 903 625 l 903 555 l 833 555 l 833 694 l 764 694 l 764 555 l 486 555 l 486 625 l 417 625 l 417 555 l 278 555 l 278 486 l 209 486 l 209 416 l 278 416 l 278 139 l 209 139 l 209 69 l 278 69 l 278 0 l 0 0 z "},"q":{"ha":1597,"x_min":0,"x_max":1389,"o":"m 416 69 l 416 139 l 347 139 l 347 69 l 416 69 m 139 139 l 139 208 l 70 208 l 70 139 l 139 139 m 555 139 l 555 208 l 486 208 l 486 139 l 555 139 m 1250 69 l 1250 208 l 1181 208 l 1181 69 l 1250 69 m 1042 347 l 1042 416 l 972 416 l 972 347 l 1042 347 m 139 486 l 139 555 l 70 555 l 70 486 l 139 486 m 1319 625 l 1319 694 l 1181 694 l 1181 625 l 1319 625 m 139 764 l 139 833 l 70 833 l 70 764 l 139 764 m 555 764 l 555 833 l 694 833 l 694 764 l 555 764 m 139 972 l 139 1042 l 70 1042 l 70 972 l 139 972 m 1111 555 l 1111 1042 l 1250 1042 l 1250 1111 l 1389 1111 l 1389 1042 l 1250 1042 l 1250 972 l 1389 972 l 1389 903 l 1250 903 l 1250 972 l 1181 972 l 1181 833 l 1250 833 l 1250 764 l 1319 764 l 1319 833 l 1389 833 l 1389 764 l 1319 764 l 1319 694 l 1389 694 l 1389 555 l 1111 555 m 1042 1111 l 1042 1180 l 1181 1180 l 1181 1111 l 1042 1111 m 555 1180 l 555 1250 l 347 1250 l 347 1180 l 555 1180 m 903 1180 l 903 1250 l 833 1250 l 833 1180 l 903 1180 m 1250 1180 l 1250 1250 l 1319 1250 l 1319 1180 l 1250 1180 m 208 1180 l 208 1319 l 139 1319 l 139 1180 l 208 1180 m 347 1250 l 347 1319 l 278 1319 l 278 1250 l 347 1250 m 0 0 l 0 278 l 69 278 l 69 347 l 0 347 l 0 1389 l 417 1389 l 417 1319 l 486 1319 l 486 1389 l 694 1389 l 694 1319 l 764 1319 l 764 1250 l 833 1250 l 833 1389 l 903 1389 l 903 1250 l 972 1250 l 972 1111 l 833 1111 l 833 1180 l 764 1180 l 764 1111 l 694 1111 l 694 1180 l 764 1180 l 764 1250 l 625 1250 l 625 1180 l 556 1180 l 556 1111 l 278 1111 l 278 625 l 209 625 l 209 555 l 278 555 l 278 278 l 833 278 l 833 555 l 764 555 l 764 625 l 694 625 l 694 555 l 555 555 l 555 625 l 694 625 l 694 694 l 833 694 l 833 555 l 903 555 l 903 486 l 972 486 l 972 555 l 1042 555 l 1042 416 l 1111 416 l 1111 278 l 1319 278 l 1319 139 l 1389 139 l 1389 0 l 1319 0 l 1319 69 l 1250 69 l 1250 0 l 1111 0 l 1111 278 l 972 278 l 972 347 l 903 347 l 903 278 l 833 278 l 833 139 l 764 139 l 764 69 l 833 69 l 833 0 l 0 0 m 1042 1250 l 1042 1319 l 972 1319 l 972 1389 l 1111 1389 l 1111 1250 l 1042 1250 m 1319 1319 l 1319 1389 l 1389 1389 l 1389 1319 l 1319 1319 z "},"r":{"ha":1597,"x_min":0,"x_max":1389,"o":"m 208 69 l 208 139 l 139 139 l 139 69 l 208 69 m 139 278 l 139 347 l 70 347 l 70 278 l 139 278 m 208 555 l 208 625 l 139 625 l 139 555 l 208 555 m 139 625 l 139 694 l 70 694 l 70 625 l 139 625 m 139 903 l 139 972 l 70 972 l 70 903 l 139 903 m 208 972 l 208 1042 l 139 1042 l 139 972 l 208 972 m 1319 1111 l 1319 1250 l 1389 1250 l 1389 1111 l 1319 1111 m 347 1180 l 347 1319 l 278 1319 l 278 1180 l 347 1180 m 1111 1250 l 1111 1319 l 1042 1319 l 1042 1250 l 1111 1250 m 0 0 l 0 1042 l 139 1042 l 139 1111 l 0 1111 l 0 1389 l 70 1389 l 70 1319 l 139 1319 l 139 1389 l 347 1389 l 347 1319 l 416 1319 l 416 1389 l 556 1389 l 556 1250 l 625 1250 l 625 1319 l 694 1319 l 694 1389 l 764 1389 l 764 1250 l 694 1250 l 694 1180 l 833 1180 l 833 1389 l 972 1389 l 972 1319 l 1042 1319 l 1042 1389 l 1111 1389 l 1111 1319 l 1180 1319 l 1180 1389 l 1250 1389 l 1250 1250 l 1111 1250 l 1111 1180 l 1250 1180 l 1250 1111 l 1042 1111 l 1042 1250 l 972 1250 l 972 1111 l 694 1111 l 694 1180 l 625 1180 l 625 1111 l 555 1111 l 555 1180 l 486 1180 l 486 1111 l 416 1111 l 416 1180 l 347 1180 l 347 1111 l 278 1111 l 278 764 l 209 764 l 209 694 l 278 694 l 278 416 l 209 416 l 209 347 l 278 347 l 278 0 l 0 0 z "},"s":{"ha":1597,"x_min":0,"x_max":1389,"o":"m 694 69 l 694 139 l 625 139 l 625 69 l 694 69 m 903 139 l 903 208 l 764 208 l 764 139 l 903 139 m 1319 69 l 1319 208 l 1250 208 l 1250 69 l 1319 69 m 1319 278 l 1319 347 l 1250 347 l 1250 416 l 1181 416 l 1181 278 l 1319 278 m 1250 555 l 1250 625 l 1181 625 l 1181 555 l 1250 555 m 1042 625 l 1042 694 l 972 694 l 972 625 l 1042 625 m 1319 625 l 1319 694 l 1250 694 l 1250 625 l 1319 625 m 139 694 l 139 764 l 70 764 l 70 694 l 139 694 m 486 625 l 486 764 l 417 764 l 417 625 l 486 625 m 694 694 l 694 764 l 625 764 l 625 694 l 694 694 m 903 625 l 903 694 l 833 694 l 833 764 l 764 764 l 764 625 l 903 625 m 1180 694 l 1180 764 l 1111 764 l 1111 694 l 1180 694 m 208 833 l 208 903 l 139 903 l 139 972 l 70 972 l 70 833 l 208 833 m 139 1042 l 139 1111 l 70 1111 l 70 1042 l 139 1042 m 208 1180 l 208 1250 l 139 1250 l 139 1180 l 208 1180 m 833 1180 l 833 1250 l 694 1250 l 694 1180 l 833 1180 m 416 1250 l 416 1319 l 278 1319 l 278 1250 l 416 1250 m 1180 1180 l 1180 1250 l 1111 1250 l 1111 1319 l 1042 1319 l 1042 1180 l 1180 1180 m 1319 1250 l 1319 1319 l 1389 1319 l 1389 1250 l 1319 1250 m 0 0 l 0 278 l 209 278 l 209 208 l 278 208 l 278 278 l 417 278 l 417 69 l 486 69 l 486 278 l 1042 278 l 1042 208 l 1111 208 l 1111 625 l 1042 625 l 1042 555 l 278 555 l 278 625 l 209 625 l 209 555 l 0 555 l 0 1389 l 70 1389 l 70 1319 l 139 1319 l 139 1389 l 417 1389 l 417 1319 l 486 1319 l 486 1389 l 556 1389 l 556 1319 l 486 1319 l 486 1250 l 556 1250 l 556 1180 l 625 1180 l 625 1250 l 694 1250 l 694 1319 l 625 1319 l 625 1389 l 694 1389 l 694 1319 l 833 1319 l 833 1389 l 903 1389 l 903 1319 l 833 1319 l 833 1250 l 903 1250 l 903 1180 l 972 1180 l 972 1319 l 1042 1319 l 1042 1389 l 1111 1389 l 1111 1319 l 1180 1319 l 1180 1389 l 1250 1389 l 1250 1319 l 1181 1319 l 1181 1250 l 1250 1250 l 1250 1111 l 1042 1111 l 1042 1180 l 972 1180 l 972 1111 l 903 1111 l 903 1180 l 833 1180 l 833 1111 l 555 1111 l 555 1180 l 486 1180 l 486 1111 l 347 1111 l 347 1180 l 209 1180 l 209 1111 l 278 1111 l 278 972 l 209 972 l 209 903 l 278 903 l 278 694 l 347 694 l 347 833 l 972 833 l 972 764 l 1042 764 l 1042 833 l 1181 833 l 1181 764 l 1250 764 l 1250 833 l 1319 833 l 1319 764 l 1389 764 l 1389 625 l 1319 625 l 1319 555 l 1389 555 l 1389 486 l 1250 486 l 1250 416 l 1389 416 l 1389 0 l 1111 0 l 1111 69 l 1042 69 l 1042 0 l 972 0 l 972 69 l 833 69 l 833 0 l 0 0 z "},"t":{"ha":1597,"x_min":0,"x_max":1389,"o":"m 764 139 l 764 208 l 694 208 l 694 139 l 764 139 m 764 347 l 764 416 l 694 416 l 694 347 l 764 347 m 694 555 l 694 625 l 625 625 l 625 555 l 694 555 m 764 625 l 764 694 l 694 694 l 694 625 l 764 625 m 764 833 l 764 903 l 694 903 l 694 833 l 764 833 m 694 1042 l 694 1180 l 625 1180 l 625 1042 l 694 1042 m 139 1180 l 139 1250 l 70 1250 l 70 1180 l 139 1180 m 833 1180 l 833 1250 l 764 1250 l 764 1180 l 833 1180 m 1111 1180 l 1111 1250 l 1042 1250 l 1042 1180 l 1111 1180 m 278 1250 l 278 1319 l 209 1319 l 209 1250 l 278 1250 m 903 1250 l 903 1319 l 833 1319 l 833 1250 l 903 1250 m 1319 1250 l 1319 1319 l 1250 1319 l 1250 1250 l 1319 1250 m 555 0 l 555 347 l 625 347 l 625 416 l 555 416 l 555 1111 l 416 1111 l 416 1250 l 347 1250 l 347 1111 l 0 1111 l 0 1389 l 70 1389 l 70 1319 l 139 1319 l 139 1389 l 347 1389 l 347 1319 l 416 1319 l 416 1389 l 486 1389 l 486 1319 l 556 1319 l 556 1250 l 486 1250 l 486 1180 l 625 1180 l 625 1250 l 694 1250 l 694 1319 l 625 1319 l 625 1389 l 764 1389 l 764 1319 l 833 1319 l 833 1389 l 903 1389 l 903 1319 l 972 1319 l 972 1250 l 1042 1250 l 1042 1389 l 1111 1389 l 1111 1250 l 1180 1250 l 1180 1319 l 1250 1319 l 1250 1389 l 1319 1389 l 1319 1319 l 1389 1319 l 1389 1250 l 1319 1250 l 1319 1180 l 1389 1180 l 1389 1111 l 1250 1111 l 1250 1250 l 1181 1250 l 1181 1111 l 1042 1111 l 1042 1180 l 972 1180 l 972 1250 l 903 1250 l 903 1111 l 833 1111 l 833 1042 l 694 1042 l 694 972 l 833 972 l 833 555 l 764 555 l 764 486 l 833 486 l 833 0 l 694 0 l 694 69 l 625 69 l 625 0 l 555 0 z "},"u":{"ha":1597,"x_min":0,"x_max":1389,"o":"m 278 69 l 278 139 l 209 139 l 209 69 l 278 69 m 486 139 l 486 208 l 347 208 l 347 139 l 486 139 m 764 69 l 764 208 l 694 208 l 694 69 l 764 69 m 903 139 l 903 208 l 833 208 l 833 139 l 903 139 m 1111 69 l 1111 139 l 1180 139 l 1180 208 l 1042 208 l 1042 69 l 1111 69 m 278 208 l 278 278 l 209 278 l 209 208 l 278 208 m 1250 208 l 1250 278 l 1181 278 l 1181 208 l 1250 208 m 139 347 l 139 416 l 70 416 l 70 347 l 139 347 m 1250 347 l 1250 416 l 1181 416 l 1181 347 l 1250 347 m 139 486 l 139 555 l 70 555 l 70 486 l 139 486 m 208 694 l 208 764 l 139 764 l 139 694 l 208 694 m 139 764 l 139 833 l 70 833 l 70 764 l 139 764 m 1319 694 l 1319 833 l 1250 833 l 1250 694 l 1319 694 m 1319 486 l 1319 625 l 1250 625 l 1250 694 l 1180 694 l 1180 764 l 1111 764 l 1111 903 l 1181 903 l 1181 833 l 1250 833 l 1250 903 l 1319 903 l 1319 833 l 1389 833 l 1389 694 l 1319 694 l 1319 625 l 1389 625 l 1389 486 l 1319 486 m 208 903 l 208 972 l 139 972 l 139 903 l 208 903 m 139 972 l 139 1042 l 70 1042 l 70 972 l 139 972 m 208 1042 l 208 1111 l 139 1111 l 139 1042 l 208 1042 m 1111 972 l 1111 1111 l 1181 1111 l 1181 972 l 1111 972 m 1319 1042 l 1319 1111 l 1250 1111 l 1250 1180 l 1180 1180 l 1180 1250 l 1250 1250 l 1250 1180 l 1319 1180 l 1319 1111 l 1389 1111 l 1389 1042 l 1319 1042 m 1319 1250 l 1319 1319 l 1389 1319 l 1389 1250 l 1319 1250 m 0 0 l 0 1111 l 69 1111 l 69 1180 l 0 1180 l 0 1319 l 69 1319 l 69 1389 l 139 1389 l 139 1319 l 278 1319 l 278 1250 l 139 1250 l 139 1180 l 209 1180 l 209 1111 l 278 1111 l 278 833 l 209 833 l 209 764 l 278 764 l 278 694 l 209 694 l 209 625 l 278 625 l 278 555 l 209 555 l 209 486 l 278 486 l 278 278 l 625 278 l 625 208 l 694 208 l 694 278 l 1111 278 l 1111 486 l 1180 486 l 1180 555 l 1111 555 l 1111 625 l 1181 625 l 1181 555 l 1250 555 l 1250 416 l 1389 416 l 1389 347 l 1319 347 l 1319 278 l 1389 278 l 1389 208 l 1319 208 l 1319 139 l 1389 139 l 1389 0 l 1319 0 l 1319 69 l 1250 69 l 1250 0 l 972 0 l 972 69 l 903 69 l 903 0 l 625 0 l 625 139 l 556 139 l 556 0 l 347 0 l 347 69 l 278 69 l 278 0 l 0 0 m 1111 1319 l 1111 1389 l 1181 1389 l 1181 1319 l 1111 1319 z "},"v":{"ha":1597,"x_min":0,"x_max":1389,"o":"m 694 69 l 694 139 l 625 139 l 625 69 l 694 69 m 764 139 l 764 208 l 694 208 l 694 139 l 764 139 m 555 0 l 555 278 l 764 278 l 764 208 l 833 208 l 833 0 l 555 0 m 972 347 l 972 416 l 903 416 l 903 347 l 972 347 m 486 416 l 486 486 l 417 486 l 417 416 l 486 416 m 833 278 l 833 486 l 903 486 l 903 555 l 972 555 l 972 416 l 1042 416 l 1042 486 l 1111 486 l 1111 416 l 1042 416 l 1042 347 l 1111 347 l 1111 278 l 1042 278 l 1042 347 l 972 347 l 972 278 l 833 278 m 208 625 l 208 694 l 139 694 l 139 625 l 208 625 m 139 764 l 139 903 l 70 903 l 70 764 l 139 764 m 1111 555 l 1111 694 l 1250 694 l 1250 833 l 1181 833 l 1181 764 l 1111 764 l 1111 903 l 1180 903 l 1180 972 l 1250 972 l 1250 833 l 1319 833 l 1319 903 l 1389 903 l 1389 833 l 1319 833 l 1319 625 l 1389 625 l 1389 555 l 1250 555 l 1250 625 l 1181 625 l 1181 555 l 1111 555 m 208 1042 l 208 1111 l 139 1111 l 139 1042 l 208 1042 m 1250 1111 l 1250 1180 l 1181 1180 l 1181 1111 l 1250 1111 m 1319 972 l 1319 1042 l 1111 1042 l 1111 1250 l 1250 1250 l 1250 1180 l 1319 1180 l 1319 1250 l 1389 1250 l 1389 1180 l 1319 1180 l 1319 1111 l 1389 1111 l 1389 972 l 1319 972 m 139 1250 l 139 1319 l 70 1319 l 70 1250 l 139 1250 m 278 278 l 278 347 l 347 347 l 347 416 l 278 416 l 278 555 l 0 555 l 0 972 l 69 972 l 69 1042 l 0 1042 l 0 1389 l 139 1389 l 139 1319 l 208 1319 l 208 1389 l 278 1389 l 278 1250 l 209 1250 l 209 1180 l 278 1180 l 278 1042 l 209 1042 l 209 972 l 278 972 l 278 833 l 209 833 l 209 764 l 278 764 l 278 555 l 347 555 l 347 486 l 416 486 l 416 555 l 556 555 l 556 347 l 486 347 l 486 278 l 278 278 m 1111 1319 l 1111 1389 l 1181 1389 l 1181 1319 l 1111 1319 z "},"w":{"ha":1597,"x_min":0,"x_max":1389,"o":"m 833 69 l 833 139 l 764 139 l 764 69 l 833 69 m 1250 69 l 1250 139 l 1181 139 l 1181 69 l 1250 69 m 278 139 l 278 208 l 209 208 l 209 139 l 278 139 m 555 69 l 555 208 l 486 208 l 486 69 l 555 69 m 694 139 l 694 208 l 625 208 l 625 139 l 694 139 m 1180 208 l 1180 278 l 1111 278 l 1111 208 l 1180 208 m 764 278 l 764 347 l 694 347 l 694 278 l 764 278 m 694 347 l 694 416 l 625 416 l 625 347 l 694 347 m 1319 347 l 1319 416 l 1389 416 l 1389 347 l 1319 347 m 139 486 l 139 555 l 70 555 l 70 486 l 139 486 m 139 625 l 139 694 l 70 694 l 70 625 l 139 625 m 764 625 l 764 694 l 694 694 l 694 625 l 764 625 m 1111 486 l 1111 555 l 1180 555 l 1180 625 l 1319 625 l 1319 764 l 1389 764 l 1389 625 l 1319 625 l 1319 555 l 1389 555 l 1389 486 l 1319 486 l 1319 555 l 1250 555 l 1250 486 l 1111 486 m 208 833 l 208 903 l 139 903 l 139 972 l 70 972 l 70 833 l 208 833 m 1319 972 l 1319 1042 l 1389 1042 l 1389 972 l 1319 972 m 139 1042 l 139 1111 l 70 1111 l 70 1042 l 139 1042 m 764 833 l 764 972 l 694 972 l 694 1042 l 764 1042 l 764 1180 l 694 1180 l 694 1111 l 625 1111 l 625 903 l 694 903 l 694 833 l 764 833 m 1250 1111 l 1250 1180 l 1181 1180 l 1181 1111 l 1250 1111 m 208 1111 l 208 1250 l 139 1250 l 139 1111 l 208 1111 m 139 1250 l 139 1319 l 70 1319 l 70 1250 l 139 1250 m 1180 694 l 1180 764 l 1111 764 l 1111 833 l 1180 833 l 1180 972 l 1111 972 l 1111 1042 l 1180 1042 l 1180 1111 l 1111 1111 l 1111 1319 l 1181 1319 l 1181 1250 l 1250 1250 l 1250 1180 l 1319 1180 l 1319 1111 l 1250 1111 l 1250 1042 l 1181 1042 l 1181 972 l 1250 972 l 1250 833 l 1181 833 l 1181 764 l 1250 764 l 1250 694 l 1180 694 m 0 0 l 0 1389 l 139 1389 l 139 1319 l 208 1319 l 208 1389 l 278 1389 l 278 1319 l 209 1319 l 209 1250 l 278 1250 l 278 972 l 209 972 l 209 903 l 278 903 l 278 764 l 209 764 l 209 625 l 278 625 l 278 347 l 139 347 l 139 278 l 625 278 l 625 347 l 555 347 l 555 694 l 694 694 l 694 764 l 555 764 l 555 1250 l 625 1250 l 625 1180 l 694 1180 l 694 1319 l 555 1319 l 555 1389 l 694 1389 l 694 1319 l 764 1319 l 764 1250 l 833 1250 l 833 833 l 764 833 l 764 764 l 833 764 l 833 555 l 625 555 l 625 486 l 694 486 l 694 416 l 764 416 l 764 486 l 833 486 l 833 278 l 903 278 l 903 139 l 1042 139 l 1042 278 l 1111 278 l 1111 416 l 1181 416 l 1181 347 l 1250 347 l 1250 208 l 1319 208 l 1319 278 l 1389 278 l 1389 139 l 1319 139 l 1319 69 l 1389 69 l 1389 0 l 1319 0 l 1319 69 l 1250 69 l 1250 0 l 0 0 m 1319 1250 l 1319 1319 l 1250 1319 l 1250 1389 l 1319 1389 l 1319 1319 l 1389 1319 l 1389 1250 l 1319 1250 z "},"x":{"ha":1597,"x_min":0,"x_max":1389,"o":"m 139 139 l 139 208 l 70 208 l 70 139 l 139 139 m 486 347 l 486 416 l 417 416 l 417 347 l 486 347 m 694 625 l 694 694 l 625 694 l 625 625 l 694 625 m 1042 833 l 1042 903 l 1111 903 l 1111 833 l 1042 833 m 416 903 l 416 972 l 347 972 l 347 903 l 416 903 m 1319 1111 l 1319 1180 l 1389 1180 l 1389 1111 l 1319 1111 m 764 764 l 764 833 l 833 833 l 833 903 l 903 903 l 903 972 l 833 972 l 833 1111 l 903 1111 l 903 972 l 972 972 l 972 1042 l 1042 1042 l 1042 1111 l 1111 1111 l 1111 1180 l 1180 1180 l 1180 1250 l 1250 1250 l 1250 1111 l 1111 1111 l 1111 1042 l 1042 1042 l 1042 972 l 972 972 l 972 833 l 833 833 l 833 764 l 764 764 m 139 1250 l 139 1319 l 70 1319 l 70 1250 l 139 1250 m 0 0 l 0 278 l 278 278 l 278 555 l 417 555 l 417 486 l 486 486 l 486 555 l 555 555 l 555 833 l 278 833 l 278 1111 l 208 1111 l 208 1180 l 139 1180 l 139 1111 l 69 1111 l 69 1180 l 0 1180 l 0 1389 l 139 1389 l 139 1319 l 208 1319 l 208 1389 l 278 1389 l 278 1319 l 209 1319 l 209 1250 l 278 1250 l 278 1111 l 347 1111 l 347 1042 l 416 1042 l 416 1111 l 486 1111 l 486 1042 l 556 1042 l 556 972 l 486 972 l 486 903 l 556 903 l 556 833 l 694 833 l 694 694 l 833 694 l 833 555 l 903 555 l 903 486 l 972 486 l 972 555 l 1111 555 l 1111 416 l 1042 416 l 1042 486 l 972 486 l 972 416 l 903 416 l 903 347 l 1111 347 l 1111 278 l 1250 278 l 1250 139 l 1319 139 l 1319 208 l 1389 208 l 1389 139 l 1319 139 l 1319 69 l 1389 69 l 1389 0 l 1250 0 l 1250 139 l 1181 139 l 1181 0 l 1111 0 l 1111 278 l 833 278 l 833 555 l 556 555 l 556 278 l 278 278 l 278 0 l 0 0 m 1111 1319 l 1111 1389 l 1181 1389 l 1181 1319 l 1111 1319 m 1319 1250 l 1319 1319 l 1250 1319 l 1250 1389 l 1389 1389 l 1389 1250 l 1319 1250 z "},"y":{"ha":1597,"x_min":0,"x_max":1389,"o":"m 416 69 l 416 139 l 278 139 l 278 69 l 416 69 m 694 69 l 694 139 l 625 139 l 625 69 l 694 69 m 833 69 l 833 139 l 764 139 l 764 69 l 833 69 m 1111 69 l 1111 139 l 1042 139 l 1042 69 l 1111 69 m 625 139 l 625 208 l 556 208 l 556 139 l 625 139 m 972 139 l 972 208 l 903 208 l 903 139 l 972 139 m 1250 139 l 1250 208 l 1111 208 l 1111 139 l 1250 139 m 1319 278 l 1319 347 l 1181 347 l 1181 278 l 1319 278 m 1250 416 l 1250 486 l 1181 486 l 1181 416 l 1250 416 m 972 555 l 972 625 l 1042 625 l 1042 555 l 972 555 m 278 625 l 278 694 l 209 694 l 209 625 l 278 625 m 139 694 l 139 764 l 70 764 l 70 694 l 139 694 m 764 625 l 764 764 l 625 764 l 625 694 l 694 694 l 694 625 l 764 625 m 208 764 l 208 833 l 139 833 l 139 764 l 208 764 m 1319 903 l 1319 972 l 1250 972 l 1250 903 l 1319 903 m 208 1042 l 208 1180 l 70 1180 l 70 1111 l 139 1111 l 139 1042 l 208 1042 m 1111 1111 l 1111 1180 l 1181 1180 l 1181 1111 l 1111 1111 m 208 1250 l 208 1319 l 139 1319 l 139 1250 l 208 1250 m 0 0 l 0 278 l 209 278 l 209 208 l 278 208 l 278 278 l 1111 278 l 1111 694 l 1042 694 l 1042 764 l 972 764 l 972 694 l 903 694 l 903 555 l 833 555 l 833 625 l 764 625 l 764 555 l 694 555 l 694 625 l 556 625 l 556 555 l 347 555 l 347 625 l 278 625 l 278 555 l 0 555 l 0 833 l 69 833 l 69 903 l 0 903 l 0 1389 l 209 1389 l 209 1319 l 278 1319 l 278 903 l 209 903 l 209 833 l 486 833 l 486 764 l 347 764 l 347 625 l 416 625 l 416 694 l 486 694 l 486 625 l 555 625 l 555 764 l 625 764 l 625 833 l 764 833 l 764 764 l 903 764 l 903 833 l 1042 833 l 1042 764 l 1111 764 l 1111 694 l 1180 694 l 1180 764 l 1250 764 l 1250 833 l 1111 833 l 1111 903 l 1180 903 l 1180 1042 l 1250 1042 l 1250 1111 l 1319 1111 l 1319 1180 l 1389 1180 l 1389 1111 l 1319 1111 l 1319 972 l 1389 972 l 1389 903 l 1319 903 l 1319 694 l 1181 694 l 1181 555 l 1250 555 l 1250 486 l 1319 486 l 1319 555 l 1389 555 l 1389 416 l 1319 416 l 1319 347 l 1389 347 l 1389 278 l 1319 278 l 1319 208 l 1389 208 l 1389 0 l 972 0 l 972 69 l 903 69 l 903 0 l 0 0 m 1111 1319 l 1111 1389 l 1181 1389 l 1181 1319 l 1111 1319 m 1319 1250 l 1319 1319 l 1250 1319 l 1250 1389 l 1319 1389 l 1319 1319 l 1389 1319 l 1389 1250 l 1319 1250 z "},"z":{"ha":1597,"x_min":0,"x_max":1389,"o":"m 903 69 l 903 139 l 833 139 l 833 69 l 903 69 m 278 139 l 278 208 l 209 208 l 209 139 l 278 139 m 625 139 l 625 208 l 556 208 l 556 139 l 625 139 m 764 139 l 764 208 l 694 208 l 694 139 l 764 139 m 1180 139 l 1180 208 l 1111 208 l 1111 139 l 1180 139 m 486 208 l 486 278 l 417 278 l 417 208 l 486 208 m 486 347 l 486 416 l 417 416 l 417 347 l 486 347 m 416 416 l 416 486 l 347 486 l 347 416 l 416 416 m 0 0 l 0 278 l 278 278 l 278 555 l 486 555 l 486 486 l 556 486 l 556 278 l 833 278 l 833 208 l 903 208 l 903 278 l 1250 278 l 1250 208 l 1319 208 l 1319 278 l 1389 278 l 1389 139 l 1319 139 l 1319 69 l 1389 69 l 1389 0 l 1180 0 l 1180 69 l 1111 69 l 1111 0 l 555 0 l 555 69 l 486 69 l 486 0 l 0 0 m 694 694 l 694 764 l 625 764 l 625 694 l 694 694 m 972 903 l 972 972 l 903 972 l 903 903 l 972 903 m 208 1180 l 208 1250 l 139 1250 l 139 1180 l 208 1180 m 416 1180 l 416 1250 l 347 1250 l 347 1180 l 416 1180 m 555 1180 l 555 1250 l 486 1250 l 486 1180 l 555 1180 m 1319 1180 l 1319 1250 l 1250 1250 l 1250 1180 l 1319 1180 m 278 1250 l 278 1319 l 209 1319 l 209 1250 l 278 1250 m 486 1250 l 486 1319 l 417 1319 l 417 1250 l 486 1250 m 625 1250 l 625 1319 l 556 1319 l 556 1250 l 625 1250 m 555 555 l 555 625 l 625 625 l 625 694 l 555 694 l 555 833 l 833 833 l 833 972 l 903 972 l 903 1042 l 833 1042 l 833 1111 l 0 1111 l 0 1389 l 70 1389 l 70 1319 l 139 1319 l 139 1389 l 347 1389 l 347 1319 l 416 1319 l 416 1389 l 694 1389 l 694 1180 l 833 1180 l 833 1319 l 764 1319 l 764 1389 l 903 1389 l 903 1319 l 972 1319 l 972 1250 l 1042 1250 l 1042 1180 l 972 1180 l 972 1042 l 1042 1042 l 1042 1111 l 1111 1111 l 1111 1042 l 1042 1042 l 1042 972 l 1111 972 l 1111 833 l 833 833 l 833 764 l 764 764 l 764 694 l 833 694 l 833 555 l 764 555 l 764 625 l 694 625 l 694 555 l 555 555 m 1180 1111 l 1180 1250 l 1250 1250 l 1250 1319 l 1111 1319 l 1111 1389 l 1250 1389 l 1250 1319 l 1319 1319 l 1319 1250 l 1389 1250 l 1389 1111 l 1180 1111 z "},"{":{"ha":1041,"x_min":0,"x_max":833,"o":"m 625 -208 l 625 -139 l 556 -139 l 556 -208 l 625 -208 m 486 -69 l 486 0 l 417 0 l 417 -69 l 486 -69 m 486 139 l 486 208 l 417 208 l 417 139 l 486 139 m 486 347 l 486 416 l 417 416 l 417 347 l 486 347 m 278 625 l 278 694 l 209 694 l 209 625 l 278 625 m 139 694 l 139 764 l 70 764 l 70 694 l 139 694 m 347 694 l 347 764 l 278 764 l 278 694 l 347 694 m 486 903 l 486 972 l 417 972 l 417 903 l 486 903 m 416 972 l 416 1042 l 347 1042 l 347 972 l 416 972 m 764 1389 l 764 1458 l 833 1458 l 833 1389 l 764 1389 m 416 1319 l 416 1389 l 486 1389 l 486 1528 l 417 1528 l 417 1458 l 347 1458 l 347 1319 l 416 1319 m 278 -278 l 278 -208 l 347 -208 l 347 -139 l 278 -139 l 278 555 l 0 555 l 0 833 l 278 833 l 278 1667 l 347 1667 l 347 1528 l 416 1528 l 416 1597 l 486 1597 l 486 1667 l 625 1667 l 625 1597 l 556 1597 l 556 1458 l 694 1458 l 694 1389 l 556 1389 l 556 1319 l 486 1319 l 486 1250 l 417 1250 l 417 1180 l 347 1180 l 347 1111 l 417 1111 l 417 1042 l 486 1042 l 486 1180 l 556 1180 l 556 1042 l 486 1042 l 486 972 l 556 972 l 556 764 l 486 764 l 486 833 l 417 833 l 417 555 l 486 555 l 486 694 l 556 694 l 556 0 l 833 0 l 833 -139 l 764 -139 l 764 -208 l 833 -208 l 833 -278 l 278 -278 m 694 1528 l 694 1597 l 764 1597 l 764 1667 l 833 1667 l 833 1597 l 764 1597 l 764 1528 l 694 1528 z "},"|":{"ha":486,"x_min":0,"x_max":278,"o":"m 208 -208 l 208 -139 l 139 -139 l 139 -208 l 208 -208 m 139 -139 l 139 -69 l 208 -69 l 208 0 l 70 0 l 70 -139 l 139 -139 m 208 139 l 208 347 l 139 347 l 139 278 l 70 278 l 70 208 l 139 208 l 139 139 l 208 139 m 139 416 l 139 486 l 70 486 l 70 416 l 139 416 m 139 694 l 139 833 l 70 833 l 70 694 l 139 694 m 0 -278 l 0 1458 l 139 1458 l 139 1528 l 278 1528 l 278 1458 l 209 1458 l 209 1389 l 70 1389 l 70 1250 l 208 1250 l 208 1319 l 278 1319 l 278 1180 l 209 1180 l 209 1111 l 70 1111 l 70 1042 l 278 1042 l 278 903 l 209 903 l 209 833 l 278 833 l 278 625 l 209 625 l 209 486 l 278 486 l 278 -278 l 0 -278 m 0 1597 l 0 1667 l 70 1667 l 70 1597 l 0 1597 m 139 1597 l 139 1667 l 278 1667 l 278 1597 l 139 1597 z "},"}":{"ha":1041,"x_min":0,"x_max":833,"o":"m 347 -208 l 347 -139 l 278 -139 l 278 -208 l 347 -208 m 486 -208 l 486 -139 l 417 -139 l 417 -208 l 486 -208 m 278 -139 l 278 -69 l 209 -69 l 209 -139 l 278 -139 m 416 139 l 416 208 l 347 208 l 347 139 l 416 139 m 416 347 l 416 416 l 347 416 l 347 347 l 416 347 m 764 764 l 764 833 l 833 833 l 833 764 l 764 764 m 486 694 l 486 903 l 347 903 l 347 833 l 417 833 l 417 694 l 486 694 m 486 1042 l 486 1180 l 556 1180 l 556 1042 l 486 1042 m 486 1319 l 486 1389 l 556 1389 l 556 1319 l 486 1319 m 0 -278 l 0 0 l 278 0 l 278 1389 l 347 1389 l 347 1458 l 417 1458 l 417 1319 l 347 1319 l 347 1180 l 417 1180 l 417 1042 l 347 1042 l 347 972 l 556 972 l 556 833 l 625 833 l 625 764 l 556 764 l 556 694 l 625 694 l 625 625 l 694 625 l 694 694 l 833 694 l 833 555 l 764 555 l 764 625 l 694 625 l 694 555 l 486 555 l 486 486 l 556 486 l 556 139 l 417 139 l 417 69 l 556 69 l 556 -278 l 0 -278 m 0 1389 l 0 1667 l 70 1667 l 70 1597 l 139 1597 l 139 1528 l 278 1528 l 278 1667 l 347 1667 l 347 1528 l 278 1528 l 278 1458 l 209 1458 l 209 1389 l 0 1389 m 486 1458 l 486 1528 l 416 1528 l 416 1667 l 556 1667 l 556 1597 l 486 1597 l 486 1528 l 556 1528 l 556 1458 l 486 1458 z "},"~":{"ha":1597,"x_min":0,"x_max":1389,"o":"m 139 694 l 139 764 l 70 764 l 70 694 l 139 694 m 1319 694 l 1319 833 l 1181 833 l 1181 694 l 1319 694 m 139 903 l 139 972 l 70 972 l 70 903 l 139 903 m 347 972 l 347 1042 l 278 1042 l 278 972 l 347 972 m 694 972 l 694 1111 l 833 1111 l 833 1042 l 764 1042 l 764 972 l 694 972 m 1111 1042 l 1111 1111 l 1181 1111 l 1181 1042 l 1111 1042 m 0 555 l 0 1111 l 347 1111 l 347 1042 l 416 1042 l 416 1111 l 625 1111 l 625 833 l 694 833 l 694 764 l 764 764 l 764 833 l 833 833 l 833 764 l 764 764 l 764 694 l 1111 694 l 1111 764 l 972 764 l 972 833 l 1111 833 l 1111 903 l 1250 903 l 1250 1111 l 1389 1111 l 1389 1042 l 1319 1042 l 1319 833 l 1389 833 l 1389 694 l 1319 694 l 1319 625 l 1389 625 l 1389 555 l 1180 555 l 1180 625 l 1111 625 l 1111 555 l 972 555 l 972 625 l 833 625 l 833 555 l 555 555 l 555 694 l 694 694 l 694 764 l 555 764 l 555 833 l 486 833 l 486 903 l 417 903 l 417 833 l 278 833 l 278 903 l 209 903 l 209 764 l 278 764 l 278 555 l 0 555 z "},"":{"ha":486,"x_min":0,"x_max":278,"o":"m 139 139 l 139 208 l 70 208 l 70 139 l 139 139 m 208 208 l 208 347 l 139 347 l 139 208 l 208 208 m 208 416 l 208 486 l 139 486 l 139 416 l 208 416 m 139 625 l 139 694 l 70 694 l 70 625 l 139 625 m 0 0 l 0 347 l 69 347 l 69 416 l 0 416 l 0 833 l 139 833 l 139 764 l 208 764 l 208 833 l 278 833 l 278 764 l 209 764 l 209 694 l 278 694 l 278 625 l 209 625 l 209 555 l 278 555 l 278 139 l 209 139 l 209 69 l 278 69 l 278 0 l 0 0 m 0 1111 l 0 1389 l 70 1389 l 70 1250 l 139 1250 l 139 1319 l 278 1319 l 278 1250 l 139 1250 l 139 1180 l 278 1180 l 278 1111 l 0 1111 z "},"":{"ha":1597,"x_min":0,"x_max":1389,"o":"m 694 0 l 694 69 l 625 69 l 625 0 l 694 0 m 764 69 l 764 139 l 694 139 l 694 69 l 764 69 m 903 69 l 903 139 l 833 139 l 833 69 l 903 69 m 1042 69 l 1042 139 l 972 139 l 972 69 l 1042 69 m 833 139 l 833 208 l 764 208 l 764 139 l 833 139 m 1250 139 l 1250 208 l 1181 208 l 1181 139 l 1250 139 m 208 625 l 208 694 l 139 694 l 139 625 l 208 625 m 139 833 l 139 903 l 70 903 l 70 833 l 139 833 m 208 972 l 208 1042 l 139 1042 l 139 972 l 208 972 m 139 1042 l 139 1111 l 70 1111 l 70 1042 l 139 1042 m 555 208 l 555 625 l 625 625 l 625 555 l 694 555 l 694 694 l 555 694 l 555 833 l 625 833 l 625 903 l 555 903 l 555 1042 l 625 1042 l 625 972 l 694 972 l 694 1180 l 625 1180 l 625 1111 l 347 1111 l 347 1180 l 278 1180 l 278 972 l 209 972 l 209 903 l 278 903 l 278 833 l 209 833 l 209 764 l 278 764 l 278 278 l 486 278 l 486 208 l 555 208 m 903 1111 l 903 1180 l 972 1180 l 972 1111 l 903 1111 m 278 1180 l 278 1250 l 209 1250 l 209 1180 l 278 1180 m 764 1180 l 764 1250 l 694 1250 l 694 1180 l 764 1180 m 625 1180 l 625 1250 l 555 1250 l 555 1319 l 486 1319 l 486 1180 l 625 1180 m 1042 1111 l 1042 1250 l 1111 1250 l 1111 1180 l 1180 1180 l 1180 1250 l 1250 1250 l 1250 1319 l 1389 1319 l 1389 1250 l 1250 1250 l 1250 1180 l 1181 1180 l 1181 1111 l 1042 1111 m 694 1250 l 694 1389 l 625 1389 l 625 1250 l 694 1250 m 1111 1319 l 1111 1389 l 1181 1389 l 1181 1319 l 1111 1319 m 555 -278 l 555 0 l 0 0 l 0 972 l 69 972 l 69 1042 l 0 1042 l 0 1250 l 69 1250 l 69 1319 l 0 1319 l 0 1389 l 278 1389 l 278 1319 l 347 1319 l 347 1389 l 555 1389 l 555 1667 l 625 1667 l 625 1597 l 764 1597 l 764 1667 l 833 1667 l 833 1528 l 694 1528 l 694 1389 l 764 1389 l 764 1458 l 833 1458 l 833 1389 l 972 1389 l 972 1250 l 903 1250 l 903 1319 l 833 1319 l 833 1389 l 764 1389 l 764 1250 l 833 1250 l 833 1180 l 764 1180 l 764 1111 l 833 1111 l 833 972 l 694 972 l 694 903 l 833 903 l 833 833 l 694 833 l 694 694 l 764 694 l 764 555 l 833 555 l 833 416 l 764 416 l 764 347 l 833 347 l 833 278 l 903 278 l 903 139 l 972 139 l 972 278 l 1111 278 l 1111 208 l 1180 208 l 1180 278 l 1250 278 l 1250 208 l 1319 208 l 1319 139 l 1250 139 l 1250 69 l 1389 69 l 1389 0 l 1250 0 l 1250 69 l 1181 69 l 1181 0 l 833 0 l 833 -69 l 764 -69 l 764 -139 l 833 -139 l 833 -278 l 555 -278 z "},"":{"ha":1597,"x_min":0,"x_max":1389,"o":"m 278 69 l 278 139 l 209 139 l 209 69 l 278 69 m 625 69 l 625 139 l 486 139 l 486 69 l 625 69 m 903 69 l 903 139 l 833 139 l 833 69 l 903 69 m 139 139 l 139 208 l 70 208 l 70 139 l 139 139 m 1042 139 l 1042 208 l 972 208 l 972 139 l 1042 139 m 555 208 l 555 278 l 486 278 l 486 208 l 555 208 m 486 972 l 486 1042 l 417 1042 l 417 972 l 486 972 m 694 972 l 694 1042 l 556 1042 l 556 972 l 694 972 m 555 1042 l 555 1111 l 486 1111 l 486 1042 l 555 1042 m 486 1111 l 486 1180 l 417 1180 l 417 1111 l 486 1111 m 486 1250 l 486 1319 l 417 1319 l 417 1250 l 486 1250 m 1111 1111 l 1111 1319 l 1181 1319 l 1181 1250 l 1389 1250 l 1389 1111 l 1319 1111 l 1319 1180 l 1250 1180 l 1250 1111 l 1111 1111 m 1319 1319 l 1319 1389 l 1389 1389 l 1389 1319 l 1319 1319 m 486 1458 l 486 1528 l 417 1528 l 417 1458 l 486 1458 m 764 1528 l 764 1597 l 625 1597 l 625 1528 l 764 1528 m 0 0 l 0 278 l 278 278 l 278 764 l 347 764 l 347 833 l 0 833 l 0 1111 l 70 1111 l 70 1042 l 139 1042 l 139 1111 l 278 1111 l 278 1250 l 347 1250 l 347 1319 l 278 1319 l 278 1667 l 486 1667 l 486 1597 l 555 1597 l 555 1667 l 833 1667 l 833 1597 l 903 1597 l 903 1528 l 833 1528 l 833 1389 l 764 1389 l 764 1458 l 694 1458 l 694 1389 l 625 1389 l 625 1458 l 556 1458 l 556 1111 l 833 1111 l 833 1042 l 764 1042 l 764 972 l 694 972 l 694 903 l 833 903 l 833 833 l 625 833 l 625 903 l 556 903 l 556 833 l 486 833 l 486 764 l 556 764 l 556 555 l 417 555 l 417 486 l 486 486 l 486 416 l 556 416 l 556 278 l 625 278 l 625 208 l 694 208 l 694 278 l 764 278 l 764 208 l 833 208 l 833 278 l 1250 278 l 1250 139 l 1319 139 l 1319 208 l 1389 208 l 1389 0 l 1180 0 l 1180 69 l 1111 69 l 1111 0 l 764 0 l 764 69 l 625 69 l 625 0 l 0 0 m 903 1389 l 903 1458 l 1042 1458 l 1042 1597 l 1180 1597 l 1180 1667 l 1319 1667 l 1319 1597 l 1181 1597 l 1181 1528 l 1389 1528 l 1389 1458 l 1250 1458 l 1250 1389 l 1180 1389 l 1180 1528 l 1111 1528 l 1111 1458 l 1042 1458 l 1042 1389 l 903 1389 z "},"":{"ha":1597,"x_min":0,"x_max":1389,"o":"m 1250 69 l 1250 139 l 1181 139 l 1181 69 l 1250 69 m 139 69 l 139 139 l 208 139 l 208 208 l 70 208 l 70 69 l 139 69 m 416 347 l 416 416 l 347 416 l 347 347 l 416 347 m 486 486 l 486 625 l 417 625 l 417 486 l 486 486 m 972 625 l 972 694 l 903 694 l 903 625 l 972 625 m 486 833 l 486 903 l 417 903 l 417 833 l 486 833 m 903 347 l 903 555 l 833 555 l 833 694 l 903 694 l 903 764 l 833 764 l 833 833 l 764 833 l 764 903 l 694 903 l 694 833 l 556 833 l 556 555 l 764 555 l 764 416 l 833 416 l 833 347 l 903 347 m 903 833 l 903 903 l 833 903 l 833 833 l 903 833 m 972 903 l 972 972 l 903 972 l 903 903 l 972 903 m 625 903 l 625 1042 l 556 1042 l 556 903 l 625 903 m 1042 972 l 1042 1042 l 972 1042 l 972 972 l 1042 972 m 0 1111 l 0 1389 l 70 1389 l 70 1319 l 139 1319 l 139 1389 l 278 1389 l 278 1250 l 139 1250 l 139 1111 l 0 1111 m 0 0 l 0 278 l 278 278 l 278 694 l 416 694 l 416 833 l 278 833 l 278 1111 l 208 1111 l 208 1180 l 278 1180 l 278 1111 l 417 1111 l 417 972 l 486 972 l 486 1042 l 555 1042 l 555 1111 l 625 1111 l 625 1042 l 694 1042 l 694 972 l 764 972 l 764 903 l 833 903 l 833 1111 l 903 1111 l 903 1042 l 972 1042 l 972 1111 l 1111 1111 l 1111 1250 l 1180 1250 l 1180 1389 l 1389 1389 l 1389 1250 l 1319 1250 l 1319 1319 l 1250 1319 l 1250 1180 l 1389 1180 l 1389 1111 l 1111 1111 l 1111 972 l 1042 972 l 1042 833 l 903 833 l 903 764 l 1111 764 l 1111 694 l 1042 694 l 1042 625 l 972 625 l 972 347 l 1042 347 l 1042 555 l 1111 555 l 1111 278 l 1181 278 l 1181 208 l 1250 208 l 1250 278 l 1389 278 l 1389 139 l 1319 139 l 1319 69 l 1389 69 l 1389 0 l 1111 0 l 1111 278 l 694 278 l 694 347 l 625 347 l 625 416 l 486 416 l 486 278 l 278 278 l 278 0 l 0 0 z "},"":{"ha":1597,"x_min":0,"x_max":1389,"o":"m 764 -69 l 764 0 l 625 0 l 625 -69 l 764 -69 m 1042 69 l 1042 139 l 972 139 l 972 69 l 1042 69 m 486 139 l 486 208 l 417 208 l 417 139 l 486 139 m 694 139 l 694 208 l 625 208 l 625 139 l 694 139 m 903 139 l 903 208 l 833 208 l 833 139 l 903 139 m 833 208 l 833 278 l 764 278 l 764 208 l 833 208 m 764 486 l 764 555 l 694 555 l 694 486 l 764 486 m 833 555 l 833 625 l 764 625 l 764 555 l 833 555 m 625 694 l 625 764 l 556 764 l 556 694 l 625 694 m 694 764 l 694 833 l 625 833 l 625 764 l 694 764 m 1042 764 l 1042 833 l 1111 833 l 1111 764 l 1042 764 m 694 972 l 694 1042 l 625 1042 l 625 972 l 694 972 m 416 1250 l 416 1319 l 347 1319 l 347 1250 l 416 1250 m 555 -278 l 555 0 l 278 0 l 278 278 l 555 278 l 555 555 l 486 555 l 486 625 l 417 625 l 417 555 l 278 555 l 278 694 l 347 694 l 347 764 l 278 764 l 278 833 l 625 833 l 625 903 l 555 903 l 555 1111 l 278 1111 l 278 1319 l 347 1319 l 347 1389 l 417 1389 l 417 1319 l 486 1319 l 486 1389 l 556 1389 l 556 1250 l 417 1250 l 417 1180 l 556 1180 l 556 1111 l 833 1111 l 833 1250 l 903 1250 l 903 1180 l 972 1180 l 972 1319 l 833 1319 l 833 1389 l 972 1389 l 972 1319 l 1111 1319 l 1111 1250 l 1042 1250 l 1042 1180 l 1111 1180 l 1111 1111 l 1042 1111 l 1042 1180 l 972 1180 l 972 1111 l 833 1111 l 833 1042 l 764 1042 l 764 972 l 833 972 l 833 903 l 764 903 l 764 694 l 833 694 l 833 625 l 903 625 l 903 764 l 833 764 l 833 833 l 903 833 l 903 764 l 972 764 l 972 694 l 1111 694 l 1111 625 l 972 625 l 972 555 l 833 555 l 833 278 l 1111 278 l 1111 0 l 833 0 l 833 -278 l 555 -278 m 139 1458 l 139 1528 l 70 1528 l 70 1458 l 139 1458 m 208 1528 l 208 1597 l 139 1597 l 139 1528 l 208 1528 m 1250 1528 l 1250 1597 l 1181 1597 l 1181 1528 l 1250 1528 m 0 1389 l 0 1597 l 69 1597 l 69 1667 l 278 1667 l 278 1389 l 208 1389 l 208 1458 l 139 1458 l 139 1389 l 0 1389 m 1111 1389 l 1111 1458 l 1180 1458 l 1180 1528 l 1111 1528 l 1111 1667 l 1250 1667 l 1250 1597 l 1319 1597 l 1319 1528 l 1250 1528 l 1250 1458 l 1389 1458 l 1389 1389 l 1111 1389 z "},"":{"ha":2153,"x_min":0,"x_max":1945,"o":"m 1319 -208 l 1319 -139 l 1181 -139 l 1181 -208 l 1319 -208 m 903 -139 l 903 -69 l 764 -69 l 764 -139 l 903 -139 m 1875 0 l 1875 69 l 1945 69 l 1945 0 l 1875 0 m 1805 208 l 1805 278 l 1736 278 l 1736 208 l 1805 208 m 1875 416 l 1875 486 l 1806 486 l 1806 416 l 1875 416 m 139 486 l 139 555 l 70 555 l 70 486 l 139 486 m 764 486 l 764 555 l 694 555 l 694 486 l 764 486 m 1805 486 l 1805 555 l 1736 555 l 1736 486 l 1805 486 m 208 625 l 208 694 l 139 694 l 139 625 l 208 625 m 764 694 l 764 764 l 694 764 l 694 694 l 764 694 m 1875 833 l 1875 903 l 1945 903 l 1945 833 l 1875 833 m 139 972 l 139 1042 l 70 1042 l 70 972 l 139 972 m 903 903 l 903 1042 l 833 1042 l 833 903 l 903 903 m 1180 972 l 1180 1042 l 1111 1042 l 1111 972 l 1180 972 m 555 278 l 555 1111 l 903 1111 l 903 1042 l 972 1042 l 972 1111 l 1181 1111 l 1181 1042 l 1319 1042 l 1319 1111 l 1389 1111 l 1389 1042 l 1319 1042 l 1319 972 l 1250 972 l 1250 833 l 1042 833 l 1042 903 l 972 903 l 972 833 l 833 833 l 833 555 l 972 555 l 972 486 l 1042 486 l 1042 555 l 1111 555 l 1111 416 l 1180 416 l 1180 555 l 1389 555 l 1389 486 l 1319 486 l 1319 416 l 1389 416 l 1389 278 l 1111 278 l 1111 347 l 1042 347 l 1042 278 l 555 278 m 1667 972 l 1667 1180 l 1736 1180 l 1736 1042 l 1805 1042 l 1805 1111 l 1875 1111 l 1875 1042 l 1806 1042 l 1806 972 l 1667 972 m 1319 1389 l 1319 1458 l 1389 1458 l 1389 1389 l 1319 1389 m 1667 1250 l 1667 1389 l 1458 1389 l 1458 1458 l 1667 1458 l 1667 1389 l 1736 1389 l 1736 1319 l 1805 1319 l 1805 1389 l 1875 1389 l 1875 1319 l 1945 1319 l 1945 1250 l 1875 1250 l 1875 1319 l 1806 1319 l 1806 1250 l 1667 1250 m 555 1458 l 555 1528 l 486 1528 l 486 1597 l 417 1597 l 417 1528 l 347 1528 l 347 1458 l 555 1458 m 625 1528 l 625 1597 l 556 1597 l 556 1528 l 625 1528 m 903 1458 l 903 1597 l 833 1597 l 833 1528 l 694 1528 l 694 1458 l 903 1458 m 1180 1458 l 1180 1597 l 1042 1597 l 1042 1528 l 1111 1528 l 1111 1458 l 1180 1458 m 278 -278 l 278 0 l 0 0 l 0 1389 l 278 1389 l 278 1667 l 694 1667 l 694 1597 l 764 1597 l 764 1667 l 1250 1667 l 1250 1597 l 1319 1597 l 1319 1667 l 1389 1667 l 1389 1528 l 1250 1528 l 1250 1458 l 1181 1458 l 1181 1389 l 1042 1389 l 1042 1458 l 903 1458 l 903 1389 l 278 1389 l 278 0 l 1458 0 l 1458 -69 l 1528 -69 l 1528 0 l 1667 0 l 1667 139 l 1736 139 l 1736 208 l 1667 208 l 1667 625 l 1736 625 l 1736 694 l 1667 694 l 1667 903 l 1806 903 l 1806 764 l 1736 764 l 1736 694 l 1806 694 l 1806 555 l 1875 555 l 1875 625 l 1945 625 l 1945 347 l 1875 347 l 1875 278 l 1945 278 l 1945 139 l 1875 139 l 1875 208 l 1806 208 l 1806 0 l 1667 0 l 1667 -278 l 1111 -278 l 1111 -208 l 1042 -208 l 1042 -278 l 278 -278 m 1528 1528 l 1528 1667 l 1667 1667 l 1667 1597 l 1597 1597 l 1597 1528 l 1528 1528 z "},"":{"ha":2153,"x_min":0,"x_max":1945,"o":"m 1319 -208 l 1319 -139 l 1181 -139 l 1181 -208 l 1319 -208 m 903 -139 l 903 -69 l 764 -69 l 764 -139 l 903 -139 m 1875 0 l 1875 69 l 1945 69 l 1945 0 l 1875 0 m 1805 208 l 1805 278 l 1736 278 l 1736 208 l 1805 208 m 1250 347 l 1250 416 l 1181 416 l 1181 347 l 1250 347 m 1319 416 l 1319 486 l 1250 486 l 1250 416 l 1319 416 m 1875 416 l 1875 486 l 1806 486 l 1806 416 l 1875 416 m 139 486 l 139 555 l 70 555 l 70 486 l 139 486 m 764 486 l 764 555 l 694 555 l 694 486 l 764 486 m 1805 486 l 1805 555 l 1736 555 l 1736 486 l 1805 486 m 208 625 l 208 694 l 139 694 l 139 625 l 208 625 m 764 694 l 764 764 l 694 764 l 694 694 l 764 694 m 972 694 l 972 764 l 903 764 l 903 694 l 972 694 m 1805 764 l 1805 833 l 1736 833 l 1736 764 l 1805 764 m 1042 764 l 1042 903 l 972 903 l 972 764 l 1042 764 m 139 972 l 139 1042 l 70 1042 l 70 972 l 139 972 m 903 903 l 903 1042 l 833 1042 l 833 903 l 903 903 m 1180 972 l 1180 1042 l 1111 1042 l 1111 972 l 1180 972 m 555 278 l 555 1111 l 903 1111 l 903 1042 l 972 1042 l 972 1111 l 1181 1111 l 1181 1042 l 1319 1042 l 1319 1111 l 1389 1111 l 1389 1042 l 1319 1042 l 1319 972 l 1250 972 l 1250 833 l 1111 833 l 1111 764 l 1042 764 l 1042 694 l 1111 694 l 1111 555 l 1181 555 l 1181 486 l 1250 486 l 1250 555 l 1319 555 l 1319 486 l 1389 486 l 1389 416 l 1319 416 l 1319 347 l 1389 347 l 1389 278 l 1111 278 l 1111 416 l 1180 416 l 1180 486 l 1111 486 l 1111 555 l 833 555 l 833 278 l 555 278 m 1319 1389 l 1319 1458 l 1389 1458 l 1389 1389 l 1319 1389 m 1667 1250 l 1667 1389 l 1458 1389 l 1458 1458 l 1667 1458 l 1667 1389 l 1736 1389 l 1736 1319 l 1805 1319 l 1805 1389 l 1875 1389 l 1875 1319 l 1945 1319 l 1945 1250 l 1875 1250 l 1875 1319 l 1806 1319 l 1806 1250 l 1667 1250 m 486 1458 l 486 1597 l 417 1597 l 417 1528 l 347 1528 l 347 1458 l 486 1458 m 625 1528 l 625 1597 l 556 1597 l 556 1528 l 625 1528 m 1180 1458 l 1180 1597 l 1042 1597 l 1042 1528 l 1111 1528 l 1111 1458 l 1180 1458 m 278 -278 l 278 0 l 0 0 l 0 1389 l 278 1389 l 278 1667 l 694 1667 l 694 1597 l 764 1597 l 764 1667 l 1250 1667 l 1250 1597 l 1319 1597 l 1319 1667 l 1389 1667 l 1389 1528 l 1250 1528 l 1250 1458 l 1181 1458 l 1181 1389 l 1042 1389 l 1042 1458 l 903 1458 l 903 1389 l 833 1389 l 833 1458 l 903 1458 l 903 1597 l 833 1597 l 833 1528 l 694 1528 l 694 1458 l 764 1458 l 764 1389 l 278 1389 l 278 0 l 1458 0 l 1458 -69 l 1528 -69 l 1528 0 l 1667 0 l 1667 139 l 1736 139 l 1736 208 l 1667 208 l 1667 625 l 1736 625 l 1736 694 l 1667 694 l 1667 903 l 1736 903 l 1736 972 l 1667 972 l 1667 1180 l 1736 1180 l 1736 1042 l 1805 1042 l 1805 1111 l 1875 1111 l 1875 972 l 1945 972 l 1945 903 l 1875 903 l 1875 972 l 1806 972 l 1806 833 l 1875 833 l 1875 764 l 1945 764 l 1945 694 l 1875 694 l 1875 764 l 1806 764 l 1806 555 l 1875 555 l 1875 625 l 1945 625 l 1945 347 l 1875 347 l 1875 278 l 1945 278 l 1945 139 l 1875 139 l 1875 208 l 1806 208 l 1806 0 l 1667 0 l 1667 -278 l 1111 -278 l 1111 -208 l 1042 -208 l 1042 -278 l 278 -278 m 1528 1528 l 1528 1667 l 1667 1667 l 1667 1597 l 1736 1597 l 1736 1528 l 1667 1528 l 1667 1597 l 1597 1597 l 1597 1528 l 1528 1528 z "},"":{"ha":1597,"x_min":0,"x_max":1389,"o":"m 764 69 l 764 139 l 694 139 l 694 69 l 764 69 m 1319 69 l 1319 139 l 1250 139 l 1250 69 l 1319 69 m 1250 208 l 1250 278 l 1181 278 l 1181 208 l 1250 208 m 764 278 l 764 347 l 694 347 l 694 278 l 764 278 m 1319 347 l 1319 416 l 1250 416 l 1250 347 l 1319 347 m 1250 486 l 1250 555 l 1181 555 l 1181 486 l 1250 486 m 347 694 l 347 764 l 278 764 l 278 694 l 347 694 m 625 694 l 625 764 l 556 764 l 556 694 l 625 694 m 764 555 l 764 764 l 694 764 l 694 555 l 764 555 m 139 764 l 139 833 l 70 833 l 70 764 l 139 764 m 486 764 l 486 833 l 417 833 l 417 764 l 486 764 m 1111 0 l 1111 833 l 1181 833 l 1181 694 l 1319 694 l 1319 625 l 1389 625 l 1389 0 l 1111 0 m 1250 764 l 1250 833 l 1319 833 l 1319 764 l 1250 764 m 278 833 l 278 903 l 209 903 l 209 833 l 278 833 m 694 903 l 694 972 l 625 972 l 625 903 l 694 903 m 1319 903 l 1319 972 l 1389 972 l 1389 903 l 1319 903 m 764 972 l 764 1042 l 694 1042 l 694 972 l 764 972 m 416 833 l 416 972 l 486 972 l 486 1111 l 347 1111 l 347 833 l 416 833 m 833 1042 l 833 1111 l 764 1111 l 764 1042 l 833 1042 m 1319 1042 l 1319 1111 l 1389 1111 l 1389 1042 l 1319 1042 m 278 1111 l 278 1180 l 209 1180 l 209 1111 l 278 1111 m 625 1111 l 625 1180 l 556 1180 l 556 1111 l 625 1111 m 555 1180 l 555 1250 l 486 1250 l 486 1180 l 555 1180 m 694 1180 l 694 1250 l 625 1250 l 625 1180 l 694 1180 m 1042 1180 l 1042 1250 l 972 1250 l 972 1180 l 1042 1180 m 555 0 l 555 555 l 0 555 l 0 1319 l 764 1319 l 764 1180 l 903 1180 l 903 1250 l 833 1250 l 833 1319 l 903 1319 l 903 1250 l 972 1250 l 972 1319 l 1042 1319 l 1042 1250 l 1111 1250 l 1111 1319 l 1250 1319 l 1250 1250 l 1111 1250 l 1111 1111 l 1180 1111 l 1180 1180 l 1250 1180 l 1250 1111 l 1181 1111 l 1181 1042 l 1250 1042 l 1250 903 l 1111 903 l 1111 972 l 1180 972 l 1180 1042 l 1111 1042 l 1111 1111 l 1042 1111 l 1042 1042 l 972 1042 l 972 1111 l 903 1111 l 903 1042 l 833 1042 l 833 0 l 555 0 z "},"":{"ha":1597,"x_min":0,"x_max":1389,"o":"m 764 69 l 764 139 l 694 139 l 694 69 l 764 69 m 903 69 l 903 139 l 833 139 l 833 69 l 903 69 m 1111 69 l 1111 208 l 972 208 l 972 139 l 1042 139 l 1042 69 l 1111 69 m 278 208 l 278 278 l 209 278 l 209 208 l 278 208 m 555 625 l 555 694 l 486 694 l 486 625 l 555 625 m 694 694 l 694 764 l 625 764 l 625 694 l 694 694 m 0 0 l 0 833 l 278 833 l 278 764 l 347 764 l 347 833 l 833 833 l 833 694 l 764 694 l 764 625 l 833 625 l 833 555 l 278 555 l 278 278 l 347 278 l 347 208 l 416 208 l 416 278 l 556 278 l 556 208 l 625 208 l 625 278 l 694 278 l 694 208 l 764 208 l 764 139 l 833 139 l 833 278 l 903 278 l 903 208 l 972 208 l 972 278 l 1111 278 l 1111 208 l 1250 208 l 1250 278 l 1319 278 l 1319 208 l 1250 208 l 1250 139 l 1319 139 l 1319 69 l 1389 69 l 1389 0 l 1250 0 l 1250 69 l 1181 69 l 1181 0 l 1042 0 l 1042 69 l 972 69 l 972 0 l 625 0 l 625 69 l 556 69 l 556 0 l 0 0 m 555 1111 l 555 1389 l 694 1389 l 694 1319 l 625 1319 l 625 1250 l 764 1250 l 764 1319 l 833 1319 l 833 1250 l 764 1250 l 764 1180 l 833 1180 l 833 1111 l 555 1111 z "},"":{"ha":1597,"x_min":0,"x_max":1389,"o":"m 1319 139 l 1319 208 l 1250 208 l 1250 139 l 1319 139 m 208 347 l 208 416 l 139 416 l 139 347 l 208 347 m 1319 486 l 1319 555 l 1250 555 l 1250 486 l 1319 486 m 139 555 l 139 625 l 70 625 l 70 555 l 139 555 m 1180 555 l 1180 625 l 1111 625 l 1111 555 l 1180 555 m 347 625 l 347 694 l 278 694 l 278 625 l 347 625 m 764 625 l 764 694 l 694 694 l 694 625 l 764 625 m 972 625 l 972 694 l 903 694 l 903 625 l 972 625 m 1319 694 l 1319 764 l 1111 764 l 1111 694 l 1319 694 m 208 764 l 208 833 l 139 833 l 139 764 l 208 764 m 139 833 l 139 903 l 70 903 l 70 833 l 139 833 m 208 1042 l 208 1111 l 139 1111 l 139 1042 l 208 1042 m 278 1111 l 278 1180 l 209 1180 l 209 1111 l 278 1111 m 139 1180 l 139 1250 l 70 1250 l 70 1180 l 139 1180 m 1111 1180 l 1111 1250 l 1042 1250 l 1042 1180 l 1111 1180 m 1250 1111 l 1250 1180 l 1319 1180 l 1319 1250 l 1181 1250 l 1181 1111 l 1250 1111 m 278 1250 l 278 1319 l 209 1319 l 209 1250 l 278 1250 m 0 0 l 0 1042 l 69 1042 l 69 1111 l 0 1111 l 0 1389 l 139 1389 l 139 1319 l 208 1319 l 208 1389 l 347 1389 l 347 1250 l 416 1250 l 416 1389 l 556 1389 l 556 1250 l 625 1250 l 625 1389 l 764 1389 l 764 1250 l 833 1250 l 833 1389 l 903 1389 l 903 1319 l 972 1319 l 972 1250 l 1042 1250 l 1042 1389 l 1111 1389 l 1111 1250 l 1180 1250 l 1180 1319 l 1319 1319 l 1319 1250 l 1389 1250 l 1389 1180 l 1319 1180 l 1319 1111 l 1389 1111 l 1389 903 l 1250 903 l 1250 972 l 1319 972 l 1319 1111 l 1250 1111 l 1250 1042 l 1111 1042 l 1111 1111 l 972 1111 l 972 1250 l 903 1250 l 903 1111 l 833 1111 l 833 1180 l 764 1180 l 764 1111 l 694 1111 l 694 1180 l 764 1180 l 764 1250 l 625 1250 l 625 1111 l 486 1111 l 486 1180 l 555 1180 l 555 1250 l 417 1250 l 417 1111 l 278 1111 l 278 1042 l 209 1042 l 209 972 l 278 972 l 278 833 l 347 833 l 347 764 l 416 764 l 416 833 l 486 833 l 486 694 l 555 694 l 555 833 l 764 833 l 764 764 l 833 764 l 833 833 l 972 833 l 972 764 l 1042 764 l 1042 833 l 1111 833 l 1111 972 l 1181 972 l 1181 833 l 1319 833 l 1319 764 l 1389 764 l 1389 625 l 1319 625 l 1319 555 l 1389 555 l 1389 416 l 1319 416 l 1319 278 l 1389 278 l 1389 0 l 1111 0 l 1111 347 l 1180 347 l 1180 416 l 1111 416 l 1111 555 l 833 555 l 833 625 l 764 625 l 764 555 l 625 555 l 625 625 l 556 625 l 556 555 l 278 555 l 278 0 l 0 0 m 903 1736 l 903 1805 l 833 1805 l 833 1736 l 903 1736 m 625 2014 l 625 2083 l 556 2083 l 556 2014 l 625 2014 m 555 2083 l 555 2153 l 486 2153 l 486 2083 l 555 2083 m 694 1667 l 694 1736 l 764 1736 l 764 1805 l 694 1805 l 694 1944 l 416 1944 l 416 2222 l 556 2222 l 556 2153 l 625 2153 l 625 2222 l 694 2222 l 694 2153 l 625 2153 l 625 2083 l 694 2083 l 694 1944 l 764 1944 l 764 1875 l 903 1875 l 903 1944 l 972 1944 l 972 1875 l 903 1875 l 903 1805 l 972 1805 l 972 1736 l 903 1736 l 903 1667 l 694 1667 z "},"":{"ha":1597,"x_min":0,"x_max":1389,"o":"m 1319 139 l 1319 208 l 1250 208 l 1250 139 l 1319 139 m 208 347 l 208 416 l 139 416 l 139 347 l 208 347 m 1319 486 l 1319 555 l 1250 555 l 1250 486 l 1319 486 m 139 555 l 139 625 l 70 625 l 70 555 l 139 555 m 1180 555 l 1180 625 l 1111 625 l 1111 555 l 1180 555 m 347 625 l 347 694 l 278 694 l 278 625 l 347 625 m 764 625 l 764 694 l 694 694 l 694 625 l 764 625 m 972 625 l 972 694 l 903 694 l 903 625 l 972 625 m 1319 694 l 1319 764 l 1111 764 l 1111 694 l 1319 694 m 208 764 l 208 833 l 139 833 l 139 764 l 208 764 m 139 833 l 139 903 l 70 903 l 70 833 l 139 833 m 208 1042 l 208 1111 l 139 1111 l 139 1042 l 208 1042 m 278 1111 l 278 1180 l 209 1180 l 209 1111 l 278 1111 m 139 1180 l 139 1250 l 70 1250 l 70 1180 l 139 1180 m 1111 1180 l 1111 1250 l 1042 1250 l 1042 1180 l 1111 1180 m 1250 1111 l 1250 1180 l 1319 1180 l 1319 1250 l 1181 1250 l 1181 1111 l 1250 1111 m 278 1250 l 278 1319 l 209 1319 l 209 1250 l 278 1250 m 0 0 l 0 1042 l 69 1042 l 69 1111 l 0 1111 l 0 1389 l 139 1389 l 139 1319 l 208 1319 l 208 1389 l 347 1389 l 347 1250 l 416 1250 l 416 1389 l 556 1389 l 556 1250 l 625 1250 l 625 1389 l 764 1389 l 764 1250 l 833 1250 l 833 1389 l 903 1389 l 903 1319 l 972 1319 l 972 1250 l 1042 1250 l 1042 1389 l 1111 1389 l 1111 1250 l 1180 1250 l 1180 1319 l 1319 1319 l 1319 1250 l 1389 1250 l 1389 1180 l 1319 1180 l 1319 1111 l 1389 1111 l 1389 903 l 1250 903 l 1250 972 l 1319 972 l 1319 1111 l 1250 1111 l 1250 1042 l 1111 1042 l 1111 1111 l 972 1111 l 972 1250 l 903 1250 l 903 1111 l 833 1111 l 833 1180 l 764 1180 l 764 1111 l 694 1111 l 694 1180 l 764 1180 l 764 1250 l 625 1250 l 625 1111 l 486 1111 l 486 1180 l 555 1180 l 555 1250 l 417 1250 l 417 1111 l 278 1111 l 278 1042 l 209 1042 l 209 972 l 278 972 l 278 833 l 347 833 l 347 764 l 416 764 l 416 833 l 486 833 l 486 694 l 555 694 l 555 833 l 764 833 l 764 764 l 833 764 l 833 833 l 972 833 l 972 764 l 1042 764 l 1042 833 l 1111 833 l 1111 972 l 1181 972 l 1181 833 l 1319 833 l 1319 764 l 1389 764 l 1389 625 l 1319 625 l 1319 555 l 1389 555 l 1389 416 l 1319 416 l 1319 278 l 1389 278 l 1389 0 l 1111 0 l 1111 347 l 1180 347 l 1180 416 l 1111 416 l 1111 555 l 833 555 l 833 625 l 764 625 l 764 555 l 625 555 l 625 625 l 556 625 l 556 555 l 278 555 l 278 0 l 0 0 m 555 1736 l 555 1805 l 486 1805 l 486 1736 l 555 1736 m 416 1667 l 416 1944 l 486 1944 l 486 1875 l 555 1875 l 555 1944 l 694 1944 l 694 2153 l 764 2153 l 764 2222 l 833 2222 l 833 2014 l 972 2014 l 972 1944 l 694 1944 l 694 1875 l 625 1875 l 625 1736 l 694 1736 l 694 1667 l 416 1667 m 903 2153 l 903 2222 l 972 2222 l 972 2153 l 903 2153 z "},"":{"ha":1597,"x_min":0,"x_max":1389,"o":"m 1319 139 l 1319 208 l 1250 208 l 1250 139 l 1319 139 m 208 347 l 208 416 l 139 416 l 139 347 l 208 347 m 1319 486 l 1319 555 l 1250 555 l 1250 486 l 1319 486 m 139 555 l 139 625 l 70 625 l 70 555 l 139 555 m 1180 555 l 1180 625 l 1111 625 l 1111 555 l 1180 555 m 347 625 l 347 694 l 278 694 l 278 625 l 347 625 m 764 625 l 764 694 l 694 694 l 694 625 l 764 625 m 972 625 l 972 694 l 903 694 l 903 625 l 972 625 m 1319 694 l 1319 764 l 1111 764 l 1111 694 l 1319 694 m 208 764 l 208 833 l 139 833 l 139 764 l 208 764 m 139 833 l 139 903 l 70 903 l 70 833 l 139 833 m 208 1042 l 208 1111 l 139 1111 l 139 1042 l 208 1042 m 278 1111 l 278 1180 l 209 1180 l 209 1111 l 278 1111 m 139 1180 l 139 1250 l 70 1250 l 70 1180 l 139 1180 m 1111 1180 l 1111 1250 l 1042 1250 l 1042 1180 l 1111 1180 m 1250 1111 l 1250 1180 l 1319 1180 l 1319 1250 l 1181 1250 l 1181 1111 l 1250 1111 m 278 1250 l 278 1319 l 209 1319 l 209 1250 l 278 1250 m 0 0 l 0 1042 l 69 1042 l 69 1111 l 0 1111 l 0 1389 l 139 1389 l 139 1319 l 208 1319 l 208 1389 l 347 1389 l 347 1250 l 416 1250 l 416 1389 l 556 1389 l 556 1250 l 625 1250 l 625 1389 l 764 1389 l 764 1250 l 833 1250 l 833 1389 l 903 1389 l 903 1319 l 972 1319 l 972 1250 l 1042 1250 l 1042 1389 l 1111 1389 l 1111 1250 l 1180 1250 l 1180 1319 l 1319 1319 l 1319 1250 l 1389 1250 l 1389 1180 l 1319 1180 l 1319 1111 l 1389 1111 l 1389 903 l 1250 903 l 1250 972 l 1319 972 l 1319 1111 l 1250 1111 l 1250 1042 l 1111 1042 l 1111 1111 l 972 1111 l 972 1250 l 903 1250 l 903 1111 l 833 1111 l 833 1180 l 764 1180 l 764 1111 l 694 1111 l 694 1180 l 764 1180 l 764 1250 l 625 1250 l 625 1111 l 486 1111 l 486 1180 l 555 1180 l 555 1250 l 417 1250 l 417 1111 l 278 1111 l 278 1042 l 209 1042 l 209 972 l 278 972 l 278 833 l 347 833 l 347 764 l 416 764 l 416 833 l 486 833 l 486 694 l 555 694 l 555 833 l 764 833 l 764 764 l 833 764 l 833 833 l 972 833 l 972 764 l 1042 764 l 1042 833 l 1111 833 l 1111 972 l 1181 972 l 1181 833 l 1319 833 l 1319 764 l 1389 764 l 1389 625 l 1319 625 l 1319 555 l 1389 555 l 1389 416 l 1319 416 l 1319 278 l 1389 278 l 1389 0 l 1111 0 l 1111 347 l 1180 347 l 1180 416 l 1111 416 l 1111 555 l 833 555 l 833 625 l 764 625 l 764 555 l 625 555 l 625 625 l 556 625 l 556 555 l 278 555 l 278 0 l 0 0 m 833 1667 l 833 1875 l 903 1875 l 903 1944 l 1042 1944 l 1042 1875 l 903 1875 l 903 1805 l 1042 1805 l 1042 1736 l 1111 1736 l 1111 1667 l 972 1667 l 972 1736 l 903 1736 l 903 1667 l 833 1667 m 694 2014 l 694 2083 l 625 2083 l 625 2014 l 694 2014 m 278 1667 l 278 1736 l 347 1736 l 347 1805 l 278 1805 l 278 1944 l 555 1944 l 555 2083 l 625 2083 l 625 2153 l 555 2153 l 555 2222 l 694 2222 l 694 2083 l 833 2083 l 833 2014 l 764 2014 l 764 1944 l 556 1944 l 556 1875 l 486 1875 l 486 1805 l 556 1805 l 556 1667 l 278 1667 m 764 2153 l 764 2222 l 833 2222 l 833 2153 l 764 2153 z "},"":{"ha":1597,"x_min":0,"x_max":1389,"o":"m 1319 139 l 1319 208 l 1250 208 l 1250 139 l 1319 139 m 208 347 l 208 416 l 139 416 l 139 347 l 208 347 m 1319 486 l 1319 555 l 1250 555 l 1250 486 l 1319 486 m 139 555 l 139 625 l 70 625 l 70 555 l 139 555 m 1180 555 l 1180 625 l 1111 625 l 1111 555 l 1180 555 m 347 625 l 347 694 l 278 694 l 278 625 l 347 625 m 764 625 l 764 694 l 694 694 l 694 625 l 764 625 m 972 625 l 972 694 l 903 694 l 903 625 l 972 625 m 1319 694 l 1319 764 l 1111 764 l 1111 694 l 1319 694 m 208 764 l 208 833 l 139 833 l 139 764 l 208 764 m 139 833 l 139 903 l 70 903 l 70 833 l 139 833 m 208 1042 l 208 1111 l 139 1111 l 139 1042 l 208 1042 m 278 1111 l 278 1180 l 209 1180 l 209 1111 l 278 1111 m 139 1180 l 139 1250 l 70 1250 l 70 1180 l 139 1180 m 1111 1180 l 1111 1250 l 1042 1250 l 1042 1180 l 1111 1180 m 1250 1111 l 1250 1180 l 1319 1180 l 1319 1250 l 1181 1250 l 1181 1111 l 1250 1111 m 278 1250 l 278 1319 l 209 1319 l 209 1250 l 278 1250 m 0 0 l 0 1042 l 69 1042 l 69 1111 l 0 1111 l 0 1389 l 139 1389 l 139 1319 l 208 1319 l 208 1389 l 347 1389 l 347 1250 l 416 1250 l 416 1389 l 556 1389 l 556 1250 l 625 1250 l 625 1389 l 764 1389 l 764 1250 l 833 1250 l 833 1389 l 903 1389 l 903 1319 l 972 1319 l 972 1250 l 1042 1250 l 1042 1389 l 1111 1389 l 1111 1250 l 1180 1250 l 1180 1319 l 1319 1319 l 1319 1250 l 1389 1250 l 1389 1180 l 1319 1180 l 1319 1111 l 1389 1111 l 1389 903 l 1250 903 l 1250 972 l 1319 972 l 1319 1111 l 1250 1111 l 1250 1042 l 1111 1042 l 1111 1111 l 972 1111 l 972 1250 l 903 1250 l 903 1111 l 833 1111 l 833 1180 l 764 1180 l 764 1111 l 694 1111 l 694 1180 l 764 1180 l 764 1250 l 625 1250 l 625 1111 l 486 1111 l 486 1180 l 555 1180 l 555 1250 l 417 1250 l 417 1111 l 278 1111 l 278 1042 l 209 1042 l 209 972 l 278 972 l 278 833 l 347 833 l 347 764 l 416 764 l 416 833 l 486 833 l 486 694 l 555 694 l 555 833 l 764 833 l 764 764 l 833 764 l 833 833 l 972 833 l 972 764 l 1042 764 l 1042 833 l 1111 833 l 1111 972 l 1181 972 l 1181 833 l 1319 833 l 1319 764 l 1389 764 l 1389 625 l 1319 625 l 1319 555 l 1389 555 l 1389 416 l 1319 416 l 1319 278 l 1389 278 l 1389 0 l 1111 0 l 1111 347 l 1180 347 l 1180 416 l 1111 416 l 1111 555 l 833 555 l 833 625 l 764 625 l 764 555 l 625 555 l 625 625 l 556 625 l 556 555 l 278 555 l 278 0 l 0 0 m 139 1736 l 139 1805 l 70 1805 l 70 1736 l 139 1736 m 972 1736 l 972 1805 l 903 1805 l 903 1736 l 972 1736 m 764 1805 l 764 1875 l 694 1875 l 694 1805 l 764 1805 m 694 1875 l 694 2014 l 625 2014 l 625 1875 l 694 1875 m 486 2014 l 486 2083 l 417 2083 l 417 2014 l 486 2014 m 1319 2014 l 1319 2083 l 1250 2083 l 1250 2014 l 1319 2014 m 625 2083 l 625 2153 l 556 2153 l 556 2083 l 625 2083 m 764 2083 l 764 2153 l 694 2153 l 694 2083 l 764 2083 m 0 1667 l 0 1944 l 278 1944 l 278 2222 l 486 2222 l 486 2153 l 555 2153 l 555 2222 l 764 2222 l 764 2153 l 833 2153 l 833 2083 l 764 2083 l 764 2014 l 833 2014 l 833 1805 l 903 1805 l 903 1944 l 972 1944 l 972 1875 l 1111 1875 l 1111 1805 l 1042 1805 l 1042 1736 l 1111 1736 l 1111 1667 l 1042 1667 l 1042 1736 l 972 1736 l 972 1667 l 555 1667 l 555 1944 l 278 1944 l 278 1875 l 209 1875 l 209 1805 l 278 1805 l 278 1667 l 0 1667 m 1111 2153 l 1111 2222 l 1181 2222 l 1181 2153 l 1111 2153 m 1111 1944 l 1111 2014 l 1180 2014 l 1180 2083 l 1250 2083 l 1250 2222 l 1389 2222 l 1389 2153 l 1319 2153 l 1319 2083 l 1389 2083 l 1389 2014 l 1319 2014 l 1319 1944 l 1111 1944 z "},"":{"ha":1597,"x_min":0,"x_max":1389,"o":"m 1319 139 l 1319 208 l 1250 208 l 1250 139 l 1319 139 m 208 347 l 208 416 l 139 416 l 139 347 l 208 347 m 1319 486 l 1319 555 l 1250 555 l 1250 486 l 1319 486 m 139 555 l 139 625 l 70 625 l 70 555 l 139 555 m 1180 555 l 1180 625 l 1111 625 l 1111 555 l 1180 555 m 347 625 l 347 694 l 278 694 l 278 625 l 347 625 m 764 625 l 764 694 l 694 694 l 694 625 l 764 625 m 972 625 l 972 694 l 903 694 l 903 625 l 972 625 m 1319 694 l 1319 764 l 1111 764 l 1111 694 l 1319 694 m 208 764 l 208 833 l 139 833 l 139 764 l 208 764 m 139 833 l 139 903 l 70 903 l 70 833 l 139 833 m 208 1042 l 208 1111 l 139 1111 l 139 1042 l 208 1042 m 278 1111 l 278 1180 l 209 1180 l 209 1111 l 278 1111 m 139 1180 l 139 1250 l 70 1250 l 70 1180 l 139 1180 m 1111 1180 l 1111 1250 l 1042 1250 l 1042 1180 l 1111 1180 m 1250 1111 l 1250 1180 l 1319 1180 l 1319 1250 l 1181 1250 l 1181 1111 l 1250 1111 m 278 1250 l 278 1319 l 209 1319 l 209 1250 l 278 1250 m 0 0 l 0 1042 l 69 1042 l 69 1111 l 0 1111 l 0 1389 l 139 1389 l 139 1319 l 208 1319 l 208 1389 l 347 1389 l 347 1250 l 416 1250 l 416 1389 l 556 1389 l 556 1250 l 625 1250 l 625 1389 l 764 1389 l 764 1250 l 833 1250 l 833 1389 l 903 1389 l 903 1319 l 972 1319 l 972 1250 l 1042 1250 l 1042 1389 l 1111 1389 l 1111 1250 l 1180 1250 l 1180 1319 l 1319 1319 l 1319 1250 l 1389 1250 l 1389 1180 l 1319 1180 l 1319 1111 l 1389 1111 l 1389 903 l 1250 903 l 1250 972 l 1319 972 l 1319 1111 l 1250 1111 l 1250 1042 l 1111 1042 l 1111 1111 l 972 1111 l 972 1250 l 903 1250 l 903 1111 l 833 1111 l 833 1180 l 764 1180 l 764 1111 l 694 1111 l 694 1180 l 764 1180 l 764 1250 l 625 1250 l 625 1111 l 486 1111 l 486 1180 l 555 1180 l 555 1250 l 417 1250 l 417 1111 l 278 1111 l 278 1042 l 209 1042 l 209 972 l 278 972 l 278 833 l 347 833 l 347 764 l 416 764 l 416 833 l 486 833 l 486 694 l 555 694 l 555 833 l 764 833 l 764 764 l 833 764 l 833 833 l 972 833 l 972 764 l 1042 764 l 1042 833 l 1111 833 l 1111 972 l 1181 972 l 1181 833 l 1319 833 l 1319 764 l 1389 764 l 1389 625 l 1319 625 l 1319 555 l 1389 555 l 1389 416 l 1319 416 l 1319 278 l 1389 278 l 1389 0 l 1111 0 l 1111 347 l 1180 347 l 1180 416 l 1111 416 l 1111 555 l 833 555 l 833 625 l 764 625 l 764 555 l 625 555 l 625 625 l 556 625 l 556 555 l 278 555 l 278 0 l 0 0 m 416 1736 l 416 1805 l 347 1805 l 347 1736 l 416 1736 m 972 1736 l 972 1805 l 903 1805 l 903 1736 l 972 1736 m 278 1667 l 278 1875 l 347 1875 l 347 1944 l 486 1944 l 486 1805 l 556 1805 l 556 1667 l 278 1667 m 833 1667 l 833 1805 l 903 1805 l 903 1875 l 833 1875 l 833 1944 l 903 1944 l 903 1875 l 1042 1875 l 1042 1736 l 1111 1736 l 1111 1667 l 833 1667 z "},"":{"ha":1597,"x_min":0,"x_max":1389,"o":"m 1319 139 l 1319 208 l 1250 208 l 1250 139 l 1319 139 m 208 347 l 208 416 l 139 416 l 139 347 l 208 347 m 1319 486 l 1319 555 l 1250 555 l 1250 486 l 1319 486 m 139 555 l 139 625 l 70 625 l 70 555 l 139 555 m 1180 555 l 1180 625 l 1111 625 l 1111 555 l 1180 555 m 347 625 l 347 694 l 278 694 l 278 625 l 347 625 m 764 625 l 764 694 l 694 694 l 694 625 l 764 625 m 972 625 l 972 694 l 903 694 l 903 625 l 972 625 m 1319 694 l 1319 764 l 1111 764 l 1111 694 l 1319 694 m 208 764 l 208 833 l 139 833 l 139 764 l 208 764 m 139 833 l 139 903 l 70 903 l 70 833 l 139 833 m 208 1042 l 208 1111 l 139 1111 l 139 1042 l 208 1042 m 278 1111 l 278 1180 l 209 1180 l 209 1111 l 278 1111 m 139 1180 l 139 1250 l 70 1250 l 70 1180 l 139 1180 m 1111 1180 l 1111 1250 l 1042 1250 l 1042 1180 l 1111 1180 m 1250 1111 l 1250 1180 l 1319 1180 l 1319 1250 l 1181 1250 l 1181 1111 l 1250 1111 m 278 1250 l 278 1319 l 209 1319 l 209 1250 l 278 1250 m 0 0 l 0 1042 l 69 1042 l 69 1111 l 0 1111 l 0 1389 l 139 1389 l 139 1319 l 208 1319 l 208 1389 l 347 1389 l 347 1250 l 416 1250 l 416 1389 l 556 1389 l 556 1250 l 625 1250 l 625 1389 l 764 1389 l 764 1250 l 833 1250 l 833 1389 l 903 1389 l 903 1319 l 972 1319 l 972 1250 l 1042 1250 l 1042 1389 l 1111 1389 l 1111 1250 l 1180 1250 l 1180 1319 l 1319 1319 l 1319 1250 l 1389 1250 l 1389 1180 l 1319 1180 l 1319 1111 l 1389 1111 l 1389 903 l 1250 903 l 1250 972 l 1319 972 l 1319 1111 l 1250 1111 l 1250 1042 l 1111 1042 l 1111 1111 l 972 1111 l 972 1250 l 903 1250 l 903 1111 l 833 1111 l 833 1180 l 764 1180 l 764 1111 l 694 1111 l 694 1180 l 764 1180 l 764 1250 l 625 1250 l 625 1111 l 486 1111 l 486 1180 l 555 1180 l 555 1250 l 417 1250 l 417 1111 l 278 1111 l 278 1042 l 209 1042 l 209 972 l 278 972 l 278 833 l 347 833 l 347 764 l 416 764 l 416 833 l 486 833 l 486 694 l 555 694 l 555 833 l 764 833 l 764 764 l 833 764 l 833 833 l 972 833 l 972 764 l 1042 764 l 1042 833 l 1111 833 l 1111 972 l 1181 972 l 1181 833 l 1319 833 l 1319 764 l 1389 764 l 1389 625 l 1319 625 l 1319 555 l 1389 555 l 1389 416 l 1319 416 l 1319 278 l 1389 278 l 1389 0 l 1111 0 l 1111 347 l 1180 347 l 1180 416 l 1111 416 l 1111 555 l 833 555 l 833 625 l 764 625 l 764 555 l 625 555 l 625 625 l 556 625 l 556 555 l 278 555 l 278 0 l 0 0 m 625 1736 l 625 1805 l 556 1805 l 556 1736 l 625 1736 m 833 1736 l 833 1805 l 764 1805 l 764 1736 l 833 1736 m 972 1736 l 972 1805 l 903 1805 l 903 1736 l 972 1736 m 486 1805 l 486 1875 l 417 1875 l 417 1805 l 486 1805 m 903 1875 l 903 1944 l 833 1944 l 833 1875 l 903 1875 m 416 2014 l 416 2083 l 347 2083 l 347 2014 l 416 2014 m 764 1875 l 764 2083 l 625 2083 l 625 2014 l 694 2014 l 694 1944 l 625 1944 l 625 1875 l 764 1875 m 555 2083 l 555 2153 l 486 2153 l 486 2083 l 555 2083 m 278 1667 l 278 2222 l 764 2222 l 764 2153 l 903 2153 l 903 2222 l 972 2222 l 972 2153 l 903 2153 l 903 2083 l 833 2083 l 833 2014 l 903 2014 l 903 1944 l 972 1944 l 972 2014 l 1111 2014 l 1111 1875 l 1042 1875 l 1042 1736 l 1111 1736 l 1111 1667 l 278 1667 m 1042 2153 l 1042 2222 l 1111 2222 l 1111 2153 l 1042 2153 z "},"":{"ha":2708,"x_min":0,"x_max":2500,"o":"m 1458 69 l 1458 139 l 1389 139 l 1389 69 l 1458 69 m 1944 69 l 1944 139 l 1875 139 l 1875 69 l 1944 69 m 2083 69 l 2083 139 l 2014 139 l 2014 69 l 2083 69 m 2431 69 l 2431 139 l 2292 139 l 2292 69 l 2431 69 m 1250 139 l 1250 208 l 1181 208 l 1181 139 l 1250 139 m 1597 139 l 1597 208 l 1528 208 l 1528 139 l 1597 139 m 2153 139 l 2153 208 l 2083 208 l 2083 139 l 2153 139 m 2292 139 l 2292 208 l 2222 208 l 2222 139 l 2292 139 m 139 416 l 139 486 l 70 486 l 70 416 l 139 416 m 1250 416 l 1250 486 l 1181 486 l 1181 416 l 1250 416 m 347 625 l 347 694 l 278 694 l 278 625 l 347 625 m 625 625 l 625 694 l 556 694 l 556 625 l 625 625 m 1319 625 l 1319 694 l 1181 694 l 1181 625 l 1319 625 m 1458 625 l 1458 694 l 1389 694 l 1389 625 l 1458 625 m 1597 625 l 1597 694 l 1528 694 l 1528 625 l 1597 625 m 2222 555 l 2222 694 l 2292 694 l 2292 555 l 2222 555 m 486 694 l 486 764 l 417 764 l 417 694 l 486 694 m 903 694 l 903 764 l 764 764 l 764 694 l 903 694 m 1667 694 l 1667 764 l 1597 764 l 1597 694 l 1667 694 m 208 764 l 208 833 l 139 833 l 139 764 l 208 764 m 1180 764 l 1180 833 l 1111 833 l 1111 764 l 1180 764 m 1319 764 l 1319 833 l 1250 833 l 1250 764 l 1319 764 m 1319 903 l 1319 972 l 1250 972 l 1250 903 l 1319 903 m 208 972 l 208 1042 l 139 1042 l 139 972 l 208 972 m 1250 972 l 1250 1042 l 1181 1042 l 1181 972 l 1250 972 m 1319 1042 l 1319 1111 l 1250 1111 l 1250 1042 l 1319 1042 m 694 764 l 694 833 l 1111 833 l 1111 1111 l 833 1111 l 833 1180 l 764 1180 l 764 1111 l 278 1111 l 278 833 l 625 833 l 625 764 l 694 764 m 1180 1111 l 1180 1180 l 1111 1180 l 1111 1111 l 1180 1111 m 208 1180 l 208 1250 l 139 1250 l 139 1180 l 208 1180 m 764 1180 l 764 1250 l 694 1250 l 694 1180 l 764 1180 m 1319 1180 l 1319 1250 l 1250 1250 l 1250 1180 l 1319 1180 m 1667 1180 l 1667 1250 l 1597 1250 l 1597 1180 l 1667 1180 m 1805 1180 l 1805 1250 l 1736 1250 l 1736 1180 l 1805 1180 m 2361 1111 l 2361 1250 l 2431 1250 l 2431 1180 l 2500 1180 l 2500 1111 l 2361 1111 m 416 1250 l 416 1319 l 347 1319 l 347 1250 l 416 1250 m 972 1180 l 972 1250 l 903 1250 l 903 1319 l 833 1319 l 833 1180 l 972 1180 m 1111 1180 l 1111 1319 l 1042 1319 l 1042 1180 l 1111 1180 m 1389 1250 l 1389 1319 l 1319 1319 l 1319 1250 l 1389 1250 m 1528 1250 l 1528 1319 l 1458 1319 l 1458 1250 l 1528 1250 m 0 0 l 0 1389 l 556 1389 l 556 1319 l 625 1319 l 625 1389 l 764 1389 l 764 1319 l 833 1319 l 833 1389 l 1111 1389 l 1111 1319 l 1180 1319 l 1180 1389 l 1528 1389 l 1528 1319 l 1597 1319 l 1597 1389 l 1736 1389 l 1736 1319 l 1805 1319 l 1805 1389 l 1875 1389 l 1875 1180 l 1944 1180 l 1944 1250 l 2014 1250 l 2014 1180 l 2083 1180 l 2083 1319 l 1944 1319 l 1944 1389 l 2083 1389 l 2083 1319 l 2222 1319 l 2222 1180 l 2292 1180 l 2292 1111 l 2222 1111 l 2222 1180 l 2153 1180 l 2153 1111 l 1528 1111 l 1528 1180 l 1458 1180 l 1458 1111 l 1389 1111 l 1389 903 l 1319 903 l 1319 833 l 1458 833 l 1458 764 l 1528 764 l 1528 833 l 1667 833 l 1667 764 l 1736 764 l 1736 833 l 2014 833 l 2014 764 l 1875 764 l 1875 694 l 1805 694 l 1805 764 l 1736 764 l 1736 694 l 1667 694 l 1667 625 l 1944 625 l 1944 694 l 2083 694 l 2083 764 l 2153 764 l 2153 833 l 2222 833 l 2222 764 l 2153 764 l 2153 625 l 2014 625 l 2014 555 l 1389 555 l 1389 278 l 1806 278 l 1806 139 l 1875 139 l 1875 278 l 2153 278 l 2153 208 l 2222 208 l 2222 278 l 2361 278 l 2361 208 l 2431 208 l 2431 278 l 2500 278 l 2500 69 l 2431 69 l 2431 0 l 1667 0 l 1667 69 l 1597 69 l 1597 0 l 1319 0 l 1319 69 l 1250 69 l 1250 0 l 1111 0 l 1111 625 l 1042 625 l 1042 555 l 833 555 l 833 625 l 764 625 l 764 555 l 278 555 l 278 416 l 209 416 l 209 347 l 278 347 l 278 0 l 0 0 m 2292 1319 l 2292 1389 l 2361 1389 l 2361 1319 l 2292 1319 m 2431 1319 l 2431 1389 l 2500 1389 l 2500 1319 l 2431 1319 z "},"":{"ha":1597,"x_min":0,"x_max":1389,"o":"m 903 -486 l 903 -416 l 833 -416 l 833 -486 l 903 -486 m 625 -208 l 625 -139 l 556 -139 l 556 -208 l 625 -208 m 903 -208 l 903 -139 l 833 -139 l 833 -208 l 903 -208 m 625 -69 l 625 0 l 556 0 l 556 -69 l 625 -69 m 764 -69 l 764 0 l 694 0 l 694 -69 l 764 -69 m 903 -69 l 903 0 l 833 0 l 833 -69 l 903 -69 m 764 69 l 764 139 l 694 139 l 694 69 l 764 69 m 903 69 l 903 139 l 833 139 l 833 69 l 903 69 m 1042 69 l 1042 139 l 972 139 l 972 69 l 1042 69 m 833 139 l 833 208 l 764 208 l 764 139 l 833 139 m 1250 139 l 1250 208 l 1181 208 l 1181 139 l 1250 139 m 208 625 l 208 694 l 139 694 l 139 625 l 208 625 m 139 833 l 139 903 l 70 903 l 70 833 l 139 833 m 208 972 l 208 1042 l 139 1042 l 139 972 l 208 972 m 139 1042 l 139 1111 l 70 1111 l 70 1042 l 139 1042 m 903 1111 l 903 1180 l 972 1180 l 972 1111 l 903 1111 m 278 1180 l 278 1250 l 209 1250 l 209 1180 l 278 1180 m 764 1180 l 764 1250 l 694 1250 l 694 1180 l 764 1180 m 625 1180 l 625 1250 l 555 1250 l 555 1319 l 486 1319 l 486 1180 l 625 1180 m 1042 1111 l 1042 1250 l 1111 1250 l 1111 1180 l 1180 1180 l 1180 1250 l 1250 1250 l 1250 1319 l 1389 1319 l 1389 1250 l 1250 1250 l 1250 1180 l 1181 1180 l 1181 1111 l 1042 1111 m 694 -555 l 694 -278 l 416 -278 l 416 0 l 0 0 l 0 972 l 69 972 l 69 1042 l 0 1042 l 0 1250 l 69 1250 l 69 1319 l 0 1319 l 0 1389 l 278 1389 l 278 1319 l 347 1319 l 347 1389 l 625 1389 l 625 1250 l 694 1250 l 694 1389 l 764 1389 l 764 1250 l 833 1250 l 833 1180 l 764 1180 l 764 1111 l 694 1111 l 694 1180 l 625 1180 l 625 1111 l 347 1111 l 347 1180 l 278 1180 l 278 972 l 209 972 l 209 903 l 278 903 l 278 833 l 209 833 l 209 764 l 278 764 l 278 278 l 486 278 l 486 208 l 555 208 l 555 278 l 903 278 l 903 139 l 972 139 l 972 278 l 1111 278 l 1111 208 l 1180 208 l 1180 278 l 1250 278 l 1250 208 l 1319 208 l 1319 139 l 1250 139 l 1250 69 l 1389 69 l 1389 0 l 1250 0 l 1250 69 l 1181 69 l 1181 0 l 972 0 l 972 -278 l 903 -278 l 903 -347 l 972 -347 l 972 -555 l 694 -555 m 903 1250 l 903 1319 l 833 1319 l 833 1389 l 972 1389 l 972 1250 l 903 1250 m 1111 1319 l 1111 1389 l 1181 1389 l 1181 1319 l 1111 1319 z "},"":{"ha":1597,"x_min":0,"x_max":1389,"o":"m 208 69 l 208 139 l 139 139 l 139 69 l 208 69 m 1042 69 l 1042 139 l 972 139 l 972 69 l 1042 69 m 625 69 l 625 208 l 556 208 l 556 69 l 625 69 m 903 139 l 903 208 l 833 208 l 833 139 l 903 139 m 1180 69 l 1180 139 l 1250 139 l 1250 208 l 1111 208 l 1111 69 l 1180 69 m 208 278 l 208 347 l 139 347 l 139 278 l 208 278 m 139 486 l 139 555 l 70 555 l 70 486 l 139 486 m 208 555 l 208 694 l 139 694 l 139 555 l 208 555 m 694 625 l 694 694 l 556 694 l 556 625 l 694 625 m 416 694 l 416 764 l 347 764 l 347 694 l 416 694 m 278 764 l 278 833 l 209 833 l 209 764 l 278 764 m 139 972 l 139 1042 l 70 1042 l 70 972 l 139 972 m 139 1111 l 139 1180 l 70 1180 l 70 1111 l 139 1111 m 1180 1111 l 1180 1180 l 1250 1180 l 1250 1111 l 1180 1111 m 1319 1111 l 1319 1180 l 1389 1180 l 1389 1111 l 1319 1111 m 278 1111 l 278 1250 l 209 1250 l 209 1111 l 278 1111 m 416 1180 l 416 1250 l 347 1250 l 347 1180 l 416 1180 m 555 1180 l 555 1250 l 486 1250 l 486 1180 l 555 1180 m 694 1180 l 694 1250 l 625 1250 l 625 1180 l 694 1180 m 833 1180 l 833 1250 l 764 1250 l 764 1180 l 833 1180 m 208 1250 l 208 1319 l 139 1319 l 139 1250 l 208 1250 m 486 1250 l 486 1319 l 417 1319 l 417 1250 l 486 1250 m 1180 1250 l 1180 1319 l 1250 1319 l 1250 1250 l 1180 1250 m 0 0 l 0 833 l 139 833 l 139 903 l 0 903 l 0 1389 l 278 1389 l 278 1319 l 347 1319 l 347 1389 l 625 1389 l 625 1319 l 694 1319 l 694 1389 l 764 1389 l 764 1319 l 833 1319 l 833 1389 l 903 1389 l 903 1319 l 972 1319 l 972 1389 l 1111 1389 l 1111 1319 l 1042 1319 l 1042 1250 l 903 1250 l 903 1180 l 1111 1180 l 1111 1111 l 903 1111 l 903 1180 l 833 1180 l 833 1111 l 278 1111 l 278 833 l 486 833 l 486 694 l 555 694 l 555 764 l 694 764 l 694 694 l 764 694 l 764 625 l 833 625 l 833 555 l 764 555 l 764 625 l 694 625 l 694 555 l 555 555 l 555 625 l 486 625 l 486 555 l 278 555 l 278 278 l 764 278 l 764 208 l 833 208 l 833 278 l 1389 278 l 1389 208 l 1319 208 l 1319 139 l 1389 139 l 1389 0 l 1250 0 l 1250 69 l 1181 69 l 1181 0 l 0 0 m 903 1736 l 903 1805 l 833 1805 l 833 1736 l 903 1736 m 625 2014 l 625 2083 l 556 2083 l 556 2014 l 625 2014 m 555 2083 l 555 2153 l 486 2153 l 486 2083 l 555 2083 m 694 1667 l 694 1736 l 764 1736 l 764 1805 l 694 1805 l 694 1944 l 416 1944 l 416 2222 l 556 2222 l 556 2153 l 625 2153 l 625 2222 l 694 2222 l 694 2153 l 625 2153 l 625 2083 l 694 2083 l 694 1944 l 764 1944 l 764 1875 l 903 1875 l 903 1944 l 972 1944 l 972 1875 l 903 1875 l 903 1805 l 972 1805 l 972 1736 l 903 1736 l 903 1667 l 694 1667 z "},"":{"ha":1597,"x_min":0,"x_max":1389,"o":"m 208 69 l 208 139 l 139 139 l 139 69 l 208 69 m 1042 69 l 1042 139 l 972 139 l 972 69 l 1042 69 m 625 69 l 625 208 l 556 208 l 556 69 l 625 69 m 903 139 l 903 208 l 833 208 l 833 139 l 903 139 m 1180 69 l 1180 139 l 1250 139 l 1250 208 l 1111 208 l 1111 69 l 1180 69 m 208 278 l 208 347 l 139 347 l 139 278 l 208 278 m 139 486 l 139 555 l 70 555 l 70 486 l 139 486 m 208 555 l 208 694 l 139 694 l 139 555 l 208 555 m 694 625 l 694 694 l 556 694 l 556 625 l 694 625 m 416 694 l 416 764 l 347 764 l 347 694 l 416 694 m 278 764 l 278 833 l 209 833 l 209 764 l 278 764 m 139 972 l 139 1042 l 70 1042 l 70 972 l 139 972 m 139 1111 l 139 1180 l 70 1180 l 70 1111 l 139 1111 m 1180 1111 l 1180 1180 l 1250 1180 l 1250 1111 l 1180 1111 m 1319 1111 l 1319 1180 l 1389 1180 l 1389 1111 l 1319 1111 m 278 1111 l 278 1250 l 209 1250 l 209 1111 l 278 1111 m 416 1180 l 416 1250 l 347 1250 l 347 1180 l 416 1180 m 555 1180 l 555 1250 l 486 1250 l 486 1180 l 555 1180 m 694 1180 l 694 1250 l 625 1250 l 625 1180 l 694 1180 m 833 1180 l 833 1250 l 764 1250 l 764 1180 l 833 1180 m 208 1250 l 208 1319 l 139 1319 l 139 1250 l 208 1250 m 486 1250 l 486 1319 l 417 1319 l 417 1250 l 486 1250 m 1180 1250 l 1180 1319 l 1250 1319 l 1250 1250 l 1180 1250 m 0 0 l 0 833 l 139 833 l 139 903 l 0 903 l 0 1389 l 278 1389 l 278 1319 l 347 1319 l 347 1389 l 625 1389 l 625 1319 l 694 1319 l 694 1389 l 764 1389 l 764 1319 l 833 1319 l 833 1389 l 903 1389 l 903 1319 l 972 1319 l 972 1389 l 1111 1389 l 1111 1319 l 1042 1319 l 1042 1250 l 903 1250 l 903 1180 l 1111 1180 l 1111 1111 l 903 1111 l 903 1180 l 833 1180 l 833 1111 l 278 1111 l 278 833 l 486 833 l 486 694 l 555 694 l 555 764 l 694 764 l 694 694 l 764 694 l 764 625 l 833 625 l 833 555 l 764 555 l 764 625 l 694 625 l 694 555 l 555 555 l 555 625 l 486 625 l 486 555 l 278 555 l 278 278 l 764 278 l 764 208 l 833 208 l 833 278 l 1389 278 l 1389 208 l 1319 208 l 1319 139 l 1389 139 l 1389 0 l 1250 0 l 1250 69 l 1181 69 l 1181 0 l 0 0 m 555 1736 l 555 1805 l 486 1805 l 486 1736 l 555 1736 m 416 1667 l 416 1944 l 486 1944 l 486 1875 l 555 1875 l 555 1944 l 694 1944 l 694 2153 l 764 2153 l 764 2222 l 833 2222 l 833 2014 l 972 2014 l 972 1944 l 694 1944 l 694 1875 l 625 1875 l 625 1736 l 694 1736 l 694 1667 l 416 1667 m 903 2153 l 903 2222 l 972 2222 l 972 2153 l 903 2153 z "}}}
